<svg xmlns="http://www.w3.org/2000/svg" xmlns:xlink="http://www.w3.org/1999/xlink" viewBox="0 0 446.27 389.32"><defs><style>.cls-1{isolation:isolate;}.cls-2{fill:#ff7f85;}.cls-3{fill:#a135bc;}.cls-4{fill:#77008f;}.cls-5{fill:#506;}.cls-6{fill:#a9a8c6;}.cls-7{fill:#1c1a2a;}.cls-8{fill:#e1dfea;}.cls-9{fill:#7c7ca0;}.cls-10{fill:url(#linear-gradient);}.cls-11{fill:#090000;}.cls-12{fill:#1a2738;}.cls-13{fill:#775570;}.cls-14{opacity:0.27;}.cls-15{fill:#f2f8ff;}.cls-16{fill:#717f90;}.cls-17{fill:#8140ff;}.cls-18{fill:#a68efe;}.cls-19{fill:#d0b8ff;}.cls-20{fill:#ff73b5;}.cls-21{fill:#d2448d;}.cls-22{fill:#fbfafc;}.cls-23,.cls-28{fill:#c5bed1;}.cls-23,.cls-29{mix-blend-mode:multiply;}.cls-24{fill:#a9a1c5;}.cls-25{fill:#c5bfdb;}.cls-26{fill:#a22967;}.cls-27{fill:#5f26cf;}.cls-30{fill:#e8acd5;}</style><linearGradient id="linear-gradient" x1="68.46" y1="209.27" x2="425.56" y2="209.27" gradientUnits="userSpaceOnUse"><stop offset="0" stop-color="#ffc485"/><stop offset="1" stop-color="#d03e3e"/></linearGradient></defs><title>Asset 1login</title><g class="cls-1"><g id="Layer_2" data-name="Layer 2"><g id="Default"><path class="cls-2" d="M190,34.72,191.22,38a1.52,1.52,0,0,0,.53.69l2.78,2c.57.42.8,1.26.39,1.42l-2,.8a.44.44,0,0,0-.2.51l.48,3c.09.63-.51.72-1,.16l-2.49-2.75a1,1,0,0,0-.65-.38l-2.49-.13a1.34,1.34,0,0,1-1-1.32l.48-2.5a1.13,1.13,0,0,0-.2-.74l-2-3.12c-.41-.65-.18-1.22.39-1l2.79,1.2a.39.39,0,0,0,.52-.08l1.25-1.8C189,33.62,189.72,34.05,190,34.72Z"/><path class="cls-2" d="M204.09,42.87l1.24,3.25a1.54,1.54,0,0,0,.53.68l2.78,2c.58.41.81,1.25.39,1.42l-2,.8c-.17.06-.24.25-.21.5l.48,3.05c.1.63-.5.72-1,.15L203.78,52a1,1,0,0,0-.65-.37l-2.49-.13a1.34,1.34,0,0,1-1-1.33l.47-2.5a1,1,0,0,0-.2-.73l-2-3.13c-.42-.65-.19-1.22.39-1l2.78,1.2a.41.41,0,0,0,.53-.08l1.24-1.8C203.09,41.78,203.83,42.21,204.09,42.87Z"/><path class="cls-2" d="M218.2,51l1.25,3.24A1.55,1.55,0,0,0,220,55l2.79,2c.57.41.8,1.25.38,1.42l-2,.8c-.17.07-.24.25-.2.5l.47,3.05c.1.63-.5.72-1,.15l-2.49-2.74a1,1,0,0,0-.65-.38l-2.49-.13a1.33,1.33,0,0,1-1-1.32l.48-2.5a1.11,1.11,0,0,0-.2-.74L212,52c-.41-.64-.18-1.22.39-1l2.78,1.2a.42.42,0,0,0,.53-.07l1.24-1.81C217.2,49.93,217.94,50.36,218.2,51Z"/><path class="cls-2" d="M232.31,59.18l1.25,3.24a1.52,1.52,0,0,0,.53.69l2.78,2c.57.42.8,1.26.39,1.42l-2,.8a.44.44,0,0,0-.2.51l.48,3c.1.63-.5.72-1,.16L232,68.3a1,1,0,0,0-.65-.38l-2.49-.13a1.32,1.32,0,0,1-1-1.32l.47-2.5a1.13,1.13,0,0,0-.2-.74l-2-3.12c-.42-.65-.19-1.22.38-1l2.79,1.2a.39.39,0,0,0,.52-.08l1.25-1.8C231.32,58.08,232.06,58.51,232.31,59.18Z"/><path class="cls-3" d="M246.43,67.33l1.24,3.25a1.62,1.62,0,0,0,.53.68l2.78,2c.58.41.81,1.25.39,1.42l-2,.8c-.17.06-.24.25-.2.5l.47,3c.1.63-.5.72-1,.15l-2.49-2.75a1.07,1.07,0,0,0-.66-.37L243,76a1.33,1.33,0,0,1-1-1.33l.47-2.5a1,1,0,0,0-.2-.73l-2-3.13c-.42-.65-.19-1.22.39-1l2.78,1.2c.23.1.43.07.53-.08l1.24-1.8C245.43,66.24,246.17,66.66,246.43,67.33Z"/><path class="cls-4" d="M31,350.83c4.81,2.78,4.81,7.28,0,10.06s-12.61,2.78-17.42,0-4.81-7.28,0-10.06S26.21,348.05,31,350.83Z"/><path class="cls-2" d="M13.06,250.09c3,1.73,3,4.53,0,6.25a11.93,11.93,0,0,1-10.82,0c-3-1.72-3-4.52,0-6.25A11.93,11.93,0,0,1,13.06,250.09Z"/><path class="cls-2" d="M399.65,158.24c2.07,1.2,2.07,3.14,0,4.34a8.35,8.35,0,0,1-7.51,0c-2.07-1.2-2.07-3.14,0-4.34A8.35,8.35,0,0,1,399.65,158.24Z"/><path class="cls-5" d="M422.64,296.67,331,349.59c-11.37,6.57-29.79,6.57-41.16,0L70.62,223c-11.36-6.56-11.36-17.2,0-23.76l91.67-52.92c11.36-6.57,29.79-6.57,41.15,0l219.2,126.55C434,279.47,434,290.11,422.64,296.67Z"/><path class="cls-4" d="M92.76,237.21,22.24,278a9.19,9.19,0,0,1-8.3,0h0c-2.29-1.33-2.29-3.47,0-4.79l70.53-40.74a9.11,9.11,0,0,1,8.29,0h0C95.05,233.74,95.05,235.88,92.76,237.21Z"/><path class="cls-4" d="M147.24,205.74,110,227.27a9.17,9.17,0,0,1-8.29,0h0c-2.29-1.33-2.29-3.47,0-4.8L139,200.94a9.17,9.17,0,0,1,8.29,0h0C149.53,202.27,149.53,204.41,147.24,205.74Z"/><path class="cls-4" d="M113.67,203.75,43.14,244.49a9.11,9.11,0,0,1-8.29,0h0c-2.29-1.32-2.29-3.47,0-4.79L105.37,199a9.19,9.19,0,0,1,8.3,0h0C116,200.29,116,202.43,113.67,203.75Z"/><path class="cls-4" d="M203.85,151.66,133.32,192.4a9.17,9.17,0,0,1-8.29,0h0c-2.29-1.32-2.29-3.47,0-4.79l70.52-40.74a9.19,9.19,0,0,1,8.3,0h0C206.14,148.19,206.14,150.34,203.85,151.66Z"/><path class="cls-4" d="M244.35,171l-70.53,40.74a9.17,9.17,0,0,1-8.29,0h0c-2.29-1.33-2.29-3.47,0-4.8l70.52-40.74a9.19,9.19,0,0,1,8.3,0h0C246.64,167.55,246.64,169.69,244.35,171Z"/><path class="cls-4" d="M111.26,247.9,90.62,259.82a9.19,9.19,0,0,1-8.3,0h0c-2.29-1.32-2.29-3.47,0-4.79L103,243.1a9.17,9.17,0,0,1,8.29,0h0C113.55,244.43,113.55,246.57,111.26,247.9Z"/><path class="cls-4" d="M288.25,145.66,267.6,157.58a9.17,9.17,0,0,1-8.29,0h0c-2.29-1.32-2.29-3.47,0-4.79L280,140.86a9.19,9.19,0,0,1,8.3,0h0C290.54,142.19,290.54,144.33,288.25,145.66Z"/><path class="cls-4" d="M127.7,174.27,57.17,215a9.11,9.11,0,0,1-8.29,0h0c-2.29-1.32-2.29-3.47,0-4.79l70.52-40.74a9.19,9.19,0,0,1,8.3,0h0C130,170.8,130,173,127.7,174.27Z"/><path class="cls-4" d="M171.59,148.91,151,160.84a9.17,9.17,0,0,1-8.29,0h0c-2.29-1.32-2.29-3.47,0-4.79l20.64-11.93a9.17,9.17,0,0,1,8.29,0h0C173.89,145.45,173.89,147.59,171.59,148.91Z"/><path class="cls-4" d="M164.25,262.5,89.7,305.56a9.66,9.66,0,0,1-8.76,0h0c-2.43-1.4-2.43-3.66,0-5.06l74.54-43.07a9.74,9.74,0,0,1,8.77,0h0C166.67,258.83,166.67,261.1,164.25,262.5Z"/><path class="cls-4" d="M221.83,229.23,182.44,252a9.68,9.68,0,0,1-8.77,0h0c-2.42-1.4-2.42-3.67,0-5.06l39.39-22.76a9.68,9.68,0,0,1,8.77,0h0C224.25,225.57,224.25,227.84,221.83,229.23Z"/><path class="cls-4" d="M186.35,227.14,111.8,270.2a9.68,9.68,0,0,1-8.77,0h0c-2.42-1.4-2.42-3.67,0-5.06l74.55-43.07a9.68,9.68,0,0,1,8.77,0h0C188.77,223.47,188.77,225.74,186.35,227.14Z"/><path class="cls-4" d="M281.66,172.08l-74.54,43.06a9.68,9.68,0,0,1-8.77,0h0c-2.42-1.4-2.42-3.67,0-5.07L272.9,167a9.66,9.66,0,0,1,8.76,0h0C284.09,168.41,284.09,170.68,281.66,172.08Z"/><path class="cls-4" d="M324.47,192.53,249.93,235.6a9.68,9.68,0,0,1-8.77,0h0c-2.42-1.4-2.42-3.67,0-5.07l74.55-43.06a9.66,9.66,0,0,1,8.76,0h0C326.9,188.87,326.9,191.14,324.47,192.53Z"/><path class="cls-4" d="M183.8,273.8,162,286.4a9.66,9.66,0,0,1-8.76,0h0c-2.42-1.4-2.42-3.66,0-5.06L175,268.73a9.66,9.66,0,0,1,8.76,0h0C186.22,270.13,186.22,272.4,183.8,273.8Z"/><path class="cls-4" d="M370.88,165.73l-21.82,12.6a9.68,9.68,0,0,1-8.77,0h0c-2.42-1.39-2.42-3.66,0-5.06l21.82-12.61a9.74,9.74,0,0,1,8.77,0h0C373.3,162.06,373.3,164.33,370.88,165.73Z"/><path class="cls-4" d="M201.17,196,126.63,239a9.68,9.68,0,0,1-8.77,0h0c-2.42-1.4-2.42-3.67,0-5.07l74.55-43.06a9.66,9.66,0,0,1,8.76,0h0C203.6,192.31,203.6,194.58,201.17,196Z"/><path class="cls-4" d="M247.58,169.17l-21.82,12.61a9.68,9.68,0,0,1-8.77,0h0c-2.42-1.4-2.42-3.67,0-5.07l21.82-12.6a9.68,9.68,0,0,1,8.77,0h0C250,165.51,250,167.77,247.58,169.17Z"/><path class="cls-4" d="M284.22,345.2l-74.54,43.07a9.68,9.68,0,0,1-8.77,0h0c-2.42-1.4-2.42-3.67,0-5.07l74.55-43.06a9.66,9.66,0,0,1,8.76,0h0C286.65,341.54,286.65,343.81,284.22,345.2Z"/><path class="cls-4" d="M341.81,311.94,302.42,334.7a9.74,9.74,0,0,1-8.77,0h0c-2.42-1.4-2.42-3.67,0-5.07L333,306.87a9.68,9.68,0,0,1,8.77,0h0C344.23,308.27,344.23,310.54,341.81,311.94Z"/><path class="cls-4" d="M306.32,309.84l-74.54,43.07a9.74,9.74,0,0,1-8.77,0h0c-2.42-1.4-2.42-3.67,0-5.07l74.55-43.06a9.66,9.66,0,0,1,8.76,0h0C308.74,306.18,308.74,308.44,306.32,309.84Z"/><path class="cls-4" d="M401.64,254.78,327.1,297.84a9.68,9.68,0,0,1-8.77,0h0c-2.42-1.4-2.42-3.66,0-5.06l74.54-43.07a9.74,9.74,0,0,1,8.77,0h0C404.06,251.11,404.06,253.38,401.64,254.78Z"/><path class="cls-4" d="M444.45,275.24,369.91,318.3a9.68,9.68,0,0,1-8.77,0h0c-2.42-1.4-2.42-3.67,0-5.06l74.54-43.07a9.74,9.74,0,0,1,8.77,0h0C446.87,271.57,446.87,273.84,444.45,275.24Z"/><path class="cls-4" d="M303.78,356.5,282,369.11a9.68,9.68,0,0,1-8.77,0h0c-2.42-1.4-2.42-3.67,0-5.07L295,351.44a9.68,9.68,0,0,1,8.77,0h0C306.2,352.84,306.2,355.1,303.78,356.5Z"/><path class="cls-4" d="M321.15,278.68l-74.54,43.06a9.68,9.68,0,0,1-8.77,0h0c-2.42-1.39-2.42-3.66,0-5.06l74.54-43.06a9.68,9.68,0,0,1,8.77,0h0C323.57,275,323.57,277.28,321.15,278.68Z"/><path class="cls-4" d="M367.55,251.88l-21.82,12.6a9.66,9.66,0,0,1-8.76,0h0c-2.43-1.4-2.43-3.66,0-5.06l21.81-12.61a9.68,9.68,0,0,1,8.77,0h0C370,248.21,370,250.48,367.55,251.88Z"/><path class="cls-4" d="M233.09,288.35l-74.54,43.06a9.68,9.68,0,0,1-8.77,0h0c-2.42-1.4-2.42-3.67,0-5.07l74.54-43.06a9.68,9.68,0,0,1,8.77,0h0C235.51,284.68,235.51,287,233.09,288.35Z"/><path class="cls-4" d="M290.67,255.08l-39.39,22.76a9.68,9.68,0,0,1-8.77,0h0c-2.42-1.4-2.42-3.67,0-5.07L281.91,250a9.72,9.72,0,0,1,8.76,0h0C293.1,251.41,293.1,253.68,290.67,255.08Z"/><path class="cls-4" d="M255.19,253l-74.55,43.06a9.66,9.66,0,0,1-8.76,0h0c-2.42-1.4-2.42-3.67,0-5.07l74.54-43.06a9.68,9.68,0,0,1,8.77,0h0C257.61,249.32,257.61,251.59,255.19,253Z"/><path class="cls-4" d="M350.51,197.92,276,241a9.68,9.68,0,0,1-8.77,0h0c-2.42-1.4-2.42-3.66,0-5.06l74.55-43.06a9.68,9.68,0,0,1,8.77,0h0C352.93,194.26,352.93,196.52,350.51,197.92Z"/><path class="cls-4" d="M393.32,218.38l-74.55,43.06a9.66,9.66,0,0,1-8.76,0h0c-2.43-1.4-2.43-3.66,0-5.06l74.54-43.06a9.68,9.68,0,0,1,8.77,0h0C395.74,214.71,395.74,217,393.32,218.38Z"/><path class="cls-4" d="M252.65,299.64l-21.82,12.61a9.68,9.68,0,0,1-8.77,0h0c-2.42-1.4-2.42-3.67,0-5.07l21.82-12.6a9.68,9.68,0,0,1,8.77,0h0C255.07,296,255.07,298.25,252.65,299.64Z"/><path class="cls-4" d="M439.72,191.58l-21.82,12.6a9.68,9.68,0,0,1-8.77,0h0c-2.42-1.4-2.42-3.67,0-5.06L431,186.51a9.68,9.68,0,0,1,8.77,0h0C442.14,187.91,442.14,190.18,439.72,191.58Z"/><path class="cls-4" d="M270,221.82l-74.55,43.07a9.74,9.74,0,0,1-8.77,0h0c-2.42-1.4-2.42-3.67,0-5.07l74.55-43.06a9.68,9.68,0,0,1,8.77,0h0C272.44,218.16,272.44,220.43,270,221.82Z"/><path class="cls-4" d="M316.42,195l-21.82,12.6a9.68,9.68,0,0,1-8.77,0h0c-2.42-1.4-2.42-3.66,0-5.06L307.65,190a9.74,9.74,0,0,1,8.77,0h0C318.84,191.35,318.84,193.62,316.42,195Z"/><path class="cls-6" d="M66.18,182.38a15.81,15.81,0,0,0,4.77,4L286.71,311a27.16,27.16,0,0,0,8.11,3.1,42.45,42.45,0,0,0,8.73.94,33.89,33.89,0,0,0,16.87-4l102.67-59.3c2.89-1.67,6-4.56,6.79-7.82a7.21,7.21,0,0,0,.18-1.66v15.3c0,4.21-3.25,7.59-7,9.74L320.42,326.54a27.47,27.47,0,0,1-8.12,3.09c-8.33,1.79-18.25,1.15-25.59-3.09L71,201.9a23,23,0,0,1-2.7-1.84c-2.35-1.86-4.27-5-4.27-8h0V176.6h0A10.18,10.18,0,0,0,66.18,182.38Z"/><path class="cls-7" d="M380.43,281.08a1.82,1.82,0,0,1,1.71-.22,1.71,1.71,0,0,1,.83,1.68v1.09a5.58,5.58,0,0,1-2.54,4.39l-17.36,10a1.54,1.54,0,0,1-2.53-1.45v-1.11a5.57,5.57,0,0,1,2.53-4.37Z"/><path class="cls-7" d="M341.89,303.07c2.42-2.46,4.73-1.48,4.67,1.06-.11,3.8-3.88,7.52-5.92,6.25a2.18,2.18,0,0,1-.71-.76,3.29,3.29,0,0,1-.27-2,7.59,7.59,0,0,1,.71-2.39,0,0,0,0,1,0,0,8.33,8.33,0,0,0,.53-.93A6.91,6.91,0,0,1,341.89,303.07Z"/><path class="cls-8" d="M70.37,181.43c1.77,2.14,3.19,2.71,9.4,6.33.11.07,210.26,121.5,211.35,122a29,29,0,0,0,12.45,2.61l0,2.6a42.45,42.45,0,0,1-8.73-.94,27.16,27.16,0,0,1-8.11-3.1L71,186.34a15.81,15.81,0,0,1-4.77-4A10.18,10.18,0,0,1,64,176.6a7.16,7.16,0,0,1,.17-1.91c.77-3.27,3.9-6.16,6.8-7.83l102.67-59.3a33.84,33.84,0,0,1,16.85-4l0,2.59a31.92,31.92,0,0,0-6.64.68c-4.44.94-6.59,2.3-9.89,4.28s7.62-4.47-38.54,22.19c-7.51,4.35-15,8.77-22.5,13.1s-15.06,8.59-22.56,13c-3.13,1.83-6.24,3.68-9.38,5.45a84.6,84.6,0,0,0-8.84,5.28C68.19,173.22,67.17,177.57,70.37,181.43Z"/><polygon class="cls-8" points="122.14 224.15 123.86 223.15 104.93 212.22 103.21 213.21 122.14 224.15"/><polygon class="cls-9" points="123.86 225.54 123.86 223.15 122.14 224.15 122.14 226.54 123.86 225.54"/><polygon class="cls-9" points="122.14 226.54 122.14 224.15 103.21 213.21 103.21 215.6 122.14 226.54"/><path class="cls-7" d="M330.81,313.15h0a1.43,1.43,0,0,0,.67-1.12h0c0-.41-.3-.57-.67-.36h0a1.48,1.48,0,0,0-.66,1.13h0C330.15,313.21,330.45,313.37,330.81,313.15Z"/><path class="cls-7" d="M417.58,266.62h0a2.24,2.24,0,0,0,1-1.74V260c0-.63-.46-.88-1-.55h0a2.24,2.24,0,0,0-1,1.74v4.92C416.55,266.7,417,267,417.58,266.62Z"/><path class="cls-7" d="M413.45,269h0a2.24,2.24,0,0,0,1-1.75v-4.92c0-.63-.46-.87-1-.55h0a2.26,2.26,0,0,0-1,1.75v4.92C412.42,269.09,412.88,269.34,413.45,269Z"/><path class="cls-7" d="M409.32,271.39h0a2.22,2.22,0,0,0,1-1.74v-4.92c0-.63-.46-.88-1-.55h0a2.24,2.24,0,0,0-1,1.74v4.92C408.29,271.47,408.75,271.72,409.32,271.39Z"/><path class="cls-7" d="M405.19,273.78h0a2.24,2.24,0,0,0,1-1.74v-4.92c0-.63-.46-.88-1-.55h0a2.22,2.22,0,0,0-1,1.74v4.92C404.16,273.86,404.62,274.11,405.19,273.78Z"/><path class="cls-7" d="M401.06,276.17h0a2.26,2.26,0,0,0,1-1.75V269.5c0-.63-.46-.88-1-.55h0a2.24,2.24,0,0,0-1,1.75v4.91C400,276.25,400.49,276.49,401.06,276.17Z"/><path class="cls-7" d="M396.93,278.55h0a2.24,2.24,0,0,0,1-1.74v-4.92c0-.63-.46-.88-1-.55h0a2.22,2.22,0,0,0-1,1.74V278C395.9,278.63,396.36,278.88,396.93,278.55Z"/><path class="cls-8" d="M423.09,251.67,320.42,311a33.89,33.89,0,0,1-16.87,4l0-2.6a29.8,29.8,0,0,0,11.31-2.11,39.75,39.75,0,0,0,5.24-2.84c3.35-2-7.62,4.47,38.54-22.2,7.51-4.34,15-8.77,22.5-13.1s15.07-8.59,22.56-13c3.13-1.84,6.24-3.69,9.39-5.46,6.21-3.5,9.15-4.87,11.07-7.63,2.51-3.62,1.93-8.39-4.28-12.07-.23-.15-216-124.82-217-125.3a29.17,29.17,0,0,0-12.47-2.61l0-2.59a43.25,43.25,0,0,1,8.74.93,27.66,27.66,0,0,1,8.13,3.1L423.09,232.19a16.15,16.15,0,0,1,4.78,4,10.16,10.16,0,0,1,2.19,6,7.21,7.21,0,0,1-.18,1.66C429.13,247.11,426,250,423.09,251.67Z"/><path class="cls-8" d="M206.89,111l-4-2.29a29.17,29.17,0,0,0-12.47-2.61,31.77,31.77,0,0,0-6.63.69c-4.45.94-6.6,2.29-9.9,4.27-3.11,1.87,6.17-3.61-29.71,17.09l-8.83,5.1c-7.51,4.35-15,8.77-22.5,13.1q-3.08,1.78-6.18,3.55c-5.46,3.13-10.94,6.24-16.38,9.43-3.12,1.83-6.24,3.68-9.38,5.45a87.54,87.54,0,0,0-8.84,5.28c-3.9,3.14-4.94,7.5-1.73,11.35,1.78,2.14,3.19,2.71,9.4,6.34L171,240.48c56.91,32.88,119.49,69,120.1,69.32a29,29,0,0,0,12.45,2.62,29.78,29.78,0,0,0,11.3-2.12,37.46,37.46,0,0,0,5.24-2.84c3.35-2-7.62,4.47,38.54-22.19,7.51-4.35,15-8.77,22.51-13.11s15.06-8.59,22.56-13c3.12-1.83,6.24-3.69,9.38-5.46,6.22-3.5,9.15-4.87,11.07-7.63,2.42-3.48,2-8-3.58-11.63a8.18,8.18,0,0,0-.7-.43C419.68,233.9,236.42,128,206.89,111Z"/><path class="cls-10" d="M420.59,234.47c5.55,3.61,6,8.15,3.58,11.63-1.92,2.76-4.85,4.13-11.07,7.63-3.14,1.77-6.26,3.63-9.38,5.46-7.5,4.38-15,8.64-22.56,13s-15,8.76-22.51,13.11c-46.16,26.66-35.19,20.18-38.54,22.19a37.46,37.46,0,0,1-5.24,2.84c-7.22,3-17.09,2.76-23.75-.5-1-.49-183.73-106.07-211.36-122-6.21-3.63-7.62-4.2-9.4-6.34-3.21-3.85-2.17-8.21,1.73-11.35,2.13-1.7,4-2.36,18.22-10.73,4.24-2.49,8.5-4.93,12.77-7.37a8,8,0,0,1,7.2,0c4.69,2.71,12.29,2.71,17,0l20.6-11.9c4.69-2.71,4.69-7.1,0-9.8-2.11-1.23-2-3.09,0-4.21,31.61-18.23,23.08-13.19,26.08-15,3.3-2,5.45-3.33,9.9-4.27a31,31,0,0,1,19.1,1.92C203.05,108.79,197.19,105.42,420.59,234.47Z"/><path class="cls-11" d="M139.77,136.28a3.69,3.69,0,0,1,3.36,0l1.25.72-22.85,13.2a3.7,3.7,0,0,1-3.38,0l-1.23-.72Z"/><path class="cls-12" d="M143.13,134l1.58.91c.95.55.92,1.41,0,1.95l-.33.19-1.25-.72a3.69,3.69,0,0,0-3.36,0l-22.85,13.2-.33-.19a1.21,1.21,0,0,1-.71-.95v0a1.17,1.17,0,0,1,.71-1L139.77,134A3.72,3.72,0,0,1,143.13,134Z"/><path class="cls-13" d="M100.84,159.74a7.58,7.58,0,0,0,6.88,0c1.9-1.1,1.9-2.88,0-4a7.58,7.58,0,0,0-6.88,0C98.94,156.86,98.94,158.64,100.84,159.74Z"/><path class="cls-13" d="M166.66,121.72a7.65,7.65,0,0,0,6.88,0c1.9-1.1,1.9-2.88,0-4a7.58,7.58,0,0,0-6.88,0C164.76,118.84,164.76,120.62,166.66,121.72Z"/><ellipse class="cls-13" cx="92.24" cy="164.71" rx="2.43" ry="1.41"/><path class="cls-13" d="M152,129.67a3.79,3.79,0,0,0,3.44,0,1.05,1.05,0,0,0,0-2,3.79,3.79,0,0,0-3.44,0A1.05,1.05,0,0,0,152,129.67Z"/><path class="cls-13" d="M157.62,126.44a3.81,3.81,0,0,0,3.45,0,1.05,1.05,0,0,0,0-2,3.81,3.81,0,0,0-3.45,0A1.05,1.05,0,0,0,157.62,126.44Z"/><g class="cls-14"><path class="cls-15" d="M163.14,161.17l-46.79,27a6.06,6.06,0,0,1-5.5,0h0c-1.52-.88-1.52-2.3,0-3.18l46.79-27a6.06,6.06,0,0,1,5.5,0h0C164.66,158.87,164.66,160.29,163.14,161.17Z"/><path class="cls-15" d="M160,175.69l-32.65,18.87a6.08,6.08,0,0,1-5.51,0h0c-1.52-.88-1.52-2.3,0-3.18l32.66-18.87a6.06,6.06,0,0,1,5.5,0h0C161.53,173.39,161.53,174.81,160,175.69Z"/><path class="cls-15" d="M171,182.05l-32.65,18.86a6.08,6.08,0,0,1-5.51,0h0c-1.52-.87-1.52-2.3,0-3.18l32.66-18.86a6.06,6.06,0,0,1,5.5,0h0C172.53,179.75,172.53,181.17,171,182.05Z"/></g><g class="cls-14"><path class="cls-16" d="M254.43,147.83l-46.79,27a6.08,6.08,0,0,1-5.51,0h0c-1.52-.88-1.52-2.3,0-3.18l46.79-27a6.08,6.08,0,0,1,5.51,0h0C256,145.53,256,147,254.43,147.83Z"/><path class="cls-16" d="M251.29,162.35l-32.65,18.87a6.08,6.08,0,0,1-5.51,0h0c-1.52-.88-1.52-2.3,0-3.18l32.66-18.87a6.12,6.12,0,0,1,5.5,0h0C252.81,160.05,252.81,161.48,251.29,162.35Z"/><path class="cls-16" d="M262.3,168.71l-32.66,18.86a6.06,6.06,0,0,1-5.5,0h0c-1.52-.87-1.52-2.3,0-3.18l32.65-18.86a6.08,6.08,0,0,1,5.51,0h0C263.82,166.41,263.82,167.83,262.3,168.71Z"/></g><g class="cls-14"><path class="cls-15" d="M235.05,206.56l-46.79,27a6.06,6.06,0,0,1-5.5,0h0c-1.52-.88-1.52-2.3,0-3.18l46.79-27a6.06,6.06,0,0,1,5.5,0h0C236.57,204.26,236.57,205.68,235.05,206.56Z"/><path class="cls-15" d="M231.92,221.08,199.26,240a6.06,6.06,0,0,1-5.5,0h0c-1.52-.88-1.52-2.3,0-3.18l32.66-18.87a6.12,6.12,0,0,1,5.5,0h0C233.44,218.78,233.44,220.21,231.92,221.08Z"/><path class="cls-15" d="M242.92,227.44,210.27,246.3a6.08,6.08,0,0,1-5.51,0h0c-1.52-.87-1.52-2.3,0-3.18l32.66-18.86a6.06,6.06,0,0,1,5.5,0h0C244.44,225.14,244.44,226.56,242.92,227.44Z"/></g><path class="cls-17" d="M168.57,19V48.24c0,10.24-7.18,22.7-16,27.82l-3.74,2.16-8.91,21.46L131,88.52l-3.75,2.17c-.36.2-.72.4-1.08.57-4,2-7.61,2.09-10.28.55l-.2-.13c-2.79-1.73-4.5-5.27-4.5-10.27V52.16c0-10.25,7.19-22.7,16.06-27.82L152.52,9.72c4.35-2.51,8.29-2.8,11.18-1.23l.17.1C166.78,10.27,168.57,13.87,168.57,19Z"/><path class="cls-18" d="M102.84,84.28c-2.91-1.67-4.71-5.28-4.71-10.39V44.64c0-10.25,7.19-22.7,16.06-27.82L139.5,2.19c4.44-2.56,8.45-2.8,11.35-1.12L163.7,8.49c-2.89-1.57-6.83-1.28-11.18,1.23L127.21,24.34c-8.87,5.12-16.06,17.57-16.06,27.82V81.41c0,5,1.71,8.54,4.5,10.27Z"/><path class="cls-18" d="M131,88.52l8.91,11.16-13-7.52-.71-.9c.36-.17.72-.37,1.08-.57Z"/><path class="cls-19" d="M149,38.38c-3.39-3-10-.63-14.82,5.4s-5.92,13.37-2.53,16.41c2.94,2.63,8.31,1.17,12.8-3.18l6.15,5.5c.7.63,2.11.09,3.14-1.21s1.31-2.87.6-3.5l-6.14-5.5C151.48,46.87,151.94,41,149,38.38Zm-4,15.08c-3.64,4.57-8.67,6.4-11.25,4.1S132,49.67,135.66,45.1s8.67-6.4,11.25-4.09S148.63,48.89,145,53.46Z"/><ellipse class="cls-4" cx="55.78" cy="112.36" rx="8.62" ry="4.98"/><g class="cls-14"><path class="cls-15" d="M330.86,193.55l-46.79,27a6.14,6.14,0,0,1-5.51,0h0c-1.52-.88-1.52-2.31,0-3.18l46.79-27a6.08,6.08,0,0,1,5.51,0h0C332.38,191.25,332.38,192.68,330.86,193.55Z"/><path class="cls-15" d="M327.72,208.08l-32.65,18.86a6.06,6.06,0,0,1-5.5,0h0c-1.52-.88-1.52-2.3,0-3.18l32.65-18.86a6.06,6.06,0,0,1,5.5,0h0C329.24,205.78,329.24,207.2,327.72,208.08Z"/><path class="cls-15" d="M338.73,214.43,306.07,233.3a6.06,6.06,0,0,1-5.5,0h0c-1.52-.88-1.52-2.3,0-3.18l32.65-18.87a6.14,6.14,0,0,1,5.51,0h0C340.25,212.13,340.25,213.56,338.73,214.43Z"/></g><g class="cls-14"><path class="cls-15" d="M320.82,253.66,274,280.7a6.14,6.14,0,0,1-5.51,0h0c-1.52-.88-1.52-2.31,0-3.18l46.8-27a6.06,6.06,0,0,1,5.5,0h0C322.34,251.36,322.34,252.79,320.82,253.66Z"/><path class="cls-15" d="M317.69,268.19,285,287.05a6.06,6.06,0,0,1-5.5,0h0c-1.52-.88-1.52-2.3,0-3.18L312.18,265a6.08,6.08,0,0,1,5.51,0h0C319.21,265.89,319.21,267.31,317.69,268.19Z"/><path class="cls-15" d="M328.69,274.54,296,293.41a6.06,6.06,0,0,1-5.5,0h0c-1.52-.88-1.52-2.3,0-3.18l32.65-18.87a6.14,6.14,0,0,1,5.51,0h0C330.21,272.24,330.21,273.67,328.69,274.54Z"/></g><path class="cls-20" d="M64.64,138.21,65.88,140a.43.43,0,0,0,.53.08l2.78-1.21c.58-.25.81.33.39,1l-2,3.13a1.06,1.06,0,0,0-.2.74l.47,2.5a1.33,1.33,0,0,1-1,1.32l-2.48.13a1,1,0,0,0-.66.38L61.2,150.8c-.52.57-1.12.48-1-.15l.47-3.05c0-.25,0-.43-.2-.5l-2-.8c-.42-.17-.19-1,.39-1.42l2.78-2a1.57,1.57,0,0,0,.53-.69l1.24-3.24C63.64,138.27,64.38,137.84,64.64,138.21Z"/><path class="cls-20" d="M78.75,130.06l1.25,1.8a.39.39,0,0,0,.52.08l2.79-1.2c.57-.25.8.32.38,1l-2,3.13a1.09,1.09,0,0,0-.2.73l.47,2.5a1.34,1.34,0,0,1-1,1.33l-2.49.13a1,1,0,0,0-.65.37l-2.49,2.75c-.51.57-1.12.48-1-.15l.48-3.05c0-.25,0-.44-.2-.5l-2-.8c-.41-.17-.18-1,.39-1.42l2.78-2a1.54,1.54,0,0,0,.53-.68l1.25-3.25C77.75,130.12,78.49,129.69,78.75,130.06Z"/><path class="cls-20" d="M92.87,121.91l1.24,1.8c.1.15.3.18.53.08l2.78-1.2c.57-.25.8.32.39,1l-2,3.12a1.13,1.13,0,0,0-.2.74l.48,2.5a1.32,1.32,0,0,1-1,1.32l-2.49.13a1,1,0,0,0-.65.38l-2.49,2.75c-.51.56-1.11.47-1-.15l.47-3c0-.25,0-.44-.2-.51l-2-.8c-.42-.16-.19-1,.39-1.42l2.78-2a1.5,1.5,0,0,0,.52-.69l1.25-3.24C91.87,122,92.61,121.53,92.87,121.91Z"/><path class="cls-3" d="M107,113.75l1.24,1.81a.43.43,0,0,0,.53.08l2.78-1.21c.58-.25.81.33.39,1l-2,3.13a1.06,1.06,0,0,0-.2.74l.47,2.5a1.32,1.32,0,0,1-1,1.32l-2.49.13a1,1,0,0,0-.65.38l-2.49,2.74c-.52.57-1.12.48-1-.15l.48-3c0-.25,0-.43-.21-.5l-2-.8c-.42-.17-.19-1,.39-1.42l2.78-2a1.57,1.57,0,0,0,.53-.69l1.24-3.24C106,113.81,106.72,113.38,107,113.75Z"/><path class="cls-3" d="M121.09,105.6l1.25,1.8c.1.15.3.18.53.08l2.78-1.2c.57-.25.8.32.39,1l-2,3.13a1.09,1.09,0,0,0-.2.73l.48,2.5a1.35,1.35,0,0,1-1,1.33l-2.49.13a1,1,0,0,0-.65.37l-2.49,2.75c-.51.57-1.11.48-1-.15l.48-3.05c0-.25,0-.44-.2-.5l-2-.8c-.41-.17-.18-1,.39-1.42l2.79-2a1.59,1.59,0,0,0,.52-.68l1.25-3.24C120.09,105.66,120.84,105.23,121.09,105.6Z"/><path class="cls-20" d="M261.53,17.76V39.24c0,7.51,5.28,16.66,11.79,20.42l2.75,1.59L282.61,77l6.54-8.19c.92.52,1.84,1.06,2.75,1.59l.79.42c2.94,1.48,5.59,1.53,7.55.4l.15-.09c2-1.27,3.3-3.88,3.3-7.54V42.12c0-7.53-5.28-16.67-11.79-20.43L273.32,11c-3.19-1.84-6.09-2-8.21-.89l-.13.07C262.85,11.36,261.53,14,261.53,17.76Z"/><path class="cls-21" d="M309.8,65.7c2.13-1.23,3.45-3.88,3.45-7.64V36.59c0-7.52-5.28-16.66-11.79-20.42L282.88,5.43c-3.26-1.88-6.2-2.06-8.33-.82l-9.44,5.45c2.12-1.16,5-1,8.21.89L291.9,21.69c6.51,3.76,11.79,12.9,11.79,20.43V63.59c0,3.66-1.26,6.27-3.3,7.54Z"/><path class="cls-21" d="M289.15,68.81,282.61,77l9.56-5.52.52-.66-.79-.42C291,69.87,290.07,69.33,289.15,68.81Z"/><path class="cls-22" d="M281.06,32.23a.64.64,0,0,0-.55-.09l-.55.23-3-1.72c-1.15-.67-2.14-.38-2.3.67L274.4,33,276,34l.24-1.53c.05-.35.38-.44.76-.22l3.31,1.91a.64.64,0,0,0,.55.09l.55-.23,2.46,1.42.55.87a1.58,1.58,0,0,0,.55.54l3.3,1.91a1.64,1.64,0,0,1,.77,1.11l.24,1.8,1.57.91-.27-2a5,5,0,0,0-2.31-3.33l-3-1.73-.55-.86a1.7,1.7,0,0,0-.55-.55ZM273.3,34c-.43-.25-.77-.1-.77.33v1.55a1.58,1.58,0,0,0,.77,1.22l.13.08,1.21,7.94a3.32,3.32,0,0,0,1.53,2.18l12.88,7.44c.76.44,1.41.26,1.53-.41l1.21-6.55.13.08c.42.24.77.1.77-.33V45.94a1.64,1.64,0,0,0-.77-1.23Zm13.19,11.5a1.6,1.6,0,0,1,.77,1.22v3.88c0,.43-.35.58-.77.33a1.62,1.62,0,0,1-.78-1.22V45.79c0-.43.35-.58.78-.33Zm-3.88-2.24a1.58,1.58,0,0,1,.77,1.22v3.88c0,.43-.34.58-.77.33a1.62,1.62,0,0,1-.78-1.22V43.54c0-.42.35-.57.78-.32ZM278.73,41a1.59,1.59,0,0,1,.78,1.22v3.88c0,.43-.35.58-.78.33a1.62,1.62,0,0,1-.78-1.23V41.3c0-.42.35-.57.78-.32Z"/><path class="cls-23" d="M358.44,231.9l-61.33,35.41c-6.06,3.5-15.89,3.5-21.95,0l-112.63-65c-6.06-3.5-6.06-9.17,0-12.67l61.33-35.41c6.06-3.5,15.88-3.5,21.94,0l112.64,65C364.5,222.73,364.5,228.4,358.44,231.9Z"/><path class="cls-8" d="M210.92,227.54a3.19,3.19,0,0,0,.79,1.88c.88.85,2.4.37,3.46-.25,0,0,0,0,5.22-3l-10.46-6C210.94,227.68,210.88,227.51,210.92,227.54ZM225.86,223l3.46,2-2,1.17,12.26,7.08v4l-15.72-9.08q-3.47,2-6.94,4h0c-4.53,2.65-8.8.61-9.41-4.17,0-.12-1.5-11.19-2.25-16.92l3.77,2.18c.11.84.23,1.69.34,2.53,0,0-.15-.09,14.49,8.37Z"/><path class="cls-8" d="M254.35,119.84c38.53,22.26,59.91,34.56,71.78,41.43V154l-7.07-4.09c.12.26.24.5.35.75a.39.39,0,0,1-.11.46,2.7,2.7,0,0,1-1.42.78,1.09,1.09,0,0,1-1.2-.57l-1.81-3.84-54.18-31.3Z"/><path class="cls-24" d="M244.56,216.19l27.74,16-7.59,4.39a11.24,11.24,0,0,0,5.9-1.21s10.55-6.11,10.58-6.11l.32-2.38-5.75,3.32-27.74-16,2-1.16-3.45-2-2,1.15-1.49-.85c0,1.9,0,3.81,0,5.72C243.56,216.76,244.06,216.48,244.56,216.19Z"/><path class="cls-24" d="M292.92,220.3l-7.63,4.41c-.1.8-.21,1.59-.32,2.39l16.94-9.78.32-2.39-5.85,3.38-9.49-5.48c-.16,1.23-.33,2.47-.5,3.7Z"/><path class="cls-24" d="M313.64,205.91,317.12,192,313,194.37c-2.71,10.84-2.68,10.68-2.68,10.71a16.3,16.3,0,0,1-4.19,7c-.13,1-.27,2-.4,3l4.71-2.72a18.72,18.72,0,0,0,3.24-6.5Z"/><path class="cls-25" d="M321.83,158.82c-.67,2.68-5.43,21.76-5.71,22.87a.93.93,0,0,0,.62,1.15,4.06,4.06,0,0,0,2.51-.35c.31-.15.29-.22.33-.39q2.69-10.74,5.36-21.48Z"/><path class="cls-25" d="M281.11,161.54a1,1,0,0,0,.18.76c.55.72,1.94.35,2.77,0,.13-.05.46-.19.47-.32h0a.62.62,0,0,1,0-.13q1.33-11.52,2.66-23l-3.27-1.89c-.35,3-2.37,20.58-2.83,24.61Z"/><path class="cls-25" d="M205.15,114.15c0-.38-.09-.75-.13-1.12l-3.26,1.88c0,.38.09.76.13,1.15C202.61,115.6,202.73,115.56,205.15,114.15Z"/><path class="cls-24" d="M197.1,199.07l3.46,2c1-.59,2.07-1.19,3.1-1.79-.16-1.23-.32-2.47-.49-3.71Z"/><path class="cls-24" d="M281.63,187.12s-.1,1,2.13-18.4l-3.26-1.88q-1.15,9.94-2.3,19.88c-.4,3.63-3.07,7.84-6,9.49h0l-7,4.08L233.8,182.16l1,4.55,27,15.57-8.82,5.09,3.46,2,8.82-5.09c3,1.73,6,3.45,9,5.19l3.46-2-9-5.19,5.32-3.07h0C277.87,197,281.12,191.76,281.63,187.12Z"/><path class="cls-24" d="M233,178.34c.25,1.19.5,2.37.76,3.56,5.19-3,5.07-3,5.11-3,3.94-2.25,7.18-7.48,7.69-12.09,1.26-11,2.12-18.36,2.12-18.4l-3.26-1.88c-1.27,11-2.3,19.85-2.3,19.88-.39,3.6-3,7.82-6,9.49,0,0,.18-.1-4.14,2.4Z"/><path class="cls-25" d="M246,141.38a1,1,0,0,0,.19.65c.56.72,1.94.36,2.77,0,.1,0,.48-.19.48-.32s0-.08,0-.13l2.34-20.27-3.73,2.15S246,141.37,246,141.38Z"/><path class="cls-8" d="M174.84,199.85l10.46,6c-5.3,3.06-5.19,3-5.22,3-1.06.62-2.58,1.1-3.46.25a2.8,2.8,0,0,1-.68-1.31l.35,2.42,4.05,2.34a9.75,9.75,0,0,0,1.47-.7l6.94-4L199,213.81l7.14,4.12c-.19-1.44-.39-2.88-.58-4.33l-2.63-1.52-10.73-6.19,2-1.17-1.73-1c-.57-.34-1.15-.67-1.73-1l-2,1.16c-14.62-8.45-13.66-7.83-14.51-8.54Z"/><path class="cls-25" d="M170.15,190.81l-3.84-2.22a18,18,0,0,0,4.67,8.46Q170.56,193.93,170.15,190.81Z"/><path class="cls-24" d="M163.91,168.71q.71,6,1.4,12l3.73,2.15c-.43-3.62,0-.58-2.07-15.91Z"/><path class="cls-25" d="M160.43,138.78l1.89,16.27,3.73,2.15q-1.19-10.14-2.36-20.3Z"/><path class="cls-25" d="M181.14,126.82l1.59,13.64c1-1.53,2-3.05,3-4.57q-.65-5.47-1.28-11Z"/><path class="cls-25" d="M187.28,149.62c-.05-.47-1.08-9.29-1.1-9.4q-1.47,2.28-3,4.56s.61,5.19.61,5.23.37.28.51.33a3.6,3.6,0,0,0,2.32.29A1,1,0,0,0,187.28,149.62Z"/><path class="cls-24" d="M191.73,179.36l-4.7-2.72a17.1,17.1,0,0,0,7.43,10.6h0L202.7,192c-.2-1.44-.38-2.88-.58-4.32l-5.94-3.43A12.67,12.67,0,0,1,191.73,179.36Z"/><path class="cls-8" d="M209.47,191.92l-3.57-2.06c.33,2.51.67,5,1,7.54l2.57-1.48q15.08,8.7,30.14,17.41c0-1.33,0-2.66,0-4l-26.69-15.42,2-1.16-3.45-2Z"/><path class="cls-24" d="M187.89,154.86l-3.26,1.88q.69,6,1.4,12l3.73,2.16Q188.82,162.88,187.89,154.86Z"/><path class="cls-25" d="M205.5,117.15a32.51,32.51,0,0,0-3.25,2q1.11,9.4,2.19,18.8a.68.68,0,0,1,0,.14,3.69,3.69,0,0,0,2.83.61,1,1,0,0,0,.6-1C207.79,136.76,207,130.06,205.5,117.15Z"/><path class="cls-24" d="M215.08,175.34,226.63,182l-8.82,5.1,3.46,2,8.82-5.09,1.46.84c-.35-1.68-.72-3.38-1.07-5.06l-.39.23-13.29-7.68c-2.94-1.67-5.58-5.89-6-9.48,0-.09-2.31-19.88-2.32-19.91l-3.26,1.88c2.31,19.84,2.15,18.35,2.15,18.43.52,4.71,3.82,9.87,7.68,12.07Z"/><path class="cls-8" d="M229.52,105.49,247.76,116l4.09-2.37c0-.28,0-.31.75-2.15q-8.39-4.83-16.75-9.68Z"/><path class="cls-8" d="M163.81,129.52l4.85,4.51,3.72-2.16,45.19-26.1a2.54,2.54,0,0,1,1.19-1.69l10-5.75a18.46,18.46,0,0,0-13.42,1.44S192,113.25,172.43,124.54Z"/><path class="cls-20" d="M227.5,130a18.35,18.35,0,0,0-12.17,1.73s-7.59,4.39-7.62,4.41l.18,1.61a1,1,0,0,1-.6,1,3.69,3.69,0,0,1-2.83-.61.68.68,0,0,0,0-.14l-17.35,10c.06.54.13,1.08.19,1.62a1,1,0,0,1-.61,1,3.6,3.6,0,0,1-2.32-.29c-.14-.05-.49-.2-.51-.33s0-.08,0-.13l-6.21,3.59-4.9,7.58,2.22,1.29c44.39-25.65,43.53-25.14,43.57-25.18A10.62,10.62,0,0,1,223,136h0a10.57,10.57,0,0,1,4.42-6l0,0Z"/><path class="cls-20" d="M319.25,182.49a4.06,4.06,0,0,1-2.51.35.94.94,0,0,1-.65-1s.32-1.27.38-1.52l-31.92-18.44a.62.62,0,0,0,0,.13h0c0,.13-.34.27-.47.32-.83.34-2.22.71-2.77,0a1,1,0,0,1-.18-.76h0c.06-.52.12-1,.17-1.56l-31.82-18.39c0,.2,0,.23-.49.45-.83.35-2.21.71-2.77,0a1,1,0,0,1-.18-.76v0l.18-1.54c-.12,0-13.51-7.93-15.12-8.65l-2,1.13a7.56,7.56,0,0,0-3.22,3.91,10.17,10.17,0,0,1,3.22,1.06c.05.06,38.49,22.24,85.09,49.16l6.33-3.66-1-.56C319.53,182.27,319.56,182.34,319.25,182.49Z"/><polygon class="cls-21" points="174.14 127.31 162.97 201.54 190.91 217.68 190.91 136.99 174.14 127.31"/><path class="cls-20" d="M232.81,93.42l16.76,9.69L190.91,137l-16.77-9.68ZM232,111.66l14.81-8.56-14-8.06L177,127.31l14,8.06Z"/><path class="cls-20" d="M177,127.31l14,8.06L232,111.66c0-.85.81-15.78.85-16.62Z"/><path class="cls-26" d="M249.57,103.11,258,179l-67,38.73V137Zm-43.44,70.65a4.2,4.2,0,0,0,2.45-1.35,7.35,7.35,0,0,0,1.27-2l.39,5.5,1.59-.91q-.56-7.83-1.13-15.65l-1.45.84c0,.49.08,1,.11,1.47a1.94,1.94,0,0,0-1.45-.63,4.93,4.93,0,0,0-2.84,1.65,9.4,9.4,0,0,0-2.13,6.53C203,171.56,203.82,174,206.13,173.76Zm7.76-6.66c1.8,2.27,6.13-.21,7.45-4.3a10.05,10.05,0,0,0,.42-3.91c-.1-1.43-.45-3.18-1.73-3.8-1.51-.73-3.52.47-4.67,1.66a9,9,0,0,0-2.29,4.62,11.25,11.25,0,0,0,.12,4.09A4,4,0,0,0,213.89,167.1ZM224,163.48l1.59-.91c-.55-7.61-.57-7.48-.52-8.13a3.73,3.73,0,0,1,.68-1.95,3.62,3.62,0,0,1,1.27-1.08,1.71,1.71,0,0,1,1.87.07,4,4,0,0,1,.72,2.41q.21,3,.44,6.1l1.59-.92q-.57-7.8-1.13-15.61l-1.59.92c.14,1.87.27,3.73.4,5.6a2.31,2.31,0,0,0-2.42-.18,5.82,5.82,0,0,0-1.83,1.29,5.65,5.65,0,0,0-1.49,2.69,9.79,9.79,0,0,0-.09,2.65Zm11-17.88a5.17,5.17,0,0,1,1.73-3.95,7.64,7.64,0,0,1,2.3-1.39,1.54,1.54,0,0,1,1.57.11,1.39,1.39,0,0,1,.48,1,2.91,2.91,0,0,1-.4,1.68,5.13,5.13,0,0,1-.7.91c-2.26,2.45-6,4.47-6.5,8.32a4.81,4.81,0,0,0,.2,2.26,2.38,2.38,0,0,0,1.62,1.54,4.62,4.62,0,0,0,3-.61,12.78,12.78,0,0,0,2-1.36,9.24,9.24,0,0,0,2.38-2.92,8.6,8.6,0,0,0,1-4.34l-1.63.76a6.08,6.08,0,0,1-1,3.44,7.69,7.69,0,0,1-2.63,2.42,3.93,3.93,0,0,1-2.06.61,1.37,1.37,0,0,1-.49-.13,1.28,1.28,0,0,1-.67-.82,3,3,0,0,1,.21-2.07,5.61,5.61,0,0,1,1.05-1.51c1.18-1.26,3.57-3.08,4.69-4.53a7.15,7.15,0,0,0,1.52-3.19,3.73,3.73,0,0,0-.7-3.19c-1-1.09-2.88-.45-4.18.31a8.4,8.4,0,0,0-4.45,7.43Z"/><path class="cls-26" d="M207.91,161.06a1.94,1.94,0,0,1,1.45.63c0-.49-.07-1-.11-1.47l1.45-.84q.57,7.83,1.13,15.65l-1.59.91-.39-5.5a7.35,7.35,0,0,1-1.27,2,4.2,4.2,0,0,1-2.45,1.35c-2.31.28-3.11-2.2-3.19-4.52a9.4,9.4,0,0,1,2.13-6.53A4.93,4.93,0,0,1,207.91,161.06Zm-2.54,10.35a1.49,1.49,0,0,0,1.07.54,2.1,2.1,0,0,0,1.11-.34,5,5,0,0,0,2-3.18,9.36,9.36,0,0,0,.13-2.5c-.09-1.17-.34-2.62-1.4-3.11a1.47,1.47,0,0,0-1.28,0,4.64,4.64,0,0,0-2.18,3,8.73,8.73,0,0,0-.23,2.93A5,5,0,0,0,205.37,171.41Z"/><path class="cls-26" d="M204.82,165.8a8.73,8.73,0,0,0-.23,2.93,5,5,0,0,0,.78,2.68,1.49,1.49,0,0,0,1.07.54,2.1,2.1,0,0,0,1.11-.34,5,5,0,0,0,2-3.18,9.36,9.36,0,0,0,.13-2.5c-.09-1.17-.34-2.62-1.4-3.11a1.47,1.47,0,0,0-1.28,0A4.64,4.64,0,0,0,204.82,165.8Z"/><path class="cls-26" d="M215.36,156.75c1.15-1.19,3.16-2.39,4.67-1.66,1.28.62,1.63,2.37,1.73,3.8a10.05,10.05,0,0,1-.42,3.91c-1.32,4.09-5.65,6.57-7.45,4.3a4,4,0,0,1-.7-1.64,11.25,11.25,0,0,1-.12-4.09A9,9,0,0,1,215.36,156.75ZM216,166a1.84,1.84,0,0,0,1.61-.2,4.26,4.26,0,0,0,1.55-1.46,7,7,0,0,0,1-4.52,4.4,4.4,0,0,0-.84-2.64,1.72,1.72,0,0,0-2.25-.08,4.48,4.48,0,0,0-1.52,1.54,6.58,6.58,0,0,0-.94,3.37,8.31,8.31,0,0,0,.4,2.87A1.84,1.84,0,0,0,216,166Z"/><path class="cls-26" d="M214.58,162a8.31,8.31,0,0,0,.4,2.87,1.67,1.67,0,0,0,2.6.92,4.26,4.26,0,0,0,1.55-1.46,7,7,0,0,0,1-4.52,4.4,4.4,0,0,0-.84-2.64,1.72,1.72,0,0,0-2.25-.08,4.48,4.48,0,0,0-1.52,1.54A6.58,6.58,0,0,0,214.58,162Z"/><path class="cls-26" d="M223.58,153.78a9.79,9.79,0,0,0-.09,2.65l.51,7,1.59-.91c-.55-7.61-.57-7.48-.52-8.13a3.73,3.73,0,0,1,.68-1.95,3.62,3.62,0,0,1,1.27-1.08,1.71,1.71,0,0,1,1.87.07,4,4,0,0,1,.72,2.41q.21,3,.44,6.1l1.59-.92q-.57-7.8-1.13-15.61l-1.59.92c.14,1.87.27,3.73.4,5.6a2.31,2.31,0,0,0-2.42-.18,5.82,5.82,0,0,0-1.83,1.29A5.65,5.65,0,0,0,223.58,153.78Z"/><path class="cls-20" d="M232.81,95c0,.84-.8,15.77-.85,16.62l14.81-8.56Z"/><path class="cls-26" d="M237.8,139a8.4,8.4,0,0,0-4.45,7.43l1.66-.8a5.17,5.17,0,0,1,1.73-3.95,7.64,7.64,0,0,1,2.3-1.39,1.54,1.54,0,0,1,1.57.11,1.39,1.39,0,0,1,.48,1,2.91,2.91,0,0,1-.4,1.68,5.13,5.13,0,0,1-.7.91c-2.26,2.45-6,4.47-6.5,8.32a4.81,4.81,0,0,0,.2,2.26,2.38,2.38,0,0,0,1.62,1.54,4.62,4.62,0,0,0,3-.61,12.78,12.78,0,0,0,2-1.36,9.24,9.24,0,0,0,2.38-2.92,8.6,8.6,0,0,0,1-4.34l-1.63.76a6.08,6.08,0,0,1-1,3.44,7.69,7.69,0,0,1-2.63,2.42,3.93,3.93,0,0,1-2.06.61,1.37,1.37,0,0,1-.49-.13,1.28,1.28,0,0,1-.67-.82,3,3,0,0,1,.21-2.07,5.61,5.61,0,0,1,1.05-1.51c1.18-1.26,3.57-3.08,4.69-4.53a7.15,7.15,0,0,0,1.52-3.19,3.73,3.73,0,0,0-.7-3.19C240.94,137.57,239.1,138.21,237.8,139Z"/><path class="cls-24" d="M168.6,158.68l1.71,1,2-3.15Z"/><path class="cls-21" d="M219,109.39a2.69,2.69,0,0,0,3.11.41,1.27,1.27,0,0,0,.46-.49c.77-1.44-.53-4.08-1.93-5a1.88,1.88,0,0,0-1.83-.27,2.71,2.71,0,0,0-1.2,2.9l.8-.46a.77.77,0,0,1,.73.13c.8.54,1.24,1.89.66,2.27Z"/><path class="cls-8" d="M201.89,116.06a32.64,32.64,0,0,0-9,8.64s-23.11,35.76-23.13,35.79a.63.63,0,0,0,.11.85h0l0,0h0a2.64,2.64,0,0,0,2.61-.08c2.5-3.75-7.23,11.19,22.74-35.19a29.59,29.59,0,0,1,7-7c2-1.44,1.88-1.14,17.47-10.23l.1-.08c.43-.42.08-1.39-.37-1.9-.26-.3-.74-.61-1.09-.44C218.33,106.54,202.52,115.66,201.89,116.06Z"/><path class="cls-24" d="M232.19,219.34l3.46,2,3.95-2.28c0-1.33,0-2.66,0-4Z"/><path class="cls-21" d="M245.38,96.32c2.25-1.3,1.22-5-1.12-5.86a2.5,2.5,0,0,0-2.24.19l-23.26,13.43a1.88,1.88,0,0,1,1.83.27c1.41.88,2.7,3.53,1.93,5a1.27,1.27,0,0,1-.46.49C235.89,101.82,231.87,104.12,245.38,96.32Z"/><path class="cls-21" d="M243.6,118.43a2.7,2.7,0,0,0-1.2,2.91h0l.77-.44h0c.6-.37,1.65.74,1.67,1.72a.72.72,0,0,1-.3.66l-.77.45a2.7,2.7,0,0,0,3.12.42,2,2,0,0,0,.66-1.9,5.29,5.29,0,0,0-2-3.45A2,2,0,0,0,243.6,118.43Z"/><path class="cls-20" d="M237.8,148.94l-19.87,11.47,19,11,19.87-11.47Z"/><path class="cls-21" d="M225.15,185.44v41.71L240.51,236h0V194.3l-3.62-2.09Z"/><path class="cls-21" d="M217.93,181.26l7.22,4.18,11.74,6.77V171.36h0l-19-11Z"/><path class="cls-17" d="M236.89,192.21l3.62,2.09,9,5.21V178.66l-12.65-7.3Z"/><path class="cls-17" d="M236.89,171.36h0l12.65,7.3,19.86-11.47-12.64-7.3Z"/><path class="cls-17" d="M237.8,148.94l19,10.95,12.64-7.3-19-11Z"/><path class="cls-27" d="M240.51,236h0l12.64,7.3V201.6l-3.61-2.09-9-5.21Z"/><path class="cls-21" d="M249.54,199.51l3.61,2.09,17.16,9.9V190.65l-20.77-12Z"/><path class="cls-20" d="M249.54,178.66l20.77,12,19.86-11.47q-10.38-6-20.77-12Z"/><path class="cls-20" d="M250.44,141.64l19,11,19.87-11.47-19-11Z"/><path class="cls-21" d="M253.15,243.31l17.16,9.9V211.5l-17.16-9.9Z"/><path class="cls-17" d="M269.4,152.59l-12.64,7.3,12.64,7.3,12.65-7.3Z"/><path class="cls-17" d="M269.4,167.19q10.39,6,20.77,12l12.65-7.3-20.77-12Z"/><path class="cls-17" d="M289.27,141.12,269.4,152.59l12.65,7.3,19.86-11.47Z"/><path class="cls-26" d="M270.31,211.5v41.71l16.25-9.38h0V202.12Z"/><path class="cls-26" d="M270.31,211.46v0l16.25-9.38,3.61-2.09V179.18l-19.86,11.47Z"/><path class="cls-20" d="M282.05,159.89l20.77,12,19.86-11.47-20.77-12Z"/><path class="cls-27" d="M286.56,243.83h0l12.64-7.3V194.82l-9,5.21-3.61,2.09Z"/><path class="cls-27" d="M290.17,179.18V200l9-5.21,3.62-2.09V171.88Z"/><path class="cls-26" d="M299.2,194.82v41.71l16.26-9.38V185.44l-12.64,7.29Z"/><path class="cls-26" d="M302.82,171.88v20.85l12.64-7.29,7.22-4.18V160.41Z"/><path class="cls-8" d="M243,226.11c0-1.74,0-14.85,0-17.09l-3.46-2c0,20.3-.14,19.39.08,19.86.45,1,1.79.59,2.67,0C242.63,226.73,243,226.42,243,226.11Z"/><path class="cls-8" d="M266.25,85a3,3,0,0,0-.23-3.17c-1.86-2.09-6,.74-6.11.74L245.19,91a4.12,4.12,0,0,1,1.39,2.4s-.2.11,14.82-8.56a9.73,9.73,0,0,1,2.31-1c-12.6,31.42-11.9,29.48-11.86,29.82l3.74-2.16C266.36,84.67,266.21,85,266.25,85Z"/><path class="cls-25" d="M280.49,213.12l2.67,1.54.45-3.34Z"/><path class="cls-8" d="M301.84,217.79c-.07.38.64.84,1,1,1.54.86,2.38.26,2.45-.61,0,0,1.53-11.33,2.84-21l-3.79,2.18C304.05,201.39,302,216.88,301.84,217.79Z"/><path class="cls-8" d="M325.24,211.16c-1.27.72-2.52,1.45-3.79,2.18-1.49,11.08-1.92,14.23-1.92,14.27a3.19,3.19,0,0,1-.79,1.87c-.88.85-2.4.37-3.46-.25h0l-10.66-6.16c-.17,1.23-.33,2.47-.5,3.7,0,0,9.38,5.45,9.43,5.45,4.51,2.64,8.8.65,9.41-4.16C322.93,228.06,322.93,228.28,325.24,211.16Z"/><path class="cls-8" d="M319.3,151.12a.4.4,0,0,0,.11-.47L296.06,101c-2.36-4.92-7.42-6.55-11.38-4.12,0,0-14.64,8.44-14.64,8.46a.39.39,0,0,1,.1.08,4,4,0,0,1,1.27,2.3c.06,0,14.87-8.61,14.9-8.61,2.87-1.59,6,.14,7.37,3.32,0,0,23,48.78,23,48.85a1.09,1.09,0,0,0,1.2.57A2.76,2.76,0,0,0,319.3,151.12Z"/><path class="cls-8" d="M320.55,190l3.76,2.17.63-4.7Z"/><path class="cls-8" d="M322.45,205.91a.75.75,0,0,0,.3.52,3.93,3.93,0,0,0,1.83.89,1.09,1.09,0,0,0,1.31-1c.2-1.47,2.47-18.34,2.83-21l-3.78,2.19C324.93,187.52,322.47,205.87,322.45,205.91Z"/><path class="cls-21" d="M243.6,118.43a2,2,0,0,1,2,.37,5.29,5.29,0,0,1,2,3.45,2,2,0,0,1-.66,1.9l4.9-2.83h0c.59-.33,15-8.68,18.42-10.64,1.84-1.06,1.51-3.78-.08-5.21a2.71,2.71,0,0,0-3.22-.5Z"/><path class="cls-8" d="M281.13,229.73c-.11.38.63.86,1,1.06a2.4,2.4,0,0,0,1.77.35,1.09,1.09,0,0,0,.68-.92c.15-1.1,2.64-19.6,2.84-21.08l-3.78,2.18C283.6,211.4,281.14,229.69,281.13,229.73Z"/><path class="cls-8" d="M204.59,206.26a1.21,1.21,0,0,0,.13.42c.51,1,1.89.52,2.78-.14.26-.19.56-.46.52-.73,0,0-2.46-18.44-2.46-18.46l-3.77-2.18S204.51,205.6,204.59,206.26Z"/><path class="cls-8" d="M167,166.94c2.72,20.31,2.51,19.18,2.67,19.47.5,1,1.88.52,2.77-.14.22-.16.53-.42.53-.68,0-.05-2.46-18.47-2.47-18.51l-3.77-2.19C166.84,166,167,166.9,167,166.94Z"/><path class="cls-8" d="M244.85,122.62c0-1-1.08-2.08-1.67-1.72,0,0-15.57,9-15.72,9.08-4.08,2.45-5.85,8.27-4.74,13.15,0,0,2.88,13.54,11.29,53.33h0c.13.61.26,1.22.38,1.83h0a1.13,1.13,0,0,0,1,.8,3,3,0,0,0,1.79-.48c.06-.08.61,2.68-11.88-56.33a10.74,10.74,0,0,1,.55-6.18,7.56,7.56,0,0,1,3.22-3.91c.08-.06,15.38-8.89,15.45-8.93A.73.73,0,0,0,244.85,122.62Z"/><path class="cls-28" d="M173.93,193v.05c.13,0,.16,0,.29.11Z"/><path class="cls-8" d="M170.15,190.81c.55,4.18,2.25,16.88,2.25,16.92.54,4.24,4,6.35,7.94,4.87l-4.05-2.34-.35-2.42a4,4,0,0,1-.11-.56s0,.05-.19-1.47v0l0-.25-.15-1.07c0-.18,0-.37-.07-.58l-.54-4-.6-4.5-.31-2.35Z"/><path class="cls-8" d="M332.74,197a3.7,3.7,0,0,1,1.08.88c.21.27.19.34.19.36s-.26.48-.51.71c-.43.39-.05.11-7.2,4.25-.14,1-.27,2-.41,3.06a1.09,1.09,0,0,1-1.31,1,3.93,3.93,0,0,1-1.83-.89.75.75,0,0,1-.3-.52l.07-.5-16.83,9.72-.42,3.08h0c-.07.87-.9,1.48-2.45.61-.34-.19-1.05-.65-1-1l.07-.47L285,227.1l-.42,3.12a1.09,1.09,0,0,1-.68.92,2.4,2.4,0,0,1-1.77-.35c-.34-.2-1.08-.68-1-1.06l.06-.45s-10.52,6.11-10.58,6.11a11.24,11.24,0,0,1-5.9,1.21h0a10.32,10.32,0,0,1-4.72-1.21c-.17-.08-16.92-9.79-17-9.79v.51c0,.31-.41.62-.67.79-.88.57-2.22.93-2.67,0-.17-.35-.12-.41-.11-3.27-6.47-3.75,7.45,4.32-31.63-18.27l.06.47c0,.27-.26.54-.52.73-.89.66-2.27,1.14-2.78.14-.13-.26-.09-.16-.54-3.52l-31.31-18.09s.07.5.07.52c0,.26-.31.52-.53.68-.89.66-2.27,1.14-2.77.14-.14-.25-.1-.16-.55-3.53l-.05,0-12.66-7.31a4,4,0,0,1-1.08-.87c-.21-.28-.19-.35-.19-.37a.21.21,0,0,1,0-.06,3,3,0,0,1,1.26-1.18c11-6.38,10.59-6.09,10.59-6.14l-.27-2-4.43-2.55s-9,5.23-9.06,5.23c-5.92,3.37-5.9,10.11,0,13.46.06,0,103.56,59.82,103.6,59.84a14.1,14.1,0,0,0,4.51,1.68h0a18.46,18.46,0,0,0,12.46-1.67s62-35.89,62.12-35.89c5.91-3.36,5.92-10.1,0-13.46,0,0,.13.07-7.45-4.3-.31,2.26-.61,4.52-.92,6.79l5.2,3Z"/><path class="cls-8" d="M239.53,246.33c0,4.42,3.76,6.67,8.58,3.86,0,0,.7-.41,6.93-4,17.41,10.06,17.14,9.92,17.18,9.92,4.55,2.66,8.8.61,9.41-4.16,0,0-.05.43,2.27-16.9l-3.78,2.18c0,.05-1.92,14.22-1.92,14.27a3.22,3.22,0,0,1-.79,1.86c-.88.85-2.4.38-3.46-.25,0,0,0,0-1.73-1l-1.91,1.1-30.75-17.75C239.55,239.92,239.53,246.08,239.53,246.33Zm3.46.1c0-1.2,0-6,0-7.21l8.57,5-5.2,3h0a4.92,4.92,0,0,1-2.46.78.74.74,0,0,1-.54-.21A2,2,0,0,1,243,246.43Z"/><path class="cls-8" d="M304.62,223.07l-3.78,2.18c-1.49,11.08-1.92,14.23-1.92,14.27a3.29,3.29,0,0,1-.79,1.86c-.89.86-2.4.38-3.46-.24,0,0,.14.08-10.67-6.16l-.1.05h0l-.48,3.6s9.48,5.49,9.52,5.49c4.51,2.64,8.79.64,9.41-4.16C302.31,240,302.63,238,304.62,223.07Z"/><path class="cls-8" d="M146.28,153.1c.07,0,110.53,63.87,110.57,63.87,4.74,2.79,12.31,2.75,17,0l69-39.87c5.91-3.35,5.94-10.09,0-13.46,0,0,.35.22-5.21-3L326.13,154v7.28l6.09,3.53C341,169.89,341,170,341,170.37a.21.21,0,0,1,0,.06,1.75,1.75,0,0,1-.51.65c-.65.59-69.61,40.24-69.78,40.41a12.16,12.16,0,0,1-10.63,0l-22.8-13.17c0,.23.07.22,0,.29a3,3,0,0,1-1.79.48,1.13,1.13,0,0,1-1-.8h0c-.13-.61-.25-1.22-.38-1.83,0,0-61.22-35.41-61.3-35.41s-.1.18-.16.27a2.64,2.64,0,0,1-2.61.07h0l0,0h0a.63.63,0,0,1-.11-.85l.53-.82-20.87-12.06a3.7,3.7,0,0,1-1.08-.88c-.21-.27-.19-.34-.19-.36a.13.13,0,0,1,0-.05c.12-.42.9-1,1.26-1.19L168.66,134l-4.85-4.51-17.53,10.12C140.36,143,140.36,149.73,146.28,153.1Z"/><path class="cls-28" d="M239.62,207l-.75-.43a1.39,1.39,0,0,1,.75,1.14Z"/><path class="cls-28" d="M225.15,198.67c6.13,3.55,11.69,6.77,13.31,7.68l-13.31-7.69Z"/><path class="cls-28" d="M170,190.72a.72.72,0,0,1,.18.21l0-.12Z"/><g class="cls-29"><path class="cls-28" d="M242.44,121.26c.87-.24,1.66-.21,2,.77a1.16,1.16,0,0,1-.65,1.63,1.29,1.29,0,0,0,.49.58,2,2,0,0,0,.83.28,3,3,0,0,0,1,0l1.18-.66,4.18-2.38.13,1.22c.28-1.43.46-1.53,2.08-2.35a1.1,1.1,0,0,1,1.22,0c.05,0,26.64,15.39,28,16.14a1.23,1.23,0,0,1,.8,1.42l3.38,1.95.12-.85c2.4,1.35-3-1.73,33.52,19.34.83.48.89.52.7,1.33l1.2.7v7.45a28.54,28.54,0,0,0,1.64-5c.15-.66.34-1.31.53-2.06a5.93,5.93,0,0,1,.66.28c16.61,9.57,13,7.45,15.39,9.12a1.68,1.68,0,0,0,.18-2.34,4.09,4.09,0,0,0-1.19-1.08c-16.75-9.7-22.17-12.69-23.94-13.86.41-.74,1.23-.65,1.86-1.05a8.14,8.14,0,0,0-.25-.79c-22.32-47.45-18.38-39-20.53-43.6-.81-1.73-1.49-3.53-2.33-5.24a6.65,6.65,0,0,0-4.9-4,2.85,2.85,0,0,0-2.42.63h1.67a4.06,4.06,0,0,1,2.86,1.38,7.45,7.45,0,0,1,1.54,2.08c.32.66,21.68,46,22.28,47.37-1.74.3-2.57.38-3,.7a1,1,0,0,1-1.37,0c-9.44-5.48-53-30.55-54.76-31.68,12.86-7.44,12.78-7.34,14.05-8.33-.44-.12-.73.14-1,.32-1.4.81-12.86,7.44-21.42,12.37a1.37,1.37,0,0,1-2.07-.33c-.81-.89-1.28-2.11-3.33-3.25A1.83,1.83,0,0,0,242.44,121.26Zm71.72,65c.37,0,.71-.22,1.42-.68.15-.1.29-.22.51-.4l0,0Z"/><path class="cls-28" d="M263.64,83.75c-.61,2,.68-1.31-6.27,16-6.26,15.21-5.52,13.91-5.52,13.91l3.74-2.16S266,85.75,266.19,85c.23-1.08-.36-1.73-1.42-1.56A11,11,0,0,0,263.64,83.75Z"/><path class="cls-28" d="M334.08,198c1-1,.17-2.68-1-3.33-.89-.49-1.78-1-2.66-1.45-.63-.36-1.25-.73-1.88-1.08-.22-.12-.45-.2-.7-.31a4.11,4.11,0,0,0-.38,2.18Z"/><path class="cls-25" d="M221.41,225.32c-3.54-2.12-7.12-4.14-10.67-6.19-.24-.13-.51-.22-.8-.34a1.3,1.3,0,0,0,.66,1.7c3.08,1.75,6.14,3.53,9.21,5.29C220.54,226.2,220.68,226.15,221.41,225.32Z"/><path class="cls-28" d="M252.53,243.43a89.92,89.92,0,0,0-9.33-5.37c-.28.93-.26,1.09.46,1.5q3.65,2.13,7.32,4.22C251.7,244.19,251.85,244.12,252.53,243.43Z"/><path class="cls-8" d="M305.88,215c.55-.31,1.11-.59,1.64-1,.37-.24.38-.76.13-1.38-.18-.42-.43-.77-.94-.75a.74.74,0,0,0-.78.6,18,18,0,0,0-.29,2.31Z"/><path class="cls-28" d="M244.32,124.24a2,2,0,0,0,.83.28,3,3,0,0,0,1,0l1.18-.66Z"/><path class="cls-28" d="M230.31,179,229,172.64l1.3,6.17A1.33,1.33,0,0,0,230.31,179Z"/><path class="cls-8" d="M228.17,168.88c.16.75.32,1.54.49,2.34Z"/><path class="cls-28" d="M222.12,110c.53-.27,1-.57,1.56-.88Z"/><path class="cls-28" d="M202.37,189.17c0-.08,0-.17,0-.29Z"/><path class="cls-28" d="M202,186.58c.13,1,.22,1.68.27,2.1Z"/></g><path class="cls-23" d="M352.64,261.67c-1.16-2.07-4.39-3.49-6.77-3.95a12.49,12.49,0,0,0-8.44,1.22c-1.71,1-2.57,2.13-2.57,3.41v1.45c0,1.75,1.72,3.07,3.23,3.94a13.48,13.48,0,0,0,8.33,1.53c2.32-.32,5.27-1.49,6.32-3.56a2.67,2.67,0,0,0,.29-1.18v-1.46A2.88,2.88,0,0,0,352.64,261.67Zm-7-5.75,12.59,7.28,1.54-.9v-1.45L356.62,259l7.25.9,1.91-1.1v-1.46l-9.54-1.09c.08-3,.06-2.14.06-4l-2,1.15c0,1.83,0,.89,0,4.25l-7.17-4.13-1.54.89Zm26.13,15.77c-9.1,6-23.12,7-33.81,4.21-5.16-1.36-11-4-14.28-8.21-3.64-4.62-3.4-9.7,0-14,8.34-10.54,32.43-13.1,46.77-4.86h0a20.1,20.1,0,0,1,5.83,4.82C381.34,260.12,378.75,267.08,371.76,271.69Z"/><path class="cls-21" d="M314.65,259a20.08,20.08,0,0,0,5.85,4.83c9.85,5.65,24.51,6.29,35.41,2.48,4.19-1.46,8.59-3.87,11.34-7.35a11.1,11.1,0,0,0,2.63-7h0v7.52h0c0,6.1-5.46,10.62-11,13.15-10.5,4.79-25.37,4.79-35.89,0-5.55-2.54-11-7.05-11-13.13V252h0A11.29,11.29,0,0,0,314.65,259Z"/><polygon class="cls-30" points="356.76 248.67 356.76 250.13 354.85 251.22 354.85 249.77 356.76 248.67"/><polygon class="cls-30" points="354.85 249.77 354.85 251.22 347.6 250.33 347.17 250.08 347.17 248.82 354.85 249.77"/><polygon class="cls-30" points="350.74 252.14 350.74 253.6 349.2 254.49 349.2 253.04 350.74 252.14"/><polygon class="cls-30" points="349.2 253.04 349.2 254.49 336.61 247.22 336.61 245.76 349.2 253.04"/><path class="cls-22" d="M350.74,252.14l-1.54.9-12.59-7.28,1.54-.89,7.16,4.14s0,.33,0-4.25l2-1.16-.1,4c.77.07-2.69-.3,9.58,1.1l-1.91,1.1-7.68-1,0,1.23Z"/><path class="cls-20" d="M343.62,253c-1.17-2.07-4.39-3.49-6.77-4a12.49,12.49,0,0,0-8.44,1.23c-1.71,1-2.57,2.13-2.57,3.4v1.46c0,1.74,1.72,3.06,3.23,3.94a13.48,13.48,0,0,0,8.33,1.52c2.32-.32,5.27-1.48,6.32-3.55a2.71,2.71,0,0,0,.29-1.19v-1.45A2.85,2.85,0,0,0,343.62,253Zm-7-5.75,12.59,7.27,1.54-.89v-1.46l-3.14-1.81,7.25.89,1.91-1.09v-1.46l-9.54-1.09c.08-3,.06-2.14.06-4l-2,1.16c0,1.83,0,.89,0,4.25l-7.16-4.14-1.54.89ZM362.74,263c-9.1,6-23.12,7-33.81,4.22-5.16-1.36-11-4-14.28-8.21-3.64-4.62-3.41-9.71,0-14,8.34-10.55,32.43-13.1,46.76-4.87h0a20.13,20.13,0,0,1,5.83,4.83C372.32,251.41,369.72,258.38,362.74,263Z"/><path class="cls-22" d="M341.78,254.64c.06-1.37-1.36-2.43-2.55-3.11a9.55,9.55,0,0,0-9.37-.47,3.07,3.07,0,0,0-1.83,2.46c-.06,1.29,1.67,2.44,2.78,3.08A9.48,9.48,0,0,0,340,257,3,3,0,0,0,341.78,254.64Zm2.23-.27c0,1.44-1.31,2.67-2.57,3.4a13.07,13.07,0,0,1-12.37-.19c-1.52-.87-3.23-2.19-3.23-3.94,0-1.27.86-2.41,2.57-3.4a13,13,0,0,1,12.55.3C342.38,251.36,344,252.72,344,254.37Z"/><path class="cls-20" d="M339.23,253a5.2,5.2,0,0,1,2.41,2.3c-.83,2.18-6.06,4.08-10.83,1.32a6,6,0,0,1-2.63-2.36C329.05,252,334.21,250.07,339.23,253Z"/><path class="cls-30" d="M341.77,254.4a1.86,1.86,0,0,1-.13.88,5.2,5.2,0,0,0-2.41-2.3c-5-2.9-10.18-1-11.05,1.26a1.56,1.56,0,0,1-.15-.72,3.07,3.07,0,0,1,1.83-2.46,9.55,9.55,0,0,1,9.37.47C340.86,252.46,341.7,253.42,341.77,254.4Z"/><path class="cls-30" d="M329.07,257.58a13,13,0,0,0,12.37.19c1.26-.73,2.57-2,2.57-3.4v1.45a2.71,2.71,0,0,1-.29,1.19c-1.05,2.07-4,3.23-6.32,3.55a13.48,13.48,0,0,1-8.33-1.52c-1.51-.88-3.23-2.2-3.23-3.94v-1.46C325.84,255.39,327.55,256.71,329.07,257.58Z"/></g></g></g></svg>