<svg xmlns="http://www.w3.org/2000/svg" viewBox="0 0 2324.22 1454.28"><defs><style>.cls-1{isolation:isolate;}.cls-2{fill:#ffc20e;}.cls-3{fill:#ed1c24;}.cls-4{fill:#f7941d;}.cls-5{mix-blend-mode:multiply;}.cls-6{fill:#ffcf01;}.cls-7{fill:#231f20;}</style></defs><title>Asset 1star</title><g class="cls-1"><g id="Layer_2" data-name="Layer 2"><g id="Isolation_Mode" data-name="Isolation Mode"><path class="cls-2" d="M812.57,561.87h1420a91.66,91.66,0,0,0,0-183.31h-1420a91.66,91.66,0,1,0,0,183.31Z"/><path class="cls-3" d="M1101,1112.26h930a91.65,91.65,0,0,0,0-183.3H1101a91.65,91.65,0,1,0,0,183.3Z"/><path class="cls-4" d="M968.36,829.26h1166.5a91.65,91.65,0,1,0,0-183.3H968.36a91.65,91.65,0,0,0,0,183.3Z"/><g class="cls-5"><path class="cls-6" d="M797.12,560.57,2122.66,827.29a91.65,91.65,0,0,0,30.91-180.68L828,379.89a91.65,91.65,0,1,0-30.92,180.68Z"/></g><g class="cls-5"><path class="cls-4" d="M953.39,828l1067.37,282.33a91.65,91.65,0,0,0,30.91-180.68L984.3,647.29A91.65,91.65,0,1,0,953.39,828Z"/></g><path class="cls-7" d="M91.65,183.3H675.22a91.65,91.65,0,0,0,0-183.3H91.65a91.65,91.65,0,0,0,0,183.3Z"/><path class="cls-7" d="M614.33,152,723.84,280a91.65,91.65,0,1,0,137.95-120.7L752.28,31.3A91.65,91.65,0,0,0,614.33,152Z"/><circle class="cls-7" cx="1319.11" cy="1307.61" r="146.67"/><circle class="cls-7" cx="1828.64" cy="1307.61" r="146.67"/></g></g></g></svg>