<svg xmlns="http://www.w3.org/2000/svg" xmlns:xlink="http://www.w3.org/1999/xlink" viewBox="0 0 460.61 417.29"><defs><style>.cls-1{isolation:isolate;}.cls-2{fill:#77008f;}.cls-3{fill:#ff7f85;}.cls-4{fill:#b0a7c2;}.cls-22,.cls-23,.cls-38,.cls-4,.cls-47{mix-blend-mode:multiply;}.cls-5{fill:#a9a8c6;}.cls-6{fill:#1c1a2a;}.cls-7{fill:#e1dfea;}.cls-8{fill:#7c7ca0;}.cls-9{fill:url(#linear-gradient);}.cls-10{fill:#090000;}.cls-11{fill:#1a2738;}.cls-12{opacity:0.27;}.cls-13{fill:#f2f8ff;}.cls-14{fill:#717f90;}.cls-15{fill:#8140ff;}.cls-16{fill:#a68efe;}.cls-17{fill:#d0b8ff;}.cls-18{fill:#ff73b5;}.cls-19{fill:#a135bc;}.cls-20{fill:#d2448d;}.cls-21{fill:#fbfafc;}.cls-22{fill:#cdc3e2;}.cls-23{fill:#aa9bc3;}.cls-24{fill:#b4aad1;}.cls-25{fill:#c42979;}.cls-26{fill:#f1519d;}.cls-27{fill:#ece7f2;}.cls-28{fill:#1a293b;}.cls-29{fill:#3f4f5d;}.cls-30{fill:#9b346c;}.cls-31{fill:#fac152;}.cls-32{fill:#a23042;}.cls-33{fill:#fde86b;}.cls-34{fill:#ef4f25;}.cls-35{fill:#fa7800;}.cls-36{fill:#c2485c;}.cls-37{fill:#ffec8e;}.cls-38{fill:#dbd0f2;}.cls-39{fill:#d64a78;}.cls-40{fill:#f50054;}.cls-41{fill:#5f26cf;}.cls-42{fill:#e95950;}.cls-43{fill:#f5b538;}.cls-44{fill:#f8e150;}.cls-45{fill:#aa682d;}.cls-46{fill:#a482f4;}.cls-48{fill:#c6b3eb;}.cls-49{fill:#f0e0dc;}.cls-50{fill:#821e4d;}.cls-51{fill:#ad3970;}.cls-52{fill:#f3e187;}.cls-53{fill:#f7b23b;}.cls-54{fill:#fbc959;}</style><linearGradient id="linear-gradient" x1="68.46" y1="237.24" x2="425.56" y2="237.24" gradientUnits="userSpaceOnUse"><stop offset="0" stop-color="#ffc485"/><stop offset="1" stop-color="#d03e3e"/></linearGradient></defs><title>Asset 1shop</title><g class="cls-1"><g id="Layer_2" data-name="Layer 2"><g id="Default"><path class="cls-2" d="M31,378.8c4.81,2.78,4.81,7.28,0,10.06s-12.61,2.78-17.42,0-4.81-7.28,0-10.06S26.21,376,31,378.8Z"/><path class="cls-2" d="M367.1,360.85c5.42,3.13,5.42,8.2,0,11.34s-14.2,3.13-19.62,0-5.42-8.21,0-11.34S361.68,357.72,367.1,360.85Z"/><path class="cls-3" d="M13.06,278.06c3,1.73,3,4.53,0,6.25a11.93,11.93,0,0,1-10.82,0c-3-1.72-3-4.52,0-6.25A11.93,11.93,0,0,1,13.06,278.06Z"/><path class="cls-3" d="M186.47,365.16c2.07,1.19,2.07,3.13,0,4.33a8.26,8.26,0,0,1-7.5,0c-2.07-1.2-2.07-3.14,0-4.33A8.26,8.26,0,0,1,186.47,365.16Z"/><path class="cls-2" d="M164.25,290.47,89.7,333.53a9.66,9.66,0,0,1-8.76,0h0c-2.43-1.4-2.43-3.66,0-5.06l74.54-43.07a9.74,9.74,0,0,1,8.77,0h0C166.67,286.8,166.67,289.07,164.25,290.47Z"/><path class="cls-2" d="M221.83,257.2,182.44,280a9.68,9.68,0,0,1-8.77,0h0c-2.42-1.4-2.42-3.67,0-5.06l39.39-22.76a9.68,9.68,0,0,1,8.77,0h0C224.25,253.54,224.25,255.81,221.83,257.2Z"/><path class="cls-2" d="M186.35,255.11,111.8,298.17a9.68,9.68,0,0,1-8.77,0h0c-2.42-1.4-2.42-3.67,0-5.06L177.58,250a9.74,9.74,0,0,1,8.77,0h0C188.77,251.44,188.77,253.71,186.35,255.11Z"/><path class="cls-2" d="M281.66,200.05l-74.54,43.06a9.68,9.68,0,0,1-8.77,0h0c-2.42-1.4-2.42-3.67,0-5.07L272.9,195a9.66,9.66,0,0,1,8.76,0h0C284.09,196.38,284.09,198.65,281.66,200.05Z"/><path class="cls-2" d="M324.47,220.5l-74.54,43.07a9.68,9.68,0,0,1-8.77,0h0c-2.42-1.4-2.42-3.67,0-5.07l74.55-43.06a9.66,9.66,0,0,1,8.76,0h0C326.9,216.84,326.9,219.11,324.47,220.5Z"/><path class="cls-2" d="M183.8,301.77,162,314.37a9.66,9.66,0,0,1-8.76,0h0c-2.42-1.4-2.42-3.66,0-5.06L175,296.7a9.66,9.66,0,0,1,8.76,0h0C186.22,298.1,186.22,300.37,183.8,301.77Z"/><path class="cls-2" d="M370.88,193.7l-21.82,12.6a9.68,9.68,0,0,1-8.77,0h0c-2.42-1.39-2.42-3.66,0-5.06l21.82-12.61a9.74,9.74,0,0,1,8.77,0h0C373.3,190,373.3,192.3,370.88,193.7Z"/><path class="cls-2" d="M201.17,224,126.63,267a9.68,9.68,0,0,1-8.77,0h0c-2.42-1.4-2.42-3.67,0-5.07l74.55-43.06a9.66,9.66,0,0,1,8.76,0h0C203.6,220.28,203.6,222.55,201.17,224Z"/><path class="cls-2" d="M247.58,197.14l-21.82,12.61a9.68,9.68,0,0,1-8.77,0h0c-2.42-1.4-2.42-3.67,0-5.07l21.82-12.6a9.68,9.68,0,0,1,8.77,0h0C250,193.48,250,195.74,247.58,197.14Z"/><path class="cls-2" d="M284.22,373.17l-74.54,43.07a9.68,9.68,0,0,1-8.77,0h0c-2.42-1.4-2.42-3.67,0-5.07l74.55-43.06a9.66,9.66,0,0,1,8.76,0h0C286.65,369.51,286.65,371.78,284.22,373.17Z"/><path class="cls-2" d="M341.81,339.91l-39.39,22.76a9.74,9.74,0,0,1-8.77,0h0c-2.42-1.4-2.42-3.67,0-5.07L333,334.84a9.68,9.68,0,0,1,8.77,0h0C344.23,336.24,344.23,338.51,341.81,339.91Z"/><path class="cls-2" d="M306.32,337.81l-74.54,43.07a9.74,9.74,0,0,1-8.77,0h0c-2.42-1.4-2.42-3.67,0-5.07l74.55-43.06a9.66,9.66,0,0,1,8.76,0h0C308.74,334.15,308.74,336.41,306.32,337.81Z"/><path class="cls-2" d="M401.64,282.75,327.1,325.81a9.68,9.68,0,0,1-8.77,0h0c-2.42-1.4-2.42-3.66,0-5.06l74.54-43.06a9.68,9.68,0,0,1,8.77,0h0C404.06,279.08,404.06,281.35,401.64,282.75Z"/><path class="cls-2" d="M444.45,303.21l-74.54,43.06a9.68,9.68,0,0,1-8.77,0h0c-2.42-1.4-2.42-3.67,0-5.06l74.54-43.07a9.74,9.74,0,0,1,8.77,0h0C446.87,299.54,446.87,301.81,444.45,303.21Z"/><path class="cls-2" d="M303.78,384.47,282,397.08a9.68,9.68,0,0,1-8.77,0h0c-2.42-1.4-2.42-3.67,0-5.07L295,379.41a9.68,9.68,0,0,1,8.77,0h0C306.2,380.81,306.2,383.07,303.78,384.47Z"/><path class="cls-2" d="M321.15,306.65l-74.54,43.06a9.68,9.68,0,0,1-8.77,0h0c-2.42-1.39-2.42-3.66,0-5.06l74.54-43.06a9.68,9.68,0,0,1,8.77,0h0C323.57,303,323.57,305.25,321.15,306.65Z"/><path class="cls-2" d="M367.55,279.85l-21.82,12.6a9.66,9.66,0,0,1-8.76,0h0c-2.43-1.4-2.43-3.66,0-5.06l21.81-12.61a9.68,9.68,0,0,1,8.77,0h0C370,276.18,370,278.45,367.55,279.85Z"/><path class="cls-2" d="M233.09,316.32l-74.54,43.06a9.68,9.68,0,0,1-8.77,0h0c-2.42-1.4-2.42-3.67,0-5.07l74.54-43.06a9.68,9.68,0,0,1,8.77,0h0C235.51,312.65,235.51,314.92,233.09,316.32Z"/><path class="cls-2" d="M290.67,283.05l-39.39,22.76a9.68,9.68,0,0,1-8.77,0h0c-2.42-1.4-2.42-3.67,0-5.07L281.91,278a9.66,9.66,0,0,1,8.76,0h0C293.1,279.38,293.1,281.65,290.67,283.05Z"/><path class="cls-2" d="M255.19,281,180.64,324a9.66,9.66,0,0,1-8.76,0h0c-2.42-1.4-2.42-3.67,0-5.07l74.54-43.06a9.68,9.68,0,0,1,8.77,0h0C257.61,277.29,257.61,279.56,255.19,281Z"/><path class="cls-2" d="M350.51,225.89,276,269a9.68,9.68,0,0,1-8.77,0h0c-2.42-1.39-2.42-3.66,0-5.06l74.55-43.06a9.68,9.68,0,0,1,8.77,0h0C352.93,222.23,352.93,224.49,350.51,225.89Z"/><path class="cls-2" d="M393.32,246.35l-74.55,43.06a9.66,9.66,0,0,1-8.76,0h0c-2.43-1.4-2.43-3.66,0-5.06l74.54-43.06a9.68,9.68,0,0,1,8.77,0h0C395.74,242.68,395.74,245,393.32,246.35Z"/><path class="cls-2" d="M252.65,327.61l-21.82,12.61a9.68,9.68,0,0,1-8.77,0h0c-2.42-1.4-2.42-3.67,0-5.07l21.82-12.6a9.68,9.68,0,0,1,8.77,0h0C255.07,324,255.07,326.22,252.65,327.61Z"/><path class="cls-2" d="M439.72,219.55l-21.82,12.6a9.68,9.68,0,0,1-8.77,0h0c-2.42-1.4-2.42-3.67,0-5.06L431,214.48a9.68,9.68,0,0,1,8.77,0h0C442.14,215.88,442.14,218.15,439.72,219.55Z"/><path class="cls-2" d="M270,249.79l-74.55,43.07a9.74,9.74,0,0,1-8.77,0h0c-2.42-1.4-2.42-3.67,0-5.07l74.55-43.06a9.68,9.68,0,0,1,8.77,0h0C272.44,246.13,272.44,248.4,270,249.79Z"/><path class="cls-2" d="M316.42,223l-21.82,12.6a9.68,9.68,0,0,1-8.77,0h0c-2.42-1.4-2.42-3.66,0-5.06l21.82-12.61a9.74,9.74,0,0,1,8.77,0h0C318.84,219.32,318.84,221.59,316.42,223Z"/><path class="cls-2" d="M92.76,265.18,22.24,305.92a9.19,9.19,0,0,1-8.3,0h0c-2.29-1.33-2.29-3.47,0-4.79l70.53-40.74a9.11,9.11,0,0,1,8.29,0h0C95.05,261.71,95.05,263.86,92.76,265.18Z"/><path class="cls-2" d="M147.24,233.71,110,255.24a9.17,9.17,0,0,1-8.29,0h0c-2.29-1.33-2.29-3.47,0-4.8L139,228.91a9.17,9.17,0,0,1,8.29,0h0C149.53,230.24,149.53,232.38,147.24,233.71Z"/><path class="cls-2" d="M113.67,231.72,43.14,272.46a9.11,9.11,0,0,1-8.29,0h0c-2.29-1.32-2.29-3.46,0-4.79l70.52-40.74a9.19,9.19,0,0,1,8.3,0h0C116,228.26,116,230.4,113.67,231.72Z"/><path class="cls-2" d="M203.85,179.63l-70.53,40.74a9.17,9.17,0,0,1-8.29,0h0c-2.29-1.32-2.29-3.47,0-4.79l70.52-40.74a9.19,9.19,0,0,1,8.3,0h0C206.14,176.16,206.14,178.31,203.85,179.63Z"/><path class="cls-2" d="M244.35,199l-70.53,40.74a9.17,9.17,0,0,1-8.29,0h0c-2.29-1.33-2.29-3.47,0-4.8l70.52-40.74a9.19,9.19,0,0,1,8.3,0h0C246.64,195.52,246.64,197.66,244.35,199Z"/><path class="cls-2" d="M111.26,275.87,90.62,287.79a9.19,9.19,0,0,1-8.3,0h0c-2.29-1.32-2.29-3.47,0-4.79L103,271.07a9.17,9.17,0,0,1,8.29,0h0C113.55,272.4,113.55,274.54,111.26,275.87Z"/><path class="cls-2" d="M288.25,173.63,267.6,185.55a9.17,9.17,0,0,1-8.29,0h0c-2.29-1.32-2.29-3.47,0-4.79L280,168.83a9.19,9.19,0,0,1,8.3,0h0C290.54,170.16,290.54,172.3,288.25,173.63Z"/><path class="cls-2" d="M127.7,202.24,57.17,243a9.11,9.11,0,0,1-8.29,0h0c-2.29-1.32-2.29-3.47,0-4.79l70.52-40.74a9.19,9.19,0,0,1,8.3,0h0C130,198.78,130,200.92,127.7,202.24Z"/><path class="cls-2" d="M171.59,176.88,151,188.81a9.17,9.17,0,0,1-8.29,0h0c-2.29-1.32-2.29-3.47,0-4.79l20.64-11.93a9.17,9.17,0,0,1,8.29,0h0C173.89,173.42,173.89,175.56,171.59,176.88Z"/><path class="cls-4" d="M419,328.62l-89.75,51.82c-11.12,6.42-29.16,6.42-40.29,0L74.3,256.53c-11.12-6.42-11.12-16.84,0-23.26l89.75-51.82c11.13-6.42,29.17-6.42,40.3,0L419,305.36C430.09,311.78,430.09,322.2,419,328.62Z"/><path class="cls-5" d="M66.18,210.35a15.81,15.81,0,0,0,4.77,4L286.71,338.94a27.16,27.16,0,0,0,8.11,3.1,42.45,42.45,0,0,0,8.73.94,33.89,33.89,0,0,0,16.87-4l102.67-59.3c2.89-1.67,6-4.56,6.79-7.82a7.21,7.21,0,0,0,.18-1.66v15.3c0,4.21-3.25,7.59-7,9.74L320.42,354.51a27.47,27.47,0,0,1-8.12,3.09c-8.33,1.79-18.25,1.15-25.59-3.09L71,229.87a23,23,0,0,1-2.7-1.84c-2.35-1.86-4.27-5-4.27-8h0v-15.5h0A10.18,10.18,0,0,0,66.18,210.35Z"/><path class="cls-6" d="M380.43,309.05a1.82,1.82,0,0,1,1.71-.22,1.71,1.71,0,0,1,.83,1.68v1.09a5.58,5.58,0,0,1-2.54,4.39l-17.36,10a1.54,1.54,0,0,1-2.53-1.45v-1.11a5.57,5.57,0,0,1,2.53-4.37Z"/><path class="cls-6" d="M341.89,331c2.42-2.46,4.73-1.48,4.67,1.06-.11,3.8-3.88,7.52-5.92,6.25a2.18,2.18,0,0,1-.71-.76,3.29,3.29,0,0,1-.27-2,7.59,7.59,0,0,1,.71-2.39,0,0,0,0,1,0,0,8.33,8.33,0,0,0,.53-.93A6.91,6.91,0,0,1,341.89,331Z"/><path class="cls-7" d="M70.37,209.4c1.77,2.14,3.19,2.71,9.4,6.33.11.07,210.26,121.5,211.35,122a29,29,0,0,0,12.45,2.61l0,2.6a42.45,42.45,0,0,1-8.73-.94,27.16,27.16,0,0,1-8.11-3.1L71,214.31a15.81,15.81,0,0,1-4.77-4,10.18,10.18,0,0,1-2.2-5.78,7.16,7.16,0,0,1,.17-1.91c.77-3.27,3.9-6.16,6.8-7.83l102.67-59.3a33.84,33.84,0,0,1,16.85-4l0,2.59a31.92,31.92,0,0,0-6.64.68c-4.44.94-6.59,2.3-9.89,4.28s7.62-4.47-38.54,22.19c-7.51,4.35-15,8.77-22.5,13.1s-15.06,8.59-22.56,13c-3.13,1.83-6.24,3.68-9.38,5.45a84.6,84.6,0,0,0-8.84,5.28C68.19,201.19,67.17,205.54,70.37,209.4Z"/><polygon class="cls-7" points="122.14 252.12 123.86 251.12 104.93 240.19 103.21 241.18 122.14 252.12"/><polygon class="cls-8" points="123.86 253.51 123.86 251.12 122.14 252.12 122.14 254.51 123.86 253.51"/><polygon class="cls-8" points="122.14 254.51 122.14 252.12 103.21 241.18 103.21 243.57 122.14 254.51"/><path class="cls-6" d="M330.81,341.12h0a1.43,1.43,0,0,0,.67-1.12h0c0-.41-.3-.57-.67-.36h0a1.48,1.48,0,0,0-.66,1.13h0C330.15,341.18,330.45,341.34,330.81,341.12Z"/><path class="cls-6" d="M417.58,294.59h0a2.22,2.22,0,0,0,1-1.74v-4.92c0-.63-.46-.88-1-.55h0a2.24,2.24,0,0,0-1,1.74V294C416.55,294.67,417,294.92,417.58,294.59Z"/><path class="cls-6" d="M413.45,297h0a2.24,2.24,0,0,0,1-1.75v-4.92c0-.63-.46-.87-1-.55h0a2.26,2.26,0,0,0-1,1.75v4.92C412.42,297.06,412.88,297.31,413.45,297Z"/><path class="cls-6" d="M409.32,299.36h0a2.22,2.22,0,0,0,1-1.74V292.7c0-.63-.46-.88-1-.55h0a2.24,2.24,0,0,0-1,1.74v4.92C408.29,299.44,408.75,299.69,409.32,299.36Z"/><path class="cls-6" d="M405.19,301.75h0a2.24,2.24,0,0,0,1-1.74v-4.92c0-.63-.46-.88-1-.55h0a2.22,2.22,0,0,0-1,1.74v4.92C404.16,301.83,404.62,302.08,405.19,301.75Z"/><path class="cls-6" d="M401.06,304.14h0a2.26,2.26,0,0,0,1-1.75v-4.92c0-.63-.46-.88-1-.55h0a2.24,2.24,0,0,0-1,1.75v4.92C400,304.22,400.49,304.46,401.06,304.14Z"/><path class="cls-6" d="M396.93,306.52h0a2.24,2.24,0,0,0,1-1.74v-4.92c0-.63-.46-.88-1-.55h0a2.22,2.22,0,0,0-1,1.74V306C395.9,306.6,396.36,306.85,396.93,306.52Z"/><path class="cls-7" d="M423.09,279.64l-102.67,59.3a33.89,33.89,0,0,1-16.87,4l0-2.6a29.8,29.8,0,0,0,11.31-2.11,39.75,39.75,0,0,0,5.24-2.84c3.35-2-7.62,4.47,38.54-22.2,7.51-4.34,15-8.77,22.5-13.1s15.07-8.58,22.56-13c3.13-1.83,6.24-3.69,9.39-5.46,6.21-3.5,9.15-4.87,11.07-7.63,2.51-3.62,1.93-8.39-4.28-12.07-.23-.15-216-124.82-217-125.3a29.17,29.17,0,0,0-12.47-2.61l0-2.59a43.25,43.25,0,0,1,8.74.93,27.66,27.66,0,0,1,8.13,3.1L423.09,260.16a16.15,16.15,0,0,1,4.78,4,10.16,10.16,0,0,1,2.19,6,7.21,7.21,0,0,1-.18,1.66C429.13,275.08,426,278,423.09,279.64Z"/><path class="cls-7" d="M206.89,139l-4-2.29a29.17,29.17,0,0,0-12.47-2.61,31.77,31.77,0,0,0-6.63.69c-4.45.94-6.6,2.29-9.9,4.27-3.11,1.87,6.17-3.61-29.71,17.09l-8.83,5.1c-7.51,4.35-15,8.77-22.5,13.1q-3.08,1.78-6.18,3.55c-5.46,3.13-10.94,6.24-16.38,9.43-3.12,1.83-6.24,3.68-9.38,5.45a89.46,89.46,0,0,0-8.84,5.28c-3.9,3.14-4.94,7.5-1.73,11.35,1.78,2.14,3.19,2.71,9.4,6.34L171,268.45c56.91,32.88,119.49,69,120.1,69.32a29,29,0,0,0,12.45,2.62,29.78,29.78,0,0,0,11.3-2.12,37.46,37.46,0,0,0,5.24-2.84c3.35-2-7.62,4.47,38.54-22.19,7.51-4.35,15-8.77,22.51-13.11s15.06-8.59,22.56-13c3.12-1.83,6.24-3.69,9.38-5.46,6.22-3.5,9.15-4.87,11.07-7.63,2.42-3.48,2-8-3.58-11.63-.22-.15-.46-.29-.7-.43S236.42,156,206.89,139Z"/><path class="cls-9" d="M420.59,262.44c5.55,3.61,6,8.15,3.58,11.63-1.92,2.76-4.85,4.13-11.07,7.63-3.14,1.77-6.26,3.63-9.38,5.46-7.5,4.38-15,8.64-22.56,13s-15,8.76-22.51,13.11c-46.16,26.66-35.19,20.18-38.54,22.19a37.46,37.46,0,0,1-5.24,2.84c-7.22,3-17.09,2.77-23.75-.5-1-.49-183.73-106.07-211.36-122-6.21-3.63-7.62-4.2-9.4-6.34-3.21-3.85-2.17-8.21,1.73-11.35,2.13-1.7,98.82-57.19,101.82-59,3.3-2,5.45-3.33,9.9-4.27a31,31,0,0,1,19.1,1.92C203.05,136.76,197.19,133.39,420.59,262.44Z"/><path class="cls-10" d="M139.77,164.25a3.69,3.69,0,0,1,3.36,0l1.25.72-22.85,13.2a3.7,3.7,0,0,1-3.38,0l-1.23-.72Z"/><path class="cls-11" d="M143.13,161.92l1.58.91c.95.55.92,1.41,0,1.95l-.33.19-1.25-.72a3.69,3.69,0,0,0-3.36,0l-22.85,13.2-.33-.19a1.21,1.21,0,0,1-.71-.95v0a1.17,1.17,0,0,1,.71-1l23.18-13.4A3.72,3.72,0,0,1,143.13,161.92Z"/><g class="cls-12"><path class="cls-13" d="M163.14,189.14l-46.79,27a6.06,6.06,0,0,1-5.5,0h0c-1.52-.88-1.52-2.3,0-3.18l46.79-27a6.06,6.06,0,0,1,5.5,0h0C164.66,186.84,164.66,188.26,163.14,189.14Z"/><path class="cls-13" d="M160,203.66l-32.65,18.87a6.08,6.08,0,0,1-5.51,0h0c-1.52-.88-1.52-2.3,0-3.18l32.66-18.87a6.12,6.12,0,0,1,5.5,0h0C161.53,201.36,161.53,202.78,160,203.66Z"/><path class="cls-13" d="M171,210l-32.65,18.86a6.08,6.08,0,0,1-5.51,0h0c-1.52-.87-1.52-2.3,0-3.18l32.66-18.86a6.06,6.06,0,0,1,5.5,0h0C172.53,207.72,172.53,209.14,171,210Z"/></g><g class="cls-12"><path class="cls-13" d="M235.05,234.53l-46.79,27a6.06,6.06,0,0,1-5.5,0h0c-1.52-.88-1.52-2.3,0-3.18l46.79-27a6.06,6.06,0,0,1,5.5,0h0C236.57,232.23,236.57,233.65,235.05,234.53Z"/><path class="cls-13" d="M231.92,249.05l-32.66,18.87a6.06,6.06,0,0,1-5.5,0h0c-1.52-.88-1.52-2.3,0-3.18l32.66-18.87a6.12,6.12,0,0,1,5.5,0h0C233.44,246.75,233.44,248.18,231.92,249.05Z"/><path class="cls-13" d="M242.92,255.41l-32.65,18.86a6.08,6.08,0,0,1-5.51,0h0c-1.52-.87-1.52-2.3,0-3.18l32.66-18.86a6.06,6.06,0,0,1,5.5,0h0C244.44,253.11,244.44,254.53,242.92,255.41Z"/></g><g class="cls-12"><path class="cls-13" d="M330.86,221.52l-46.79,27a6.14,6.14,0,0,1-5.51,0h0c-1.52-.88-1.52-2.31,0-3.18l46.79-27a6.08,6.08,0,0,1,5.51,0h0C332.38,219.22,332.38,220.65,330.86,221.52Z"/><path class="cls-13" d="M327.72,236.05l-32.65,18.86a6.06,6.06,0,0,1-5.5,0h0c-1.52-.88-1.52-2.3,0-3.18l32.65-18.86a6.06,6.06,0,0,1,5.5,0h0C329.24,233.75,329.24,235.17,327.72,236.05Z"/><path class="cls-13" d="M338.73,242.4l-32.66,18.87a6.06,6.06,0,0,1-5.5,0h0c-1.52-.88-1.52-2.3,0-3.18l32.65-18.87a6.14,6.14,0,0,1,5.51,0h0C340.25,240.1,340.25,241.53,338.73,242.4Z"/></g><g class="cls-12"><path class="cls-13" d="M320.82,281.63l-46.79,27a6.14,6.14,0,0,1-5.51,0h0c-1.52-.88-1.52-2.31,0-3.18l46.8-27a6.06,6.06,0,0,1,5.5,0h0C322.34,279.33,322.34,280.76,320.82,281.63Z"/><path class="cls-13" d="M317.69,296.16,285,315a6.06,6.06,0,0,1-5.5,0h0c-1.52-.88-1.52-2.3,0-3.18L312.18,293a6.08,6.08,0,0,1,5.51,0h0C319.21,293.86,319.21,295.28,317.69,296.16Z"/><path class="cls-13" d="M328.69,302.51,296,321.38a6.06,6.06,0,0,1-5.5,0h0c-1.52-.88-1.52-2.3,0-3.18l32.65-18.87a6.14,6.14,0,0,1,5.51,0h0C330.21,300.21,330.21,301.64,328.69,302.51Z"/></g><g class="cls-12"><path class="cls-14" d="M254.43,175.8l-46.79,27a6.08,6.08,0,0,1-5.51,0h0c-1.52-.88-1.52-2.3,0-3.18l46.79-27a6.08,6.08,0,0,1,5.51,0h0C256,173.5,256,174.92,254.43,175.8Z"/><path class="cls-14" d="M251.29,190.32l-32.65,18.87a6.08,6.08,0,0,1-5.51,0h0c-1.52-.88-1.52-2.3,0-3.18l32.66-18.87a6.12,6.12,0,0,1,5.5,0h0C252.81,188,252.81,189.45,251.29,190.32Z"/><path class="cls-14" d="M262.3,196.68l-32.66,18.86a6.06,6.06,0,0,1-5.5,0h0c-1.52-.87-1.52-2.3,0-3.18l32.65-18.86a6.08,6.08,0,0,1,5.51,0h0C263.82,194.38,263.82,195.8,262.3,196.68Z"/></g><path class="cls-15" d="M115,67.89v26c0,9.09-6.38,20.15-14.25,24.69l-3.32,1.92-7.91,19.06-7.91-9.91-3.33,1.92c-.32.18-.64.36-1,.51-3.55,1.79-6.75,1.85-9.12.48l-.19-.11c-2.47-1.53-4-4.68-4-9.12v-26c0-9.1,6.39-20.16,14.26-24.7l22.47-13c3.86-2.23,7.36-2.49,9.92-1.09l.16.09C113.43,60.15,115,63.34,115,67.89Z"/><path class="cls-16" d="M56.66,125.86c-2.58-1.49-4.17-4.69-4.17-9.23v-26c0-9.1,6.37-20.15,14.25-24.7L89.21,53c3.94-2.27,7.5-2.48,10.08-1l11.4,6.59c-2.56-1.4-6.06-1.14-9.92,1.09l-22.47,13C70.43,77.18,64,88.24,64,97.34v26c0,4.44,1.52,7.59,4,9.12Z"/><path class="cls-16" d="M81.63,129.62l7.91,9.91L78,132.85l-.63-.8c.32-.15.64-.33,1-.51Z"/><path class="cls-17" d="M97.64,85.1c-3-2.7-8.9-.55-13.15,4.79s-5.26,11.87-2.25,14.57c2.61,2.34,7.37,1,11.37-2.82l5.45,4.89c.63.56,1.88.07,2.8-1.08s1.15-2.55.53-3.1l-5.46-4.89C99.85,92.64,100.25,87.44,97.64,85.1ZM94.08,98.49c-3.22,4.06-7.69,5.69-10,3.64s-1.52-7,1.7-11.06,7.7-5.69,10-3.64S97.31,94.43,94.08,98.49Z"/><ellipse class="cls-2" cx="55.78" cy="140.33" rx="8.62" ry="4.98"/><path class="cls-2" d="M458.08,123.32c3.37,2,3.37,5.1,0,7.05a13.49,13.49,0,0,1-12.19,0c-3.37-2-3.37-5.1,0-7.05A13.49,13.49,0,0,1,458.08,123.32Z"/><path class="cls-18" d="M64.64,166.18,65.88,168a.43.43,0,0,0,.53.08l2.78-1.21c.58-.25.81.33.39,1l-2,3.13a1.06,1.06,0,0,0-.2.74l.47,2.5a1.32,1.32,0,0,1-1,1.32l-2.48.13a1,1,0,0,0-.66.38l-2.48,2.74c-.52.57-1.12.48-1-.15l.47-3.05c0-.25,0-.43-.2-.5l-2-.8c-.42-.17-.19-1,.39-1.42l2.78-2a1.57,1.57,0,0,0,.53-.69l1.24-3.24C63.64,166.24,64.38,165.81,64.64,166.18Z"/><path class="cls-18" d="M78.75,158l1.25,1.8a.39.39,0,0,0,.52.08l2.79-1.2c.57-.25.8.32.38,1l-2,3.13a1.09,1.09,0,0,0-.2.73L82,166a1.34,1.34,0,0,1-1,1.33l-2.49.13a1,1,0,0,0-.65.37l-2.49,2.75c-.51.57-1.12.48-1-.15l.48-3.05c0-.25,0-.44-.2-.5l-2-.8c-.41-.17-.18-1,.39-1.42l2.78-2a1.54,1.54,0,0,0,.53-.68l1.25-3.24C77.75,158.09,78.49,157.66,78.75,158Z"/><path class="cls-18" d="M92.87,149.88l1.24,1.8c.1.15.3.18.53.08l2.78-1.2c.57-.25.8.32.39,1l-2,3.12a1.13,1.13,0,0,0-.2.74l.48,2.5a1.34,1.34,0,0,1-1,1.33l-2.49.12a1,1,0,0,0-.65.38l-2.49,2.75c-.51.56-1.11.47-1-.15l.47-3c0-.25,0-.44-.2-.51l-2-.8c-.42-.16-.19-1,.39-1.42l2.78-2a1.5,1.5,0,0,0,.52-.69l1.25-3.24C91.87,149.93,92.61,149.5,92.87,149.88Z"/><path class="cls-19" d="M107,141.72l1.24,1.81a.43.43,0,0,0,.53.08l2.78-1.21c.58-.25.81.33.39,1l-2,3.13a1.06,1.06,0,0,0-.2.74l.47,2.5a1.32,1.32,0,0,1-1,1.32l-2.49.13a1,1,0,0,0-.65.38l-2.49,2.74c-.52.57-1.12.48-1-.15l.48-3c0-.25,0-.43-.21-.5l-2-.8c-.42-.17-.19-1,.39-1.42l2.78-2a1.57,1.57,0,0,0,.53-.69l1.24-3.24C106,141.78,106.72,141.35,107,141.72Z"/><path class="cls-19" d="M121.09,133.57l1.25,1.8c.1.15.3.18.53.08l2.78-1.2c.57-.25.8.32.39,1l-2,3.13a1.09,1.09,0,0,0-.2.73l.48,2.5a1.35,1.35,0,0,1-1,1.33l-2.49.13a1,1,0,0,0-.65.37l-2.49,2.75c-.51.57-1.11.48-1-.15l.48-3c0-.25,0-.44-.2-.5l-2-.8c-.41-.17-.18-1,.39-1.42l2.79-2a1.59,1.59,0,0,0,.52-.68l1.25-3.24C120.09,133.63,120.84,133.2,121.09,133.57Z"/><path class="cls-18" d="M272.15,23.78V45.26c0,7.52,5.27,16.66,11.78,20.42l2.75,1.59L293.22,83l6.54-8.2,2.75,1.59c.27.16.53.3.8.43,2.94,1.47,5.58,1.53,7.54.39l.15-.09c2.05-1.26,3.3-3.87,3.3-7.54V48.14c0-7.52-5.28-16.67-11.79-20.43L283.93,17c-3.19-1.84-6.09-2.05-8.2-.9l-.13.07C273.46,17.38,272.15,20,272.15,23.78Z"/><path class="cls-20" d="M320.41,71.72c2.13-1.23,3.45-3.87,3.45-7.63V42.61c0-7.51-5.27-16.66-11.78-20.42q-9.3-5.35-18.59-10.74c-3.25-1.88-6.2-2-8.33-.82q-4.73,2.71-9.43,5.45c2.11-1.15,5-.94,8.2.9l18.58,10.73C309,31.47,314.3,40.62,314.3,48.14V69.61c0,3.67-1.25,6.28-3.3,7.54Z"/><path class="cls-20" d="M299.76,74.83,293.22,83l9.56-5.52.53-.66c-.27-.13-.53-.27-.8-.43Z"/><path class="cls-21" d="M291.67,38.26a.64.64,0,0,0-.55-.09l-.55.23-3-1.73c-1.16-.66-2.14-.37-2.31.67L285,39.07l1.57.9.24-1.52c.05-.35.38-.44.77-.22l3.3,1.91a.64.64,0,0,0,.55.09L292,40l2.46,1.43.55.86a1.7,1.7,0,0,0,.55.55l3.31,1.91a1.71,1.71,0,0,1,.77,1.11l.23,1.8,1.57.9-.27-2a5,5,0,0,0-2.3-3.34l-3-1.72-.55-.87a1.58,1.58,0,0,0-.55-.54ZM283.91,40c-.42-.24-.77-.09-.77.33v1.56a1.64,1.64,0,0,0,.77,1.22l.13.07,1.21,7.94a3.32,3.32,0,0,0,1.53,2.18l12.88,7.44c.76.44,1.41.27,1.54-.41l1.2-6.54.13.07c.43.25.78.1.78-.32V52a1.62,1.62,0,0,0-.78-1.22Zm13.19,11.5a1.62,1.62,0,0,1,.78,1.23v3.88c0,.42-.35.57-.78.33a1.62,1.62,0,0,1-.78-1.23V51.81c0-.43.35-.57.78-.33Zm-3.88-2.24a1.62,1.62,0,0,1,.78,1.23v3.88c0,.42-.35.57-.78.32a1.58,1.58,0,0,1-.77-1.22V49.57c0-.43.34-.57.77-.33ZM289.34,47a1.62,1.62,0,0,1,.78,1.23v3.88c0,.42-.35.57-.78.32a1.6,1.6,0,0,1-.77-1.22V47.33c0-.43.35-.58.77-.33Z"/><path class="cls-22" d="M337.94,262.41l-49.43,28.53c-4.88,2.82-12.8,2.82-17.68,0l-90.77-52.4c-4.89-2.82-4.89-7.39,0-10.21l49.42-28.54c4.89-2.82,12.8-2.82,17.69,0l90.77,52.41C342.82,255,342.82,259.59,337.94,262.41Z"/><path class="cls-23" d="M352.64,289.64c-1.16-2.07-4.39-3.49-6.77-3.95a12.49,12.49,0,0,0-8.44,1.22c-1.71,1-2.57,2.13-2.57,3.41v1.45c0,1.75,1.72,3.07,3.23,3.94a13.48,13.48,0,0,0,8.33,1.53c2.32-.32,5.27-1.49,6.32-3.56a2.67,2.67,0,0,0,.29-1.18V291A2.88,2.88,0,0,0,352.64,289.64Zm-7-5.75,12.59,7.28,1.54-.9v-1.45L356.62,287l7.25.9,1.91-1.1v-1.46l-9.54-1.09c.08-3,.06-2.14.06-4l-2,1.15c0,1.83,0,.89,0,4.25l-7.17-4.13-1.54.89Zm26.13,15.77c-9.1,6-23.12,7-33.81,4.21-5.16-1.36-11-4-14.28-8.21-3.64-4.62-3.4-9.7,0-14,8.34-10.54,32.43-13.1,46.77-4.86h0a20.1,20.1,0,0,1,5.83,4.82C381.34,288.09,378.75,295.05,371.76,299.66Z"/><path class="cls-24" d="M314.65,287a20.08,20.08,0,0,0,5.85,4.83c9.85,5.65,24.51,6.29,35.41,2.48,4.19-1.46,8.59-3.87,11.34-7.34a11.15,11.15,0,0,0,2.63-7h0v7.52h0c0,6.1-5.46,10.62-11,13.15-10.5,4.79-25.37,4.79-35.89,0-5.55-2.54-11-7.05-11-13.13V280h0A11.29,11.29,0,0,0,314.65,287Z"/><polygon class="cls-25" points="356.76 276.64 356.76 278.1 354.85 279.19 354.85 277.74 356.76 276.64"/><polygon class="cls-25" points="354.85 277.74 354.85 279.19 347.6 278.3 347.17 278.05 347.17 276.79 354.85 277.74"/><polygon class="cls-25" points="350.74 280.11 350.74 281.57 349.2 282.46 349.2 281.01 350.74 280.11"/><polygon class="cls-25" points="349.2 281.01 349.2 282.46 336.61 275.19 336.61 273.73 349.2 281.01"/><path class="cls-26" d="M350.74,280.11l-1.54.9-12.59-7.28,1.54-.89,7.16,4.14s0,.33,0-4.25l2-1.16-.1,4c.77.07-2.69-.3,9.58,1.1l-1.91,1.1-7.68-.95,0,1.23Z"/><path class="cls-27" d="M343.62,280.94c-1.17-2.07-4.39-3.49-6.77-4a12.49,12.49,0,0,0-8.44,1.23c-1.71,1-2.57,2.13-2.57,3.4v1.46c0,1.74,1.72,3.06,3.23,3.94a13.48,13.48,0,0,0,8.33,1.52c2.32-.32,5.27-1.48,6.32-3.55a2.71,2.71,0,0,0,.29-1.19v-1.45A2.85,2.85,0,0,0,343.62,280.94Zm-7-5.75,12.59,7.27,1.54-.89v-1.46l-3.14-1.81,7.25.89,1.91-1.09v-1.46l-9.54-1.09c.08-3,.06-2.14.06-4l-2,1.16c0,1.83,0,.89,0,4.25l-7.16-4.14-1.54.89ZM362.74,291c-9.1,6-23.12,7-33.81,4.22-5.16-1.36-11-4-14.28-8.21-3.64-4.62-3.41-9.71,0-14,8.34-10.55,32.43-13.1,46.76-4.87h0a20.13,20.13,0,0,1,5.83,4.83C372.32,279.38,369.72,286.35,362.74,291Z"/><path class="cls-26" d="M341.78,282.61c.06-1.37-1.36-2.43-2.55-3.11a9.55,9.55,0,0,0-9.37-.47,3.07,3.07,0,0,0-1.83,2.46c-.06,1.29,1.67,2.44,2.78,3.08a9.48,9.48,0,0,0,9.19.35A3,3,0,0,0,341.78,282.61Zm2.23-.27c0,1.44-1.31,2.67-2.57,3.4a13.07,13.07,0,0,1-12.37-.19c-1.52-.87-3.23-2.19-3.23-3.94,0-1.27.86-2.41,2.57-3.4a13,13,0,0,1,12.55.3C342.38,279.33,344,280.69,344,282.34Z"/><path class="cls-27" d="M339.23,281a5.2,5.2,0,0,1,2.41,2.3c-.83,2.18-6.06,4.08-10.83,1.32a6,6,0,0,1-2.63-2.36C329.05,280,334.21,278,339.23,281Z"/><path class="cls-25" d="M341.77,282.37a1.86,1.86,0,0,1-.13.88,5.2,5.2,0,0,0-2.41-2.3c-5-2.9-10.18-1-11.05,1.26a1.56,1.56,0,0,1-.15-.72,3.07,3.07,0,0,1,1.83-2.46,9.55,9.55,0,0,1,9.37.47C340.86,280.43,341.7,281.39,341.77,282.37Z"/><path class="cls-25" d="M329.07,285.55a13,13,0,0,0,12.37.19c1.26-.73,2.57-2,2.57-3.4v1.45a2.71,2.71,0,0,1-.29,1.19c-1.05,2.07-4,3.23-6.32,3.55a13.48,13.48,0,0,1-8.33-1.52c-1.51-.88-3.23-2.2-3.23-3.94v-1.46C325.84,283.36,327.55,284.68,329.07,285.55Z"/><polygon class="cls-7" points="244.23 178.9 272.74 161.64 269.47 160.19 240.59 176.9 244.23 178.9"/><polygon class="cls-7" points="228.25 169.09 256.76 151.84 253.49 150.38 224.61 167.09 228.25 169.09"/><polygon class="cls-20" points="202.83 137.97 205.1 154.97 219.53 147.66 202.83 137.97"/><path class="cls-20" d="M196.41,79.9v47.65c1.27.74,28.75,16.48,28.75,16.48l10.71-5.82.76-47.35V56.68Z"/><path class="cls-7" d="M194.54,15.27h0A26.77,26.77,0,0,1,204,29.77q2.74,11.22,5.48,22.44L214,49.59l-5.13-21A31.71,31.71,0,0,0,197.51,11.2h0l-8.62-6.29h0c-7.53-5.59-20.22-6.59-28-2h0L141.54,14.06,122.21,25.22h0c-4,2.24-6.76,6.1-6.53,10.61.21,4.13,2.87,7.71,6.18,10.09,0,0,0,0,0,0h0l8.62,6.3a26.79,26.79,0,0,1,9.42,14.5h0q3.48,14.23,7,28.46s.16,0,.2,0a10.36,10.36,0,0,1,2.12.32,4.16,4.16,0,0,0,1.86.27c.62-.2.84-1.15.68-1.86-.12-.49-.23-1-.35-1.47L144.8,65.56a31.81,31.81,0,0,0-11.34-17.38h0l-8.62-6.3h0c-2.49-1.79-4.66-4.64-4-7.61a7.62,7.62,0,0,1,3.91-4.68h0q9.66-5.6,19.34-11.17L163.4,7.25h0c5.89-3.48,16.38-2.84,22.5,1.71h0Z"/><path class="cls-7" d="M164.36,91.65l-3,1.73,1.74,14.93h0l3.43,2Q165.44,101,164.36,91.65Z"/><path class="cls-7" d="M170.29,141.16l-3.53-2a16.59,16.59,0,0,0,4.29,7.76C170.8,145,170.54,143.06,170.29,141.16Z"/><path class="cls-7" d="M179,105.83l-10.08,5.82,5.82,3.36,4.26-2.46Z"/><path class="cls-7" d="M169,131.06q-.8-5.91-1.58-11.83l-2.81,1.62q.65,5.52,1.28,11l3.48,2C169.2,132.94,169.07,132,169,131.06Z"/><path class="cls-7" d="M175.51,156.27h0a3,3,0,0,0,.73,1.72,2.26,2.26,0,0,0,2.47.13c4.45-2.51,3.26-1.83,5.5-3.12l-9.61-5.55C174.9,151.72,175.21,154,175.51,156.27Zm24.72,4.31V161l2.67,1.54c.16,1.17.31,2.33.47,3.5l-16-9.23-3.61,2.09a25.31,25.31,0,0,1-5.08,2.52,4.15,4.15,0,0,1-.58.1c-3.05.4-5.35-1.62-5.76-4.85h0q-.65-4.91-1.31-9.81c-.25-1.91-.51-3.82-.76-5.72l3.47,2h0c.1.72.2,1.44.29,2.17a8.8,8.8,0,0,0,1.13.79h0l12.21,7,1.85-1.07,3.18,1.83L190.56,155Z"/><path class="cls-7" d="M170.36,137.59a2.61,2.61,0,0,0,2-.61c.27-.19.52-.43.48-.67l-.06-.43q-1.09-8.25-2.2-16.52l-3.47-2c.08.62.17,1.25.25,1.87q.8,5.92,1.58,11.83c.12.94.25,1.88.37,2.82s.25,1.89.38,2.84a.09.09,0,0,0,0,.05A1,1,0,0,0,170.36,137.59Z"/><path class="cls-18" d="M179,124.18v15.25l17.46,10.09V134.27Z"/><path class="cls-18" d="M179,112.55v4.92l17.46,10.08V79.9L179,69.82v42.73Z"/><polygon class="cls-18" points="178.95 69.82 196.41 79.9 236.63 56.68 219.16 46.6 213.98 49.59 209.44 52.21 178.95 69.82"/><polygon class="cls-18" points="180.94 69.82 219.16 47.75 234.63 56.68 196.41 78.75 180.94 69.82"/><path class="cls-28" d="M184.23,238.42h0l3.82-2.21a3.88,3.88,0,0,0,1.41-1.46c1-1.67.87-4.07.44-6l-4.25-2.45.06,3.79h0C186.92,234.17,186.13,237.21,184.23,238.42Z"/><path class="cls-29" d="M171.51,225.18a16.43,16.43,0,0,0,6.92,12.5c2.32,1.51,4.37,1.64,5.8.74,1.9-1.21,2.69-4.25,1.48-8.3l.06,3.13-.59.35L172,226l-.06-3.44A7.47,7.47,0,0,0,171.51,225.18Z"/><path class="cls-20" d="M186.55,222.1a3.22,3.22,0,0,1,2.14-1.18,1.43,1.43,0,0,1,.64.18h0l-13.18-7.61a1.66,1.66,0,0,0-1.44,0,2.52,2.52,0,0,0-.29.12,5.56,5.56,0,0,0-2.56,4.45v.3l.07,4.19L172,226l13.18,7.6-.13-7.93A5.53,5.53,0,0,1,186.55,222.1Z"/><path class="cls-30" d="M188.69,220.92a3.22,3.22,0,0,0-2.14,1.18,5.53,5.53,0,0,0-1.5,3.57l.13,7.93.59-.35-.06-3.13h0l-.06-3.79,0-1.46a3.27,3.27,0,0,1,.28-1.06,4,4,0,0,1,2-2.12,1.17,1.17,0,0,1,1,0h0l1.07.62a1.73,1.73,0,0,0-.39-1,1.06,1.06,0,0,0-.33-.26A1.43,1.43,0,0,0,188.69,220.92Z"/><path class="cls-20" d="M196.41,134.27v15.25l3.82,2.2v-9.24l-.87-6.51Z"/><path class="cls-20" d="M200.23,142.48v9.24l1.33.77h0C201.12,149.15,200.67,145.82,200.23,142.48Z"/><path class="cls-20" d="M222.81,193.14v3.52L236,204.27v-8a4.54,4.54,0,0,1-2-4.09h0c0-1.35,0-2.7,0-4l-7-4a1.65,1.65,0,0,0-1.44,0l-.28.13a5.55,5.55,0,0,0-2.57,4.39v4.54Z"/><path class="cls-7" d="M208.48,176.61c.81.78,2.21.34,3.17-.23h0l4.79-2.77-9.61-5.55q.47,3.42.91,6.82h0A2.91,2.91,0,0,0,208.48,176.61Zm14.71-2.77q5.44,3.14,10.88,6.28h0c0,1.22,0,2.44,0,3.66l-14.43-8.33-6.38,3.68c-4.19,2.45-8.1.54-8.65-3.83h0l-1.23-9.24c-.16-1.17-.31-2.33-.47-3.5-.12-.93-.25-1.86-.37-2.79l3.47,2c.13.93.25,1.86.38,2.8l16.43,9.49Z"/><path class="cls-28" d="M238.89,206.85a3.88,3.88,0,0,0,1.35-1.35c1-1.72.94-4.25.47-6.21l-4.14-2.39v3.93c1.2,4.1.36,7.16-1.62,8.3h0l4-2.27Z"/><path class="cls-30" d="M236.57,196.52a3.92,3.92,0,0,1-.58-.29v8l.58-.34v-7.41Z"/><path class="cls-29" d="M236.57,203.93l-.58.34-13.18-7.61v-3.52a7.43,7.43,0,0,0-.46,2.69,16.44,16.44,0,0,0,6.9,12.49c2.26,1.48,4.28,1.64,5.7.81,2-1.14,2.82-4.2,1.62-8.3Z"/><path class="cls-20" d="M240.26,191.67l-3-1.76v2.23h0v.07a2.72,2.72,0,0,0,.08.67,4,4,0,0,1,1.84-1.32A1.6,1.6,0,0,1,240.26,191.67Z"/><path class="cls-7" d="M240,192.34a1.1,1.1,0,0,0-.93-.11,3.11,3.11,0,0,0-1.54,1.12.39.39,0,0,0,.08.1.69.69,0,0,0,.5.19,4.45,4.45,0,0,0,2.26-.71h0l.33-.19-.7-.41Z"/><path class="cls-7" d="M240,257.37a5.56,5.56,0,0,1,2.56-4.44l.29-.13h0l-52.75-30.45-1.07-.62h0a1.17,1.17,0,0,0-1,0,4,4,0,0,0-2,2.12,3.27,3.27,0,0,0-.28,1.06l0,1.46,4.25,2.45,50,28.9Z"/><path class="cls-7" d="M234,192.14h0c0-1.35,0-2.7,0-4s0-2.86,0-4.3c0-1.22,0-2.44,0-3.66,0-.72,0-1.42,0-2.14l3.17,1.83c0,.72,0,1.43,0,2.14l11,6.38,1.86-1.07a14.07,14.07,0,0,0,3.91,1.41l-2.59,1.49,14.19,8.2h0c1,.57,2.38,1,3.18.22a2.94,2.94,0,0,0,.73-1.71h0l.75-5.57c.34-2.51.67-5,1-7.53h0l3.48-2q-.63,4.62-1.24,9.23-.44,3.15-.85,6.3h0c-.57,4.41-4.51,6.24-8.65,3.82h0L248.29,192l-4.45,2.57-1.92,1.1h0c-2.07,1.21-3.95,1.41-5.35.85a3.92,3.92,0,0,1-.58-.29A4.54,4.54,0,0,1,234,192.14Zm6.89.44,4.19-2.42-7.88-4.55c0,1.44,0,2.87,0,4.3v2.23h0v.07a2.72,2.72,0,0,0,.08.67,1.22,1.22,0,0,0,.19.45.39.39,0,0,0,.08.1.69.69,0,0,0,.5.19,4.45,4.45,0,0,0,2.26-.71h0l.33-.19Z"/><path class="cls-30" d="M237.49,193.35a3.11,3.11,0,0,1,1.54-1.12,1.1,1.1,0,0,1,.93.11h0l.7.41.27-.16a1.57,1.57,0,0,0-.65-.9h0a1.6,1.6,0,0,0-1.12-.09,4,4,0,0,0-1.84,1.32A1.22,1.22,0,0,0,237.49,193.35Z"/><path class="cls-7" d="M242.61,73.07c-.59,5.12-4.15,39.32-4.74,44.44l2.91,1.81c.45-3.88,4.38-40.63,4.83-44.52Z"/><path class="cls-28" d="M252.51,278h0q2-1.12,3.94-2.27c1.62-.93,2.17-2.93,2.17-4.78a13.33,13.33,0,0,0-.81-4.32,11.41,11.41,0,0,1-4.08-1.05h0l.05,3.08a13.32,13.32,0,0,1,.9,4.57C254.68,275.68,253.79,277.23,252.51,278Z"/><path class="cls-29" d="M240,263.12c-.91,4.86,2.82,12,7.63,14.55a6.4,6.4,0,0,0,2.81.8,3.92,3.92,0,0,0,2-.5c1.28-.74,2.17-2.29,2.17-4.77a13.32,13.32,0,0,0-.9-4.57l.07,3.93-.59.35-13.18-7.61Z"/><path class="cls-7" d="M253.73,265.55a11.41,11.41,0,0,0,4.08,1.05c5.12.26,9-3.69,8.94-10.06h0v-.37h0c0-6.3-3.69-13.55-8.47-17.77h0l-67.93-60.24c-4-3.52-6.59-9.34-6.57-13.54h0v-5.68a25.31,25.31,0,0,1-5.08,2.52,4.15,4.15,0,0,1-.58.1v3.06h0c0,5.89,3.33,13.25,8.48,17.77h0l67.93,60.24c3.92,3.45,6.59,9.25,6.56,13.54h0v.39h0c0,1.65-.43,3.91-2.09,4.32a3,3,0,0,1-1.08.06,5,5,0,0,1-1.24-.29h0a4.74,4.74,0,0,0-2.88,3.29,3.51,3.51,0,0,0-.08.71l0,.92Z"/><path class="cls-30" d="M257.92,260.93a1.41,1.41,0,0,0-.5-.53l-.22-.11a1.82,1.82,0,0,0-1.29.14,4.15,4.15,0,0,0-1.69,1.5,5.28,5.28,0,0,0-1.09,3.05l.13,7.93.59-.35-.07-3.93-.05-3.08,0-.92a3.51,3.51,0,0,1,.08-.71,4.74,4.74,0,0,1,2.88-3.29h0A5,5,0,0,0,257.92,260.93Z"/><path class="cls-20" d="M257.2,260.29l.22.11h0l-13.18-7.62a1.73,1.73,0,0,0-1.44,0h0l-.29.13a5.56,5.56,0,0,0-2.56,4.44v.31l.09,5.44,0,2.18,13.18,7.61-.13-7.93a5.28,5.28,0,0,1,1.09-3.05,4.15,4.15,0,0,1,1.69-1.5A1.82,1.82,0,0,1,257.2,260.29Z"/><path class="cls-7" d="M272.41,115a.94.94,0,0,1-.18-.64,0,0,0,0,1,0,0c.05-.49.11-1,.17-1.48-1.36-.78-29.92-16-31.27-16.76v4.36l25.43,14.16a61.88,61.88,0,0,1,6.63,1l0-.2A1.08,1.08,0,0,1,272.41,115Z"/><path class="cls-7" d="M273.2,115.55a28,28,0,0,1,7.12,1.86l-4.92-2.84v.11h0s0,.09-.11.14a3.41,3.41,0,0,1-.33.17,4.11,4.11,0,0,1-1.72.36Z"/><path class="cls-7" d="M275.4,114.57q1.23-10.57,2.44-21.16l-3-1.73q-1.23,10.59-2.44,21.16c-.06.49-.12,1-.17,1.48a0,0,0,0,0,0,0,.94.94,0,0,0,.18.64,1.08,1.08,0,0,0,.82.37A4.11,4.11,0,0,0,275,115a3.41,3.41,0,0,0,.33-.17c.07,0,.11-.09.11-.14h0Z"/><path class="cls-7" d="M288.52,165.11v2l2.83-1.64.3-2.19Z"/><path class="cls-7" d="M290.89,227.9a5.56,5.56,0,0,1,2.58-4.39,2.21,2.21,0,0,1,.27-.12h0l-49.9-28.81-1.92,1.1h0c-2.07,1.21-3.95,1.41-5.35.85v.38l4.14,2.39,50.18,29Z"/><path class="cls-7" d="M299.05,154.26a15,15,0,0,1-3.85,6.46c-.13.92-.25,1.85-.38,2.77l4.33-2.5h0a17.4,17.4,0,0,0,3-6h0c1.07-4.26,2.14-8.54,3.2-12.81q-1.92,1.09-3.82,2.21Z"/><path class="cls-28" d="M307.29,246.34c1.6-.91,2.16-2.89,2.16-4.77a12.12,12.12,0,0,0-.45-3.2c-.11-.4-.23-.8-.37-1.19a11.93,11.93,0,0,1-4-1v3.22a13.29,13.29,0,0,1,.86,4.48c0,2.48-.88,4-2.16,4.78h0q2-1.12,3.94-2.27Z"/><path class="cls-29" d="M290.89,233.74c-.94,4.91,2.85,12.14,7.68,14.6a6.24,6.24,0,0,0,2.8.78,3.94,3.94,0,0,0,2-.5c1.28-.74,2.16-2.3,2.16-4.78a13.29,13.29,0,0,0-.86-4.48v3.88l-.58.34L290.89,236Z"/><path class="cls-7" d="M274.38,185.44c8.83,7.83,22.25,19.92,31.09,27.76,3.92,3.45,6.59,9.25,6.57,13.54h0v.39h0c0,1.67-.45,3.92-2.1,4.33a3,3,0,0,1-1.08.06,5.75,5.75,0,0,1-1.27-.3h0a4.9,4.9,0,0,0-2.32,2,4,4,0,0,0-.62,2v1a11.93,11.93,0,0,0,4,1H309c5,.12,8.72-3.79,8.67-10.06h0v-.37h0c0-6.39-3.77-13.63-8.47-17.77h0l-20.5-18.18a6.16,6.16,0,0,1-5.59-.66h0c-.7-.41-6.2-8.81-6.91-9.22l-1.38.86C274.15,182.06,275.06,185.19,274.38,185.44Z"/><path class="cls-7" d="M306,133.89a5.31,5.31,0,0,0,1.3-.38c.09,0,.24-.12.26-.21h0l0-.13q2.46-9.87,4.93-19.73l-2.87-1.65-4.92,19.72c-.1.42-.21.83-.31,1.25h0a.87.87,0,0,0,.72,1.13A2.42,2.42,0,0,0,306,133.89Z"/><path class="cls-7" d="M307.29,133.51a5.31,5.31,0,0,1-1.3.38,2.42,2.42,0,0,1-.85,0,.87.87,0,0,1-.72-1.13h0c.1-.42.21-.83.31-1.25L284.81,120c2.5,2-41.4-25.3-41.49-22.84,0,.65-.73,3.7-.73,4.36,4.72,2.72,55.36,32.78,60.07,35.5l5.82-3.36-.89-.51,0,.13h0C307.53,133.39,307.38,133.47,307.29,133.51Z"/><path class="cls-30" d="M306.87,231a4,4,0,0,0-1.69,1.48,5.36,5.36,0,0,0-1.11,3v8.06l.58-.34v-8.06a4,4,0,0,1,.62-2,4.9,4.9,0,0,1,2.32-2h0a5.75,5.75,0,0,0,1.27.3,1.41,1.41,0,0,0-.5-.53,1,1,0,0,0-.21-.1A1.78,1.78,0,0,0,306.87,231Z"/><path class="cls-20" d="M308.36,231l-13.18-7.61a1.69,1.69,0,0,0-1.44,0,2.21,2.21,0,0,0-.27.12,5.56,5.56,0,0,0-2.58,4.39V236l13.18,7.61v-8.06a5.36,5.36,0,0,1,1.11-3,4,4,0,0,1,1.69-1.48,1.78,1.78,0,0,1,1.28-.12,1,1,0,0,1,.21.1Z"/><path class="cls-7" d="M308.48,140.39l3.45,2c.19-1.44.39-2.88.58-4.32Z"/><path class="cls-30" d="M308.63,237.18c.14.39.26.79.37,1.19h0v-1.18Z"/><path class="cls-7" d="M310.93,155.82c.71.44,1.72.8,2.23.14a1.19,1.19,0,0,0,.21-.47s0-.08,0-.13c.12-.94.25-1.87.37-2.81.39-2.81.76-5.63,1.14-8.45l.84-6.24c.09-.6.17-1.2.25-1.8l-3.48,2c-.19,1.44-.39,2.88-.58,4.32q-.82,6.09-1.64,12.18c0,.16,0,.32-.07.49h0a.69.69,0,0,0,.27.45A4.35,4.35,0,0,0,310.93,155.82Z"/><path class="cls-31" d="M260.53,86.05,253,90.43c0-1.83,0-3.65,0-5.48Z"/><path class="cls-32" d="M252.82,96.41a1.35,1.35,0,0,1,.65-.28,1,1,0,0,1,.87.29,1.91,1.91,0,0,1,.23,1.53A6.63,6.63,0,0,0,252.82,96.41Z"/><path class="cls-33" d="M251,80.56c1.08,2.5,1.66,3.85,1.91,4.39,0,1.83,0,3.65,0,5.48-.8.47-1.6.92-2.4,1.38C250.88,84,250.92,83.38,251,80.56Z"/><path class="cls-32" d="M252.56,100.29a.9.9,0,0,1-.95-.52,1.57,1.57,0,0,0,.43-.15A3.43,3.43,0,0,1,252.56,100.29Z"/><path class="cls-32" d="M251.61,99.77a1.59,1.59,0,0,1-.15-.68,3.44,3.44,0,0,1,.58.53A1.57,1.57,0,0,1,251.61,99.77Z"/><path class="cls-34" d="M251.33,97c1-1.86,3.21-2.9,4-.92a4,4,0,0,1-.22,2.55h0a6.34,6.34,0,0,0-.51-.73c.2-.88,0-1.8-.95-1.85a.25.25,0,0,0-.15,0,1.35,1.35,0,0,0-.65.28,3.3,3.3,0,0,0-1.36,2.69c0,.93.59,1.27,1.1,1.19.1.21.14.19.44.84C250.92,102.08,249.86,99.76,251.33,97Z"/><path class="cls-31" d="M251,80.56c-.11,2.83-.15,3.52-.48,11.25q-15.41,8.89-30.82,17.79c-.53-1.22-1.79-4.14-1.89-4.39l-7.6-1.09Z"/><path class="cls-35" d="M250.66,99.55a1.76,1.76,0,0,0,.84,1.66c-.34-.17-.67-.35-1-.51a1.2,1.2,0,0,1-.37-.31c-.87-1.06-.43-2.75.31-4A3.85,3.85,0,0,1,252,94.82a1.82,1.82,0,0,1,1.61-.14c.31.14.59.31.89.46-.73-.3-2.18.16-3.13,1.9A4.87,4.87,0,0,0,250.66,99.55Z"/><path class="cls-32" d="M233.64,107.45a1,1,0,0,1,.84.27,1.79,1.79,0,0,1,.25,1.51c-.2-.23-.41-.45-.64-.67-.51-.45-.21-.11-.35-.8A1.6,1.6,0,0,0,233.64,107.45Z"/><path class="cls-32" d="M234,108.57a11.14,11.14,0,0,0-1-.85,1.17,1.17,0,0,1,.67-.27A3.42,3.42,0,0,1,234,108.57Z"/><path class="cls-36" d="M233,107.72a7.64,7.64,0,0,1,2.19,2l.1.15s0,0,0,0c2.52,3.39,3.75,10.83,6.56,12.55a2.66,2.66,0,0,0,2,.28,7.3,7.3,0,0,0,2-.81s0,0,0,0a13,13,0,0,0,1.69-1.15c7-5.49,8.08-18.46,3.87-21.7a3.33,3.33,0,0,1,1.19-2.56c.21-.15.13-.13.25-.07,6,3.6,5.57,19-3.08,26.39-2.26,1.93-5.58,3.67-8.43,2.72-5.65-1.76-6.08-12.44-9.79-15.17A3.41,3.41,0,0,1,233,107.72Z"/><path class="cls-32" d="M232.77,111.6a1,1,0,0,1-1-.52,1.08,1.08,0,0,0,.47-.17A7.05,7.05,0,0,1,232.77,111.6Z"/><path class="cls-32" d="M232.21,110.91a1,1,0,0,1-.47.17,1.56,1.56,0,0,1-.14-.68A3.85,3.85,0,0,1,232.21,110.91Z"/><path class="cls-31" d="M263.14,85.63c-27.23,15.71-34.65,20-44.13,25.48l2.64,55.8,44.12-25.47ZM252,120.55a16.19,16.19,0,0,1-4.5,3.92,10.93,10.93,0,0,1-3.74,1.34c-6.81.73-7.93-9.1-10.53-13.43a1.83,1.83,0,0,1-1.47.2.4.4,0,0,1-.16-.08h0l-1-.5a1.68,1.68,0,0,1-.85-1.69,5,5,0,0,1,2.06-4,1.68,1.68,0,0,1,1.87-.31l1,.52v0c1.06.39,1,2.24.53,3.38,0,0,0,0,0,0,1.89,2.55,3.05,7.39,4.82,10.56,1.1,1.86,2.25,2.81,4.29,2.13a13,13,0,0,0,6.38-5.38c3.44-5.37,3.89-12.49,2.25-16.11-1.07.49-1.37.12-2.51-.43a1.2,1.2,0,0,1-.37-.31c-.87-1.06-.43-2.75.31-4A3.85,3.85,0,0,1,252,94.82a1.82,1.82,0,0,1,1.61-.14c.31.14.59.31.89.46a1.66,1.66,0,0,1,.85,1,4,4,0,0,1-.22,2.55h0l.1.15C258.39,104.09,257,114.57,252,120.55Z"/><path class="cls-34" d="M233.6,106.45a1.71,1.71,0,0,1,1.46.29c.73.67.6,2.2.2,3.18a5.3,5.3,0,0,0-.53-.69,1.82,1.82,0,0,0-.25-1.51,1,1,0,0,0-.84-.27,1.53,1.53,0,0,0-.89.43,3.12,3.12,0,0,0-1,3.2,1,1,0,0,0,1,.52,6,6,0,0,1,.5.78c-1.69.92-2.94-.47-2.38-2.48A4.56,4.56,0,0,1,233.6,106.45Z"/><path class="cls-35" d="M232.33,107.25a5.2,5.2,0,0,0-1.44,2.65,3.09,3.09,0,0,0,0,1.51,1.81,1.81,0,0,0,.77,1.09h0l-1-.5a1.68,1.68,0,0,1-.85-1.69,5,5,0,0,1,2.06-4,1.68,1.68,0,0,1,1.87-.31l1,.52v0a1.9,1.9,0,0,0-1.13-.09A2.59,2.59,0,0,0,232.33,107.25Z"/><polygon class="cls-33" points="219.01 111.11 221.65 166.91 216.73 160.14 216.73 105.85 219.01 111.11"/><path class="cls-37" d="M216.73,105.85l-9.1-1.32,44.13-25.47L254,84.31l9.11,1.32c-27.23,15.71-34.65,20-44.13,25.48Zm-6.49-1.73,7.6,1.09c.1.25,1.36,3.17,1.89,4.39l40.8-23.55L252.94,85c-.24-.53-.61-1.38-1.91-4.39Z"/><polygon class="cls-31" points="216.73 105.85 216.73 160.14 205 157.31 207.63 104.53 216.73 105.85"/><path class="cls-38" d="M281.06,132.72c-7.74-.9-15.82-2.17-15.82-2.17l-2.1-44.92s-20.27,11.78-27.68,15.93c-3.06,1.7-6,3.7-9.37,4.89.26-.65,3.15-2.34,3.15-2.34l21.31-12.3,2.4-1.38S251.19,81,251,80.56l-40.79,23.56c.4-.09,7.27,1.52,9.49,5.48,1.79,3.19,1.35,10.17.7,22.28a2.61,2.61,0,0,1-3,2.44c-2.42-.39-2.31,1.57-2.31,1.57l1.62.49,4.49,19.73.43,10.8s21.48,3.85,28.23,3.56A22.75,22.75,0,0,0,262,166.66c1.87-1.27,3.35-2.82,3.41-5.26,2.11-1.23,4.15-2.45,6.21-3.62,4.91-2.8,9.47-6.31,15.25-7.31a5.29,5.29,0,0,0,1.11-.4,3.27,3.27,0,0,0,2.27-2.14c.08-.25.23-1.72.38-3.64A10.83,10.83,0,0,0,281.06,132.72Zm-46.57,34.61c1.74-.71,7.67-1.14,11.76-.71C242.5,168.09,238.7,169.05,234.49,167.33Zm20.32-54.67a9.62,9.62,0,0,1-.29-1.57,39.37,39.37,0,0,0-1.43-10.84,2.25,2.25,0,0,1,.83-2.84,13.31,13.31,0,0,1,2,2.89C256.55,104.58,256.54,108.44,254.81,112.66Z"/><path class="cls-39" d="M224.42,106.6h0l-1,.57C223.74,106.23,224.12,105.66,224.42,106.6Z"/><path class="cls-40" d="M222.59,136.57a.43.43,0,0,1-.1.24.51.51,0,0,1-.45.17c-7.27-1.13-6.84-1-6.93-1.09a.35.35,0,0,1-.21-.22c-.32-1.26-.67-5.82-.76-7.13a79.38,79.38,0,0,1,.68-18.67,22.55,22.55,0,0,1,1.21-4.7c.2-.38.46-.7.88-.63,7.46,1.15,7,1,7.2,1.24a1.62,1.62,0,0,1,.37.78l-.06,0c-.41-1.28-.93.22-1.28,1.52a51.21,51.21,0,0,0-1.15,6.81A93.36,93.36,0,0,0,222.59,136.57Z"/><polygon class="cls-15" points="289.29 115.21 289.29 123.27 285.1 119.23 289.29 115.21"/><path class="cls-41" d="M287.24,115.88l-3.48,3.35c0,1.13,0,2.25,0,3.37H240.69c0-1.12,0-2.24,0-3.37l-3.48-3.35Z"/><path class="cls-15" d="M287.24,122.6h-3.47c0-1.12,0-2.24,0-3.37Z"/><path class="cls-42" d="M276.63,130c0-.32,0-.46,0-.67,0-1.22.06-1.34-.08-1.64a1.09,1.09,0,0,0-.32-.41A1.52,1.52,0,0,1,276.63,130Z"/><path class="cls-43" d="M272.43,128.71a2.93,2.93,0,0,1,4-2.29,2.51,2.51,0,0,1,1.89,2.31,2.58,2.58,0,0,1-1.71,2.27s.05-.67.05-1a1.71,1.71,0,0,0,.56-.69c.62-1.44-1.23-2.7-2.68-2h0c-1.26.63-1.43,1.94-.48,2.68,0,.1,0,.68,0,1A2.5,2.5,0,0,1,272.43,128.71Z"/><path class="cls-44" d="M274.07,126.51a2.7,2.7,0,0,0-1.64,2.2v-.62a2.48,2.48,0,0,1,1-1.85,3.35,3.35,0,0,1,4,0,2.46,2.46,0,0,1,.94,1.82v.65C278.25,126.75,275.79,125.73,274.07,126.51Z"/><path class="cls-41" d="M235.18,123.27v48.94h54.11V123.27Zm43.11,5.46a2.58,2.58,0,0,1-1.71,2.27c-.28,5.07-1.73,10.72-5.64,13.9a12.91,12.91,0,0,1-10.68,2.29c-7.47-1.59-10-8.63-10.48-16.33a2.56,2.56,0,0,1-1.69-2.25V128a2.53,2.53,0,0,1,1-1.84,3.39,3.39,0,0,1,4,0A2.5,2.5,0,0,1,254,128v.65a2.47,2.47,0,0,1-1.56,2.2,28.71,28.71,0,0,0,.68,5c.84,3.72,2.83,7.37,6.47,8.53a11.35,11.35,0,0,0,8.25-.44c3.65-1.83,5.21-6,5.88-10.07,0-.1.3-2.09.3-2.85a2.5,2.5,0,0,1-1.54-2.2v-.65a2.48,2.48,0,0,1,1-1.85,3.35,3.35,0,0,1,4,0,2.46,2.46,0,0,1,.94,1.82Z"/><path class="cls-42" d="M252.32,128a1.08,1.08,0,0,0-.45-.87,1.81,1.81,0,0,1,1.11,1.49,1.57,1.57,0,0,1-.63,1.21C252.34,129.69,252.32,128.13,252.32,128Z"/><path class="cls-45" d="M274.05,129.25v-.08a.57.57,0,0,1,0,.13C274,129.78,274,129.37,274.05,129.25Zm-24.32-.06c0-1.22,0-1.31.09-1.62a1.33,1.33,0,0,1,.29-.41,2.08,2.08,0,0,1,1.76,0,1.06,1.06,0,0,1,.45.89,33.07,33.07,0,0,0,.75,7.76c1.18,5.19,4.11,8.86,9.38,9.08,5.46.32,9.82-2.53,11.22-11.06,0-.12.26-1.71.3-2.83,0-.09,0-.71,0-1a1.54,1.54,0,0,1-.61-1.22,2,2,0,0,1,2.68-1.5l.16.06a1.09,1.09,0,0,1,.32.41c.14.31.08.43.08,1.64a30.56,30.56,0,0,1-1.4,8.95c-1.73,5.19-5.29,8.68-10.79,9.14C254,148.28,249.73,139.6,249.73,129.19Z"/><path class="cls-42" d="M250.11,127.16a1.15,1.15,0,0,0-.39.8c0,.6,0,1.32,0,1.9h0A1.53,1.53,0,0,1,250.11,127.16Z"/><path class="cls-43" d="M248.09,128.61a2.57,2.57,0,0,1,1.92-2.33,2.92,2.92,0,0,1,3.94,2.33,2.47,2.47,0,0,1-1.56,2.2l0-.66c0-.48-.09-.19.25-.57a1.57,1.57,0,0,0,.37-1,1.81,1.81,0,0,0-1.11-1.49c-1.44-.66-3.28.64-2.68,2a1.78,1.78,0,0,0,.55.69h0c0,.74,0,.9,0,1A2.57,2.57,0,0,1,248.09,128.61Z"/><path class="cls-44" d="M248.09,128a2.53,2.53,0,0,1,1-1.84,3.15,3.15,0,0,1,2-.64A2.71,2.71,0,0,1,254,128v.65a2.66,2.66,0,0,0-1.61-2.21c-1.75-.83-4.2.23-4.25,2.21Z"/><path class="cls-15" d="M240.7,119.23c0,1.13,0,2.25,0,3.37h-3.47C241,118.94,240.26,119.68,240.7,119.23Z"/><polygon class="cls-15" points="239.36 119.23 235.18 123.27 235.18 115.21 239.36 119.23"/><path class="cls-46" d="M237.22,122.6h50l-3.48-3.37,3.48-3.35h-50l3.48,3.35C240.23,119.71,241.07,118.87,237.22,122.6Zm-2,.67,4.18-4-4.18-4h54.11l-4.19,4,4.19,4Z"/><g class="cls-47"><path class="cls-48" d="M235.18,151.05c0-.34,0-5,0-10.27v11.56C235.18,151.9,235.17,151.48,235.18,151.05Z"/></g><path class="cls-4" d="M310.52,168a43.61,43.61,0,0,0,1.87-5.69c-3.48-.19,3.35.2,0,0-2.36-.14-4.85.14-6.65-2a2.27,2.27,0,0,0-1.18-.5,32.32,32.32,0,0,0-4.54-.92c-2.75-.2-5.53-.14-8.3-.22-.65,0-2.54-.36-2.54-.36s.29-31.09.11-35H235.18s0,27.43,0,27.78,0,.85,0,1.29c0,1.16.08,2.32,0,3.52v8.39c0,.87,0,1.74,0,2.6v2.75a26.42,26.42,0,0,0,.21,3.19c1.13,0,2.15.1,3.17.1,12.89,0,25.78,0,38.67,0a241.58,241.58,0,0,0,25.09-.85,6.47,6.47,0,0,1,1.36.19,9.74,9.74,0,0,1-5.55,1.49c-12.27.22-13.47.12-14.78.29-.25,0-.46.35-.75.59.88.76,1.76.51,2.58.51,3.72,0,7.43,0,11.16,0a40.26,40.26,0,0,0,4.4-.2c2.14-.28,4.39-.52,6-2.16a2.9,2.9,0,0,1,2.25-.94c11.91-.56-3.89.53,0,0C307.57,170.44,311.61,169.1,310.52,168Zm-62.23-40.53c1.91-2.31,3.24-2.38,5.39-.24A4.91,4.91,0,0,0,248.29,127.47Zm28.37,2.78c-.75,2.92-1.42,5.87-2.33,8.73a11.74,11.74,0,0,1-4.33,6.27,9.89,9.89,0,0,1-6.73,1.92c.12-1.87.11-1.94,1.66-2.13a8.51,8.51,0,0,0,7.14-5.28,32.9,32.9,0,0,0,1.8-5.89,37,37,0,0,0,.47-4.36c0-.25,0-.62.14-.74.35-.32.81-.74,1.21-.71s.81.53,1,.92A2.2,2.2,0,0,1,276.66,130.25Zm-3-3.52c1.38-1.32,2.36-1.33,4,0Zm23,34.62c-2.25,0-4.62.33-7.22-.9,4.75-.86,11.19-.4,14.19,1C301.17,162.26,298.93,161.35,296.71,161.35Z"/><path class="cls-7" d="M202.6,156.2a2.58,2.58,0,0,0,2-.6c.2-.15.48-.38.49-.62h0c0-.16,0-.32-.07-.47q-1.09-8.26-2.2-16.53l-3.47-2,.87,6.51c.44,3.34.89,6.67,1.33,10,.13.95.26,1.91.38,2.86v0A1,1,0,0,0,202.6,156.2Z"/><path class="cls-7" d="M237.26,173.57v-.47c0-2.46,0-4.93,0-7.39,0-2.62,0-5.22,0-7.84L234.13,156c0,3.84,0,7.67,0,11.5,0,1.24,0,2.49,0,3.73,0,.84,0,1.69,0,2.53h0a1.09,1.09,0,0,0,.1.48c.29.58.92.62,1.54.44s1.53-.67,1.53-1.15Z"/><path class="cls-7" d="M309.65,111.78l2.87,1.65,13.53,7.81h0a3.49,3.49,0,0,1,1,.8c.19.25.17.32.17.33a.11.11,0,0,1,0,.06,1.82,1.82,0,0,1-.47.6,4.11,4.11,0,0,1-.69.48h0l-17.57,10.14L302.66,137l-14.14,8.17-25.89,14.94h0a11.21,11.21,0,0,1-9.76,0h0L249,157.9l-26.16-15.11-22.58-13-3.82-2.2L179,117.47,174.69,115l-5.82-3.36h0l-2.34-1.36-3.43-2h0l-11.83-6.82h0a3.49,3.49,0,0,1-1-.8c-.19-.25-.17-.32-.17-.33a.21.21,0,0,1,0-.06,1.67,1.67,0,0,1,.46-.6,4.11,4.11,0,0,1,.69-.48h0l10.09-5.82,3-1.73L179,83.22V76.51q-13.8,8-27.58,15.92c.12.49.23,1,.35,1.47.16.71-.06,1.66-.68,1.86a4.16,4.16,0,0,1-1.86-.27,10.36,10.36,0,0,0-2.12-.32s-.2,0-.2,0a6.8,6.8,0,0,0-2.58,5.13,7.32,7.32,0,0,0,4.08,6.18h0L163.05,115q2,1.17,4.07,2.35l3.47,2,8.36,4.82,17.46,10.09,3,1.7,3.47,2,20,11.54L234.13,156l3.17,1.83,6.77,3.91,4.9,2.83,1,.57h0a16.9,16.9,0,0,0,15.59,0h0l9-5.19,3.47-2,10.51-6.06h0l5.05-2.91h0l3.48-2,4.46-2.57q1.9-1.11,3.82-2.21h0l3.15-1.82,4-2.33,3.48-2q6.48-3.75,13-7.49h0a6.71,6.71,0,0,0,0-12.35h0L236.63,62.9v6.72l6,3.45,3,1.73,29.24,16.88,3,1.73Z"/><path class="cls-7" d="M313.16,156c-.51.66-1.52.3-2.23-.14a4.35,4.35,0,0,1-.43-.32.69.69,0,0,1-.27-.45h0c0-.17,0-.33.07-.49L299.15,161h0l-4.33,2.5c-.13,1-.25,1.93-.39,2.89a1.19,1.19,0,0,1-.21.52c-.51.66-1.52.3-2.23-.15a2.67,2.67,0,0,1-.43-.32.67.67,0,0,1-.27-.45h0c0-.16.05-.32.07-.49l-2.83,1.64-12.73,7.35c-.12.93-.25,1.86-.38,2.8h0a.27.27,0,0,1,0,.13,1,1,0,0,1-.21.48c-.51.66-1.52.3-2.22-.15-.25-.15-.71-.48-.71-.78v0c0-.15.05-.3.06-.45l-9.71,5.61h0a11.25,11.25,0,0,1-9.76,0h0L249,179.87l-11.71-6.77v.47h0c0,.48-1,1-1.53,1.15s-1.25.14-1.54-.44a1.09,1.09,0,0,1-.1-.48h0c0-.84,0-1.69,0-2.53l-3.23-1.86-8.05-4.65L205,154.5c0,.15,0,.31.07.47h0c0,.24-.29.47-.49.62a2.58,2.58,0,0,1-2,.6,1,1,0,0,1-.66-.83v0c-.12-.95-.25-1.91-.38-2.86h0l-1.33-.77-3.82-2.2L179,139.43l-6.16-3.55h0l.06.43c0,.24-.21.48-.48.67a2.61,2.61,0,0,1-2,.61,1,1,0,0,1-.65-.82.09.09,0,0,1,0-.05c-.13-.95-.25-1.89-.38-2.84l-3.48-2-8.2-4.74h0a3.49,3.49,0,0,1-1-.8c-.19-.25-.17-.32-.17-.34v0a1.59,1.59,0,0,1,.47-.6,4,4,0,0,1,.68-.48h0l6.92-4,2.81-1.62c-.08-.62-.17-1.25-.25-1.87q-2-1.19-4.07-2.35l-8.32,4.8a6.72,6.72,0,0,0,0,12.36h0q6,3.47,12,6.94l3.53,2,3.47,2h0l15.48,8.94,3.18,1.83,7.81,4.51,2.3,1.33,3.47,2,16.81,9.71,2.24,1.29,9,5.21,3.17,1.83,12.66,7.32h0l.23.13a14.07,14.07,0,0,0,3.91,1.41,19,19,0,0,0,2.74.34,16.1,16.1,0,0,0,8.71-1.88h0l5.81-3.36h0l3.48-2,13.71-7.91,1.85-1.07,3.47-2h0l15.47-8.93,3.47-2,9.8-5.66h0a6.72,6.72,0,0,0,0-12.36h0l-6.84-3.95-.84,6.24,4.78,2.75h0a3.49,3.49,0,0,1,1,.8c.19.25.17.32.17.33a.21.21,0,0,1,0,.06,1.67,1.67,0,0,1-.46.6,4.57,4.57,0,0,1-.69.48h0l-5.92,3.41c-.12.94-.25,1.87-.37,2.81,0,0,0,.09,0,.13A1.19,1.19,0,0,1,313.16,156Z"/><path class="cls-7" d="M273,177.74c.7.45,1.71.81,2.22.15a1,1,0,0,0,.21-.48.59.59,0,0,0,0-.13h0c.13-.94.26-1.87.38-2.8L278,158l-3.47,2q-1.12,8.25-2.23,16.49c0,.15,0,.3-.06.45v0C272.25,177.26,272.71,177.59,273,177.74Z"/><path class="cls-7" d="M291.29,166a.67.67,0,0,0,.27.45,2.67,2.67,0,0,0,.43.32c.71.45,1.72.81,2.23.15a1.19,1.19,0,0,0,.21-.52c.14-1,.26-1.93.39-2.89s.25-1.85.38-2.77q.92-6.87,1.85-13.73l-3.48,2h0l-1.92,14.3-.3,2.19c0,.17,0,.33-.07.49Z"/><path class="cls-7" d="M283.13,190.13a6.16,6.16,0,0,0,5.59.66,5.36,5.36,0,0,0,3-4.49h0c.55-4.05,1.09-8.08,1.64-12.12l.45-3.4-3.47,2-1.77,13.1h0a2.91,2.91,0,0,1-.72,1.71c-.81.79-2.21.35-3.18-.22h0c-.17-.1-8.32-6.37-8.5-6.47-1,.7,5.93,7.48,4.79,8l2.12,1.23h0Z"/><path class="cls-7" d="M293.84,170.78l-.45,3.4,8.66,5h0c4.14,2.43,8.08.59,8.64-3.81h0q1.05-7.76,2.09-15.52l-3.47,2q-.88,6.56-1.76,13.1h0a3,3,0,0,1-.73,1.71c-.81.78-2.21.34-3.18-.23h0Z"/><path class="cls-20" d="M179.19,355.23v-1.58c32.4-18.7,30.73-17.64,31.13-18.17a1.82,1.82,0,0,0,.36-1v1.6a1.88,1.88,0,0,1-.71,1.31C209.74,337.62,212.32,336.12,179.19,355.23Z"/><polygon class="cls-49" points="198.46 333.72 194.33 336.12 181.91 328.94 186.06 326.55 198.46 333.72"/><polygon class="cls-49" points="182.27 324.36 178.14 326.75 165.72 319.58 169.85 317.2 182.27 324.36"/><path class="cls-18" d="M180.43,344.17a3.85,3.85,0,0,1-2.27-.47,1.26,1.26,0,0,1-.78-1.32c.07-.55.64-1.14,1.67-1.74a6.78,6.78,0,0,1,3-1,4.09,4.09,0,0,1,2.27.45,1.29,1.29,0,0,1,.81,1.36c-.1.55-.69,1.15-1.81,1.79A6.35,6.35,0,0,1,180.43,344.17Z"/><path class="cls-50" d="M179.19,353.65v1.6l-11.05,6.37V360Z"/><path class="cls-51" d="M103.29,309.84q38,21.92,75.9,43.81L168.14,360,92.28,316.21Z"/><path class="cls-20" d="M178.16,343.7a3.85,3.85,0,0,0,2.27.47,6.35,6.35,0,0,0,2.87-.93c1.12-.64,1.71-1.24,1.81-1.79a1.29,1.29,0,0,0-.81-1.36,4.09,4.09,0,0,0-2.27-.45,6.78,6.78,0,0,0-3,1c-1,.6-1.6,1.19-1.67,1.74A1.26,1.26,0,0,0,178.16,343.7Zm-2.27-2.34c.79-1.27,2.88-2.21,4.35-2.56a7,7,0,0,1,5.08.57c.75.43,1.34,1.08,1.12,1.92l4-2.32,1.38.79-11.2,6.47-1.27-.74c2.44-1.38.09.29-2.45-1.2C175.71,343.6,175.13,342.53,175.89,341.36Z"/><path class="cls-20" d="M168.87,339.44l8.1-4.68,1.24.72-1.22.7a7.88,7.88,0,0,1,2-.15,2.43,2.43,0,0,1,2.12,1.43l-1.76.46c-.38-1-1.91-1.29-3-.93-1.35.4-1.56.65-6.08,3.24Z"/><polygon class="cls-49" points="166.08 315.02 161.93 317.41 149.53 310.24 153.66 307.84 166.08 315.02"/><path class="cls-18" d="M165.48,336.05c-.8-.13-2.53-.74-2.62-1.53-.07-.59.69-1,1.34-1,1.57-.16,2.74,1,5.23,1.59A5.12,5.12,0,0,1,165.48,336.05Z"/><path class="cls-20" d="M165.18,333.53c-1.7-.36-3.37.8-1.48,1.9a5.41,5.41,0,0,0,3.64.6,7.88,7.88,0,0,0,2.09-1C167.69,334.64,166.09,333.71,165.18,333.53Zm-4.28.78c-.07-1.06,1.25-1.68,2.31-1.86,2.81-.47,4.56,1.26,7.29,2,.43-.24,1.2-.63,1.17-1.12-.12-.88-2-1.72-2.87-1.81a5.16,5.16,0,0,0-1.89.31l-1.16-.88a6.15,6.15,0,0,1,4-.24,8.46,8.46,0,0,1,3.56,2,1.07,1.07,0,0,1-.15,1.7c-.7.57-4.21,2.39-5.37,3.29a2.13,2.13,0,0,0-.64.75l-1.43-.82a2.21,2.21,0,0,1,.73-.74,8.87,8.87,0,0,1-4.17-1.05C161.42,335.34,161,334.82,160.9,334.31Z"/><path class="cls-20" d="M154.31,324.48a11.58,11.58,0,0,1,7.61-1.42c3.6.63,7.11,3,4.54,5.6l-1.79-.63c1-1.12,1-2.14-.66-3.08a7.44,7.44,0,0,0-5.66-.64,9.65,9.65,0,0,0-4.57,2.72c-.9,1.22-.19,2.34,1.06,3.08a7.16,7.16,0,0,0,6.13.24l1.12,1.07a10,10,0,0,1-8.38-.52,4.6,4.6,0,0,1-2.21-2.11C150.85,327.05,152.71,325.41,154.31,324.48Z"/><polygon class="cls-49" points="149.89 305.66 145.74 308.05 133.32 300.89 137.46 298.5 149.89 305.66"/><path class="cls-18" d="M209.54,332.93c.55.32,1.24,1,1.14,1.6a2,2,0,0,1-1.14,1.6l-30.35,17.52q-37.93-21.91-75.9-43.81c33.07-19.1,30.61-17.8,31.7-18a6.13,6.13,0,0,1,4.18.5Zm-27.63-4,12.42,7.18,4.13-2.4-12.4-7.17Zm-4.27,10.89c-2.75,1.61-2.56,3.4-.74,4.46,2.54,1.48,4.88-.18,2.45,1.2l1.27.74,11.2-6.47-1.38-.79-4,2.32C187,339.24,182.23,337.2,177.64,339.83Zm-.67-5.07-8.1,4.68,1.37.79c4.59-2.63,4.75-2.84,6.08-3.24,1.15-.37,2.66-.05,3,.93l1.76-.46A2.43,2.43,0,0,0,179,336a7.88,7.88,0,0,0-2,.15l1.22-.7Zm-11.25-15.18,12.42,7.17,4.13-2.39-12.42-7.15Zm-3.87,13.34c-1.3.76-1.39,1.87.46,2.94a8.87,8.87,0,0,0,4.17,1.05,2.21,2.21,0,0,0-.73.74l1.43.82c.34-.67.92-1,3-2.22.55-.3,2.55-1.42,3.05-1.82a1.07,1.07,0,0,0,.15-1.7,8.43,8.43,0,0,0-3.56-2,6.15,6.15,0,0,0-4,.24l1.16.88a5.16,5.16,0,0,1,1.89-.31c.89.09,2.75.93,2.87,1.81,0,.5-.76.89-1.17,1.12-1.52-.41-3.18-1.33-4.35-1.74A5.42,5.42,0,0,0,161.85,332.92Zm.24-1.5L161,330.35a7.16,7.16,0,0,1-6.13-.24c-1.25-.74-2-1.85-1.06-3.08a9.68,9.68,0,0,1,4.57-2.72A7.44,7.44,0,0,1,164,325c1.61.93,1.66,1.95.66,3.08l1.79.63c2.57-2.63-1-5-4.54-5.6a11.58,11.58,0,0,0-7.61,1.42c-1.6.93-3.46,2.57-2.81,4.31a4.6,4.6,0,0,0,2.21,2.11A10,10,0,0,0,162.09,331.42Zm-21.34-21.29c-.24-.81-1-1.2-1.74-1.6-1.45-.8-2-1.19-4.18-2.41-.77-.43-1.55-.86-2.32-1.32a10.49,10.49,0,0,0-1.89-1,6.52,6.52,0,0,0-3.19-.22,14.61,14.61,0,0,0-4.3,2.13c-1.85,1.16-1.85,1.07-2.8,1.62-1.42.87-1.43,2-.5,2.84.42.36,6.45,3.73,7.64,4.46a6.4,6.4,0,0,0,3.47,1.3c3,.19,4.7-1.67,8-3.44.64-.32,1.52-.75,1.79-1.55A1.41,1.41,0,0,0,140.75,310.13Zm5-2.08,4.15-2.39-12.43-7.16-4.14,2.39Zm20.34,7-12.42-7.18-4.13,2.4,12.4,7.17Z"/><path class="cls-52" d="M125.14,313.28c-4-2.31-3.5-2.06-4.18-2.42s-1.52-.8-1.72-1.6a1.5,1.5,0,0,1,.45-1.47,6,6,0,0,1,1.36-.87c3.23-1.7,5-3.64,8-3.45a6.52,6.52,0,0,1,3.48,1.33c.78.47,7.11,4,7.64,4.46a1.51,1.51,0,0,1,.57,1.66c-.26.79-1.13,1.22-1.79,1.55-3.28,1.76-5,3.63-8,3.44C129.05,315.79,129,315.4,125.14,313.28Z"/><path class="cls-18" d="M90.88,320.2c-1.61-.95-1.45-2.41,0-3.18l1.38-.81c.17,0-.81-.47,75.88,43.82l-1.37.79a6.06,6.06,0,0,1-4.2.5C161.44,361.07,166.19,363.68,90.88,320.2Z"/><path class="cls-20" d="M89.73,320.2v-1.6a1.72,1.72,0,0,0,.36.95c.39.51-4.21-2.24,71.15,41.27a6.06,6.06,0,0,0,4.2.5,8.21,8.21,0,0,0,2.7-1.29v1.59l-1.37.79a6.05,6.05,0,0,1-4.2.51c-1.07-.23,3.52,2.29-71.69-41.14A1.93,1.93,0,0,1,89.73,320.2Z"/><polygon class="cls-20" points="219.16 47.75 219.16 65.38 196.41 78.75 180.94 69.82 219.16 47.75"/><path class="cls-15" d="M237.22,115.88h50a43.81,43.81,0,0,1-3.48,3.35l3.48,3.37h-50l3.29-3.32Z"/><path class="cls-15" d="M289.29,123.27l-4.19-4c1.21-1.06,3.07-3,4.19-4Z"/><path class="cls-53" d="M433.69,207.06c3.76,5.08,2.79,10.86-2.57,14s-14.15,2.67-20.65-1.81a14,14,0,0,1-5.91-7.78,8.35,8.35,0,0,1,1.2-6.91c1.48-2.13,4.3-4.09,8.48-4.77C421.57,198.57,429.76,201.77,433.69,207.06Zm-6.05,5.5a2.46,2.46,0,0,0,1.06-2.22,3.87,3.87,0,0,0-1.19-2.13l.69-.39-.82-.73-.69.4a7.22,7.22,0,0,0-2.87-1.4,5,5,0,0,0-3.54.5,2.22,2.22,0,0,0-1.23,2.74,6.36,6.36,0,0,0,1.07,1.95l-4.59,2.65a1.91,1.91,0,0,1-.55-1.74,2.9,2.9,0,0,1,1.14-1.5l-1.68-1.08a3.34,3.34,0,0,0-1.34,1.59,2.34,2.34,0,0,0,0,1.65,6.29,6.29,0,0,0,1.22,1.78l-1.44.83.82.73,1.45-.84a6.72,6.72,0,0,0,3.46,1.49,5.29,5.29,0,0,0,3.41-.63,2.54,2.54,0,0,0,1.43-2.06,2.89,2.89,0,0,0-.35-1.36,12.13,12.13,0,0,0-1-1.48l4.15-2.39a1.57,1.57,0,0,1-.31,2.5Z"/><path class="cls-54" d="M428.7,210.34a2.46,2.46,0,0,1-1.06,2.22L426,211.42a1.57,1.57,0,0,0,.31-2.5l-4.15,2.39a12.13,12.13,0,0,1,1,1.48,2.89,2.89,0,0,1,.35,1.36,2.54,2.54,0,0,1-1.43,2.06,5.29,5.29,0,0,1-3.41.63,6.72,6.72,0,0,1-3.46-1.49l-1.45.84-.82-.73,1.44-.83a6.29,6.29,0,0,1-1.22-1.78,2.34,2.34,0,0,1,0-1.65,3.34,3.34,0,0,1,1.34-1.59l1.68,1.08a2.9,2.9,0,0,0-1.14,1.5,1.91,1.91,0,0,0,.55,1.74l4.59-2.65a6.36,6.36,0,0,1-1.07-1.95,2.22,2.22,0,0,1,1.23-2.74,5,5,0,0,1,3.54-.5,7.22,7.22,0,0,1,2.87,1.4l.69-.4.82.73-.69.39A3.87,3.87,0,0,1,428.7,210.34Zm-7.2.14,4-2.3c-2.17-1.49-4.36-.56-4.54.65A2.57,2.57,0,0,0,421.5,210.48Zm-.12,3.46a3.09,3.09,0,0,0-.64-1.82l-4.39,2.53a4.11,4.11,0,0,0,2.07.77,3.41,3.41,0,0,0,2.08-.42A1.6,1.6,0,0,0,421.38,213.94Z"/><path class="cls-53" d="M425.49,208.18l-4,2.3a2.57,2.57,0,0,1-.55-1.65C421.13,207.62,423.32,206.69,425.49,208.18Z"/><path class="cls-53" d="M420.74,212.12a3.09,3.09,0,0,1,.64,1.82,1.6,1.6,0,0,1-.88,1.06,3.41,3.41,0,0,1-2.08.42,4.11,4.11,0,0,1-2.07-.77Z"/><path class="cls-54" d="M385.67,207.41c-.2-5.26,6-10,15-11.22a32.65,32.65,0,0,1,13.48.94,20.51,20.51,0,0,0-4.75,1.07,27.21,27.21,0,0,0-9.92.29,17,17,0,0,0-8.12,4c-3.23,3.16-2.94,7.08.66,10.05a18.53,18.53,0,0,0,8.34,3.54,11.26,11.26,0,0,0,.46,1.24c.17.4.38.81.46,1a24.39,24.39,0,0,1-11.6-4.2,11.08,11.08,0,0,1-3-3.32A7.33,7.33,0,0,1,385.67,207.41Z"/><path class="cls-54" d="M402.68,203.08c1.82-2.62,5.26-5,10.29-5.79,8.77-1.44,18.8,2.35,23.63,8.86,4.59,6.2,3.37,13.21-3.12,17s-17.17,3.26-25.08-2.2c-4.18-2.89-6.41-6.4-7.18-9.46A10.12,10.12,0,0,1,402.68,203.08ZM431.12,221c5.36-3.11,6.33-8.89,2.57-14-3.93-5.29-12.12-8.49-19.45-7.3-4.18.68-7,2.64-8.48,4.77a8.35,8.35,0,0,0-1.2,6.91,14,14,0,0,0,5.91,7.78C417,223.7,425.74,224.15,431.12,221Z"/><path class="cls-53" d="M400.91,207.37c-.2.73-.39,1.45-.58,2.17a1.12,1.12,0,0,1-.27-1A2.36,2.36,0,0,1,400.91,207.37Z"/><path class="cls-53" d="M400.38,216A18.53,18.53,0,0,1,392,212.5c-3.6-3-3.89-6.89-.66-10.05a17,17,0,0,1,8.12-4,27.21,27.21,0,0,1,9.92-.29c-3.87,1.39-7.21,4.13-8.23,8.12l-.21.77-1.53-.61a3.31,3.31,0,0,0-1.33,1.43,1.48,1.48,0,0,0,.05,1.32,4.47,4.47,0,0,0,1.27,1.3l-1.44.83.85.49,1.1-.63s0,.19,0,.25a10.67,10.67,0,0,0,.26,3.83C400.24,215.59,400.35,216,400.38,216Z"/><path class="cls-54" d="M401,207.09c0,.1-.05.19-.07.28a2.36,2.36,0,0,0-.85,1.12,1.12,1.12,0,0,0,.27,1,11.59,11.59,0,0,0-.38,1.68l-1.1.63-.85-.49,1.44-.83a4.47,4.47,0,0,1-1.27-1.3,1.48,1.48,0,0,1-.05-1.32,3.31,3.31,0,0,1,1.33-1.43Z"/><path class="cls-53" d="M401,207.09l0,0a10.63,10.63,0,0,0,.2,4.36c.77,3.06,3,6.57,7.18,9.46,7.91,5.46,18.58,6,25.08,2.2a11.36,11.36,0,0,0,5.5-6.64l-1,3.69a10.24,10.24,0,0,1-1.27,2.88c-.2.32-.65.91-.7,1a15,15,0,0,1-8,4.76c-8.31,2.13-18.38-.91-23.91-6.68A16.61,16.61,0,0,1,401.2,218a12.11,12.11,0,0,1-1.33-4.56,10.24,10.24,0,0,1,0-2A35.33,35.33,0,0,1,401,207.09Z"/><path class="cls-53" d="M356,185.07c0,.1,0,.2,0,.3v-4.58a6.53,6.53,0,0,0,.06.78,8,8,0,0,0,1.77,3.93c.23.29.72.81.87.95a18,18,0,0,0,7,4c.11,0,.5.17.63.2,6.93,2.15,16,1.79,22.36-1.55,3.35-1.73,6.47-4.65,6.47-8.39v4.64c0,3.07-2.11,5.59-4.65,7.31A25.52,25.52,0,0,1,378,196.57h0a32.72,32.72,0,0,1-11.45-1.15,19.24,19.24,0,0,1-8-4.38A8,8,0,0,1,356,185.07Z"/><path class="cls-54" d="M392.58,190.9c-.85,2.55-3.05,4.51-5.38,5.86-8.42,4.86-22.43,4.29-29.54-1.25a30.2,30.2,0,0,0,11.47,2.24c5.08.79,11,.19,15.66-2.42a21.27,21.27,0,0,0,5.64-2.65,13.34,13.34,0,0,0,2.15-1.78Z"/><path class="cls-53" d="M385.69,212.18c0-.23,0,.08,0-4.77a7.33,7.33,0,0,0,1,3.31,11.08,11.08,0,0,0,3,3.32,24.39,24.39,0,0,0,11.6,4.2,16.86,16.86,0,0,0,2.84,3.86c.37.38.72.71,1.06,1-5.68,0-12.69-1.56-16.75-5.5A8.29,8.29,0,0,1,385.69,212.18Z"/><path class="cls-53" d="M369.13,197.75a32,32,0,0,0,8.88-1.17,30.31,30.31,0,0,0,6.78-1.25C380.19,197.92,374.24,198.54,369.13,197.75Z"/><path class="cls-53" d="M349.78,186.18a2.44,2.44,0,0,0,0,.27V181.8a7.43,7.43,0,0,0,1.51,4.35c1.77,2.46,4.77,4.17,7.65,5.22h0a19.34,19.34,0,0,0,7.63,4A32.77,32.77,0,0,0,378,196.58c-7.81,2.24-16.92,1.11-22.46-2.12a11.7,11.7,0,0,1-5.32-5.58A6.82,6.82,0,0,1,349.78,186.18Z"/><path class="cls-53" d="M356,180.73v-4.1l0,0a7.82,7.82,0,0,0,1.76,4.18c5.68,7.15,22,8.83,31.62,3.28a13.5,13.5,0,0,0,3.94-3.26,7.59,7.59,0,0,0,1.79-4.73v4.65c0,3.75-3.13,6.66-6.47,8.39A28.38,28.38,0,0,1,376.5,192a32,32,0,0,1-10.88-1.54c-3-1-6.44-2.9-8.22-5.48A7.34,7.34,0,0,1,356,180.73Z"/><path class="cls-54" d="M393.31,171.37a7.13,7.13,0,0,1,0,9.44,13.5,13.5,0,0,1-3.94,3.26c-9.64,5.55-25.94,3.87-31.62-3.28a7.06,7.06,0,0,1-1.15-7.55,11.88,11.88,0,0,1,5.11-5.15c6.58-3.78,16.47-4.29,23.94-1.68A17,17,0,0,1,393.31,171.37Zm-3.16,8.6a5.87,5.87,0,0,0,0-7.77c-4.66-5.87-18.06-7.27-26-2.7a11,11,0,0,0-3.25,2.69,5.86,5.86,0,0,0,0,7.77c4.66,5.88,18.06,7.27,26,2.7A11.08,11.08,0,0,0,390.15,180Z"/><path class="cls-53" d="M390.16,172.2a5.87,5.87,0,0,1,0,7.77,11.08,11.08,0,0,1-3.25,2.69c-8,4.57-21.36,3.18-26-2.7a5.86,5.86,0,0,1,0-7.77,11,11,0,0,1,3.25-2.69C372.1,164.93,385.5,166.33,390.16,172.2Zm-10.88,1.43,2.12-.08a2.35,2.35,0,0,0-1.35-1.83,7.13,7.13,0,0,0-2.72-.73c0-.19.05-.37.08-.56l-1.19-.06c0,.19-.06.38-.08.56a8.69,8.69,0,0,0-3.14.49,2.6,2.6,0,0,0-1.82,2c-.16,1.08.68,1.82,1.71,2.22a12.24,12.24,0,0,0,2.48.68l-.54,3.73a3.42,3.42,0,0,1-1.95-.8,2.1,2.1,0,0,1-.64-1.42l-2.07.12a2.18,2.18,0,0,0,.59,1.58,3.61,3.61,0,0,0,1.51,1,11.33,11.33,0,0,0,2.42.51c-.06.39-.11.78-.17,1.17l1.2.06c0-.4.11-.79.17-1.19a7.5,7.5,0,0,0,3.6-.7,2.7,2.7,0,0,0,1.63-2,2,2,0,0,0-1-1.91,5.64,5.64,0,0,0-1.47-.66c-.32-.1-1-.25-2-.44.17-1.13.33-2.25.49-3.38a3.39,3.39,0,0,1,1.49.56A1.54,1.54,0,0,1,379.28,173.63Z"/><path class="cls-54" d="M381.4,173.55l-2.12.08a1.54,1.54,0,0,0-.6-1.09,3.39,3.39,0,0,0-1.49-.56c-.16,1.13-.32,2.25-.49,3.38,1,.19,1.66.34,2,.44a5.64,5.64,0,0,1,1.47.66,2,2,0,0,1,1,1.91,2.7,2.7,0,0,1-1.63,2,7.5,7.5,0,0,1-3.6.7c-.06.4-.12.79-.17,1.19l-1.2-.06c.06-.39.11-.78.17-1.17a11.33,11.33,0,0,1-2.42-.51,3.61,3.61,0,0,1-1.51-1,2.18,2.18,0,0,1-.59-1.58l2.07-.12a2.1,2.1,0,0,0,.64,1.42,3.42,3.42,0,0,0,1.95.8l.54-3.73a12.24,12.24,0,0,1-2.48-.68c-1-.4-1.87-1.14-1.71-2.22a2.6,2.6,0,0,1,1.82-2,8.69,8.69,0,0,1,3.14-.49c0-.18.05-.37.08-.56l1.19.06c0,.19-.05.37-.08.56a7.13,7.13,0,0,1,2.72.73A2.35,2.35,0,0,1,381.4,173.55Zm-2.38,4.8a1.08,1.08,0,0,0-.4-1,5.48,5.48,0,0,0-2.08-.8l-.51,3.57a4.39,4.39,0,0,0,2-.5A1.69,1.69,0,0,0,379,178.35Zm-3.49-3.2c.16-1.08.31-2.16.47-3.24a4.31,4.31,0,0,0-1.95.46,1.41,1.41,0,0,0-.83,1C373.06,174.48,374.45,174.9,375.53,175.15Z"/><path class="cls-53" d="M378.62,177.3a1.08,1.08,0,0,1,.4,1,1.69,1.69,0,0,1-.95,1.22,4.39,4.39,0,0,1-2,.5l.51-3.57A5.48,5.48,0,0,1,378.62,177.3Z"/><path class="cls-53" d="M376,171.91c-.16,1.08-.31,2.16-.47,3.24-1.08-.25-2.47-.67-2.31-1.77a1.41,1.41,0,0,1,.83-1A4.31,4.31,0,0,1,376,171.91Z"/><path class="cls-54" d="M358.93,191.37c-2.88-1.05-5.88-2.76-7.65-5.22-2.24-3.1-2-6.7.93-9.8a15.28,15.28,0,0,1,4.37-3.11,6.92,6.92,0,0,0-.63,2.84v.55c-3.73,3.22-3.59,7.43.26,10.56a8.64,8.64,0,0,0,2.05,3.51C358.5,191,358.92,191.36,358.93,191.37Z"/><path class="cls-53" d="M356,186.06a6.4,6.4,0,0,0,.22,1.13c-3.85-3.13-4-7.34-.26-10.56C356,185.88,355.94,185.69,356,186.06Z"/><path class="cls-53" d="M353.88,193.38a18.26,18.26,0,0,0,3.36,2l.42.18c7.11,5.54,21.12,6.11,29.54,1.25,2.33-1.35,4.53-3.31,5.38-5.86h0l.35-.37v2.88a1.69,1.69,0,0,0,0-.23,6.85,6.85,0,0,1-.71,3.29,9,9,0,0,1-1.32,2c-.25.29-.68.73-.9.93-8.16,7.63-27.39,6.85-34.11-.88a7.73,7.73,0,0,1-2.08-5.14v0Z"/><path class="cls-53" d="M61.63,284.34v-4.09l0,0a7.72,7.72,0,0,0,1.76,4.17c5.68,7.16,22,8.83,31.62,3.28A13.47,13.47,0,0,0,99,284.42a7.55,7.55,0,0,0,1.79-4.73v4.65c0,3.75-3.14,6.67-6.47,8.39a28.38,28.38,0,0,1-12.11,2.89,31.81,31.81,0,0,1-10.89-1.54c-3-1-6.43-2.89-8.21-5.48A7.34,7.34,0,0,1,61.63,284.34Z"/><path class="cls-54" d="M99,275a7.12,7.12,0,0,1,0,9.43A13.47,13.47,0,0,1,95,287.68c-9.65,5.55-25.94,3.88-31.62-3.28a7,7,0,0,1-1.15-7.55,11.87,11.87,0,0,1,5.11-5.15c6.57-3.77,16.46-4.28,23.94-1.68A16.94,16.94,0,0,1,99,275Zm-3.15,8.6a5.88,5.88,0,0,0,0-7.77c-4.66-5.88-18.06-7.28-26-2.71a11.31,11.31,0,0,0-3.26,2.69,5.88,5.88,0,0,0,0,7.77c4.67,5.88,18.07,7.27,26,2.71A11.4,11.4,0,0,0,95.83,283.59Z"/><path class="cls-53" d="M95.84,275.82a5.88,5.88,0,0,1,0,7.77,11.4,11.4,0,0,1-3.25,2.69c-8,4.56-21.36,3.17-26-2.71a5.88,5.88,0,0,1,0-7.77,11.31,11.31,0,0,1,3.26-2.69C77.78,268.54,91.18,269.94,95.84,275.82ZM85,277.25l2.12-.09a2.4,2.4,0,0,0-1.35-1.82A6.94,6.94,0,0,0,83,274.6c0-.18,0-.37.08-.56l-1.2-.05c0,.18,0,.37-.08.56a8.25,8.25,0,0,0-3.13.49A2.63,2.63,0,0,0,76.85,277c-.15,1.08.69,1.82,1.72,2.22a12.15,12.15,0,0,0,2.47.68c-.17,1.25-.35,2.49-.53,3.73a3.38,3.38,0,0,1-2-.79,2.13,2.13,0,0,1-.64-1.43l-2.07.12a2.24,2.24,0,0,0,.58,1.59,3.72,3.72,0,0,0,1.52,1,11.2,11.2,0,0,0,2.42.51c-.06.39-.12.78-.17,1.17l1.19.06c.06-.39.12-.79.17-1.18a7.45,7.45,0,0,0,3.6-.71,2.71,2.71,0,0,0,1.64-2,2,2,0,0,0-1-1.91,5.41,5.41,0,0,0-1.46-.66c-.32-.09-1-.24-2-.44.16-1.12.32-2.25.49-3.38a3.44,3.44,0,0,1,1.49.56A1.6,1.6,0,0,1,85,277.25Z"/><path class="cls-54" d="M87.08,277.16l-2.12.09a1.6,1.6,0,0,0-.6-1.1,3.44,3.44,0,0,0-1.49-.56c-.17,1.13-.33,2.26-.49,3.38,1,.2,1.66.35,2,.44a5.41,5.41,0,0,1,1.46.66,2,2,0,0,1,1,1.91,2.71,2.71,0,0,1-1.64,2,7.45,7.45,0,0,1-3.6.71c0,.39-.11.79-.17,1.18l-1.19-.06c0-.39.11-.78.17-1.17A11.2,11.2,0,0,1,78,284.1a3.72,3.72,0,0,1-1.52-1,2.24,2.24,0,0,1-.58-1.59l2.07-.12a2.13,2.13,0,0,0,.64,1.43,3.38,3.38,0,0,0,2,.79c.18-1.24.36-2.48.53-3.73a12.15,12.15,0,0,1-2.47-.68c-1-.4-1.87-1.14-1.72-2.22A2.63,2.63,0,0,1,78.68,275a8.25,8.25,0,0,1,3.13-.49c0-.19.06-.38.08-.56l1.2.05c0,.19,0,.38-.08.56a6.94,6.94,0,0,1,2.72.74A2.4,2.4,0,0,1,87.08,277.16ZM84.7,282a1.09,1.09,0,0,0-.4-1,5.65,5.65,0,0,0-2.08-.8c-.17,1.19-.34,2.38-.52,3.57a4.46,4.46,0,0,0,2-.5A1.67,1.67,0,0,0,84.7,282Zm-3.49-3.19c.15-1.09.31-2.17.46-3.25a4.4,4.4,0,0,0-1.94.46,1.39,1.39,0,0,0-.83,1C78.74,278.09,80.12,278.52,81.21,278.77Z"/><path class="cls-53" d="M84.3,280.91a1.09,1.09,0,0,1,.4,1,1.67,1.67,0,0,1-1,1.22,4.46,4.46,0,0,1-2,.5c.18-1.19.35-2.38.52-3.57A5.65,5.65,0,0,1,84.3,280.91Z"/><path class="cls-53" d="M81.67,275.52c-.15,1.08-.31,2.16-.46,3.25-1.09-.25-2.47-.68-2.31-1.77a1.39,1.39,0,0,1,.83-1A4.4,4.4,0,0,1,81.67,275.52Z"/><path class="cls-53" d="M257.9,367.14c3.76,5.08,2.79,10.86-2.57,14s-14.15,2.67-20.64-1.82a14,14,0,0,1-5.92-7.78,8.32,8.32,0,0,1,1.2-6.9c1.48-2.14,4.3-4.1,8.48-4.78C245.78,358.65,254,361.85,257.9,367.14Zm-6,5.5a2.45,2.45,0,0,0,1.06-2.21,3.8,3.8,0,0,0-1.19-2.13l.69-.4-.82-.73-.69.4a7.22,7.22,0,0,0-2.87-1.4,5,5,0,0,0-3.54.5,2.22,2.22,0,0,0-1.23,2.74,6.36,6.36,0,0,0,1.07,1.95L239.74,374a1.91,1.91,0,0,1-.55-1.74,2.85,2.85,0,0,1,1.14-1.49l-1.68-1.09a3.34,3.34,0,0,0-1.34,1.59,2.29,2.29,0,0,0,0,1.65,6,6,0,0,0,1.21,1.78l-1.44.83.82.73,1.45-.84a6.76,6.76,0,0,0,3.46,1.49,5.29,5.29,0,0,0,3.41-.63,2.52,2.52,0,0,0,1.43-2.06,3,3,0,0,0-.34-1.36,14.23,14.23,0,0,0-1-1.48L250.5,369a1.57,1.57,0,0,1-.31,2.5Z"/><path class="cls-54" d="M252.91,370.43a2.45,2.45,0,0,1-1.06,2.21l-1.66-1.14a1.57,1.57,0,0,0,.31-2.5l-4.15,2.39a14.23,14.23,0,0,1,1,1.48,3,3,0,0,1,.34,1.36,2.52,2.52,0,0,1-1.43,2.06,5.29,5.29,0,0,1-3.41.63,6.76,6.76,0,0,1-3.46-1.49l-1.45.84-.82-.73,1.44-.83a6,6,0,0,1-1.21-1.78,2.29,2.29,0,0,1,0-1.65,3.34,3.34,0,0,1,1.34-1.59l1.68,1.09a2.85,2.85,0,0,0-1.14,1.49,1.91,1.91,0,0,0,.55,1.74l4.59-2.65a6.36,6.36,0,0,1-1.07-1.95,2.22,2.22,0,0,1,1.23-2.74,5,5,0,0,1,3.54-.5,7.22,7.22,0,0,1,2.87,1.4l.69-.4.82.73-.69.4A3.8,3.8,0,0,1,252.91,370.43Zm-7.2.13,4-2.3c-2.17-1.49-4.36-.55-4.54.65A2.54,2.54,0,0,0,245.71,370.56Zm-.12,3.46a3.09,3.09,0,0,0-.64-1.82l-4.39,2.54a4.1,4.1,0,0,0,2.07.76,3.34,3.34,0,0,0,2.08-.42A1.58,1.58,0,0,0,245.59,374Z"/><path class="cls-53" d="M249.7,368.26l-4,2.3a2.54,2.54,0,0,1-.55-1.65C245.34,367.71,247.53,366.77,249.7,368.26Z"/><path class="cls-53" d="M245,372.2a3.09,3.09,0,0,1,.64,1.82,1.58,1.58,0,0,1-.88,1.06,3.34,3.34,0,0,1-2.08.42,4.1,4.1,0,0,1-2.07-.76Z"/><path class="cls-54" d="M209.88,367.49c-.2-5.26,6-10,15-11.22a32.82,32.82,0,0,1,13.48.94,20.51,20.51,0,0,0-4.75,1.07,27.21,27.21,0,0,0-9.92.29,17,17,0,0,0-8.12,4c-3.23,3.16-2.94,7.08.66,10.05a18.53,18.53,0,0,0,8.34,3.54c.13.43.39,1.09.46,1.25.17.39.38.8.46.95a24.39,24.39,0,0,1-11.6-4.2,11.08,11.08,0,0,1-3-3.32A7.33,7.33,0,0,1,209.88,367.49Z"/><path class="cls-54" d="M226.89,363.17c1.82-2.63,5.26-5,10.29-5.8,8.77-1.44,18.8,2.35,23.63,8.87,4.59,6.19,3.37,13.2-3.12,17s-17.16,3.26-25.08-2.2c-4.17-2.89-6.41-6.4-7.18-9.46A10.1,10.1,0,0,1,226.89,363.17Zm28.44,17.95c5.36-3.12,6.33-8.9,2.57-14-3.93-5.29-12.12-8.49-19.45-7.3-4.18.68-7,2.64-8.48,4.78a8.32,8.32,0,0,0-1.2,6.9,14,14,0,0,0,5.92,7.78C241.18,383.79,250,384.24,255.33,381.12Z"/><path class="cls-53" d="M225.12,367.46c-.19.72-.39,1.44-.58,2.16a1.12,1.12,0,0,1-.27-1.05A2.3,2.3,0,0,1,225.12,367.46Z"/><path class="cls-53" d="M224.59,376.12a18.53,18.53,0,0,1-8.34-3.54c-3.6-3-3.89-6.89-.66-10.05a17,17,0,0,1,8.12-4,27.21,27.21,0,0,1,9.92-.29c-3.86,1.39-7.21,4.13-8.23,8.12l-.21.77-1.53-.6a3.3,3.3,0,0,0-1.33,1.42,1.5,1.5,0,0,0,0,1.33,4.58,4.58,0,0,0,1.27,1.29l-1.44.83.85.49,1.1-.63s0,.19,0,.25a10.65,10.65,0,0,0,.26,3.83C224.45,375.67,224.56,376,224.59,376.12Z"/><path class="cls-54" d="M225.19,367.17c0,.1-.05.19-.07.29a2.3,2.3,0,0,0-.85,1.11,1.12,1.12,0,0,0,.27,1.05,11.89,11.89,0,0,0-.38,1.68l-1.1.63-.85-.49,1.44-.83a4.58,4.58,0,0,1-1.27-1.29,1.5,1.5,0,0,1,0-1.33,3.3,3.3,0,0,1,1.33-1.42Z"/><path class="cls-53" d="M225.19,367.17l0,0a10.63,10.63,0,0,0,.2,4.36c.77,3.06,3,6.57,7.18,9.46,7.92,5.46,18.58,6,25.08,2.2a11.33,11.33,0,0,0,5.5-6.64l-1,3.7a10,10,0,0,1-1.27,2.87,10.34,10.34,0,0,1-.7,1,15,15,0,0,1-8,4.76c-8.31,2.14-18.38-.91-23.91-6.68a16.76,16.76,0,0,1-2.94-4.05,12.22,12.22,0,0,1-1.33-4.57,11.08,11.08,0,0,1,0-2A35.33,35.33,0,0,1,225.19,367.17Z"/><path class="cls-53" d="M209.9,372.26c0-.23,0,.08,0-4.77a7.33,7.33,0,0,0,1,3.31,11.08,11.08,0,0,0,3,3.32,24.39,24.39,0,0,0,11.6,4.2,16.86,16.86,0,0,0,2.84,3.86c.37.38.72.71,1.07,1-5.69,0-12.7-1.56-16.76-5.5A8.29,8.29,0,0,1,209.9,372.26Z"/></g></g></g></svg>